%TF.GenerationSoftware,KiCad,Pcbnew,7.0.10-7.0.10~ubuntu22.04.1*%
%TF.CreationDate,2024-01-27T22:34:07+01:00*%
%TF.ProjectId,pmod_adc12,706d6f64-5f61-4646-9331-322e6b696361,rev?*%
%TF.SameCoordinates,Original*%
%TF.FileFunction,Legend,Top*%
%TF.FilePolarity,Positive*%
%FSLAX46Y46*%
G04 Gerber Fmt 4.6, Leading zero omitted, Abs format (unit mm)*
G04 Created by KiCad (PCBNEW 7.0.10-7.0.10~ubuntu22.04.1) date 2024-01-27 22:34:07*
%MOMM*%
%LPD*%
G01*
G04 APERTURE LIST*
%ADD10C,0.200000*%
%ADD11C,0.300000*%
%ADD12C,0.100000*%
%ADD13C,0.120000*%
G04 APERTURE END LIST*
D10*
G36*
X114166314Y-67015154D02*
G01*
X114218174Y-67041084D01*
X114266197Y-67089106D01*
X114291695Y-67165600D01*
X114291695Y-67239850D01*
X113691695Y-67239850D01*
X113691695Y-67165600D01*
X113717192Y-67089107D01*
X113765216Y-67041083D01*
X113817074Y-67015154D01*
X113946862Y-66982707D01*
X114036528Y-66982707D01*
X114166314Y-67015154D01*
G37*
G36*
X114605981Y-69230327D02*
G01*
X113377409Y-69230327D01*
X113377409Y-68749374D01*
X113491695Y-68749374D01*
X113496703Y-68764789D01*
X113496827Y-68780997D01*
X113534922Y-68895283D01*
X113548612Y-68913829D01*
X113559079Y-68934371D01*
X113635269Y-69010561D01*
X113649711Y-69017919D01*
X113661259Y-69029293D01*
X113737450Y-69067388D01*
X113748470Y-69069047D01*
X113757917Y-69074959D01*
X113910298Y-69113055D01*
X113922714Y-69112194D01*
X113934552Y-69116041D01*
X114048838Y-69116041D01*
X114060675Y-69112194D01*
X114073092Y-69113055D01*
X114225473Y-69074959D01*
X114234919Y-69069047D01*
X114245940Y-69067388D01*
X114322130Y-69029293D01*
X114333678Y-69017918D01*
X114348119Y-69010561D01*
X114424310Y-68934371D01*
X114434777Y-68913829D01*
X114448468Y-68895283D01*
X114486563Y-68780996D01*
X114486686Y-68764789D01*
X114491695Y-68749374D01*
X114491695Y-68673183D01*
X114486686Y-68657767D01*
X114486563Y-68641560D01*
X114448468Y-68527275D01*
X114434777Y-68508728D01*
X114424311Y-68488187D01*
X114386215Y-68450091D01*
X114379025Y-68446428D01*
X114374283Y-68439900D01*
X114352011Y-68432663D01*
X114331147Y-68422033D01*
X114323177Y-68423295D01*
X114315504Y-68420802D01*
X114048838Y-68420802D01*
X114033775Y-68425696D01*
X114017936Y-68425696D01*
X114005122Y-68435005D01*
X113990059Y-68439900D01*
X113980749Y-68452713D01*
X113967936Y-68462023D01*
X113963041Y-68477086D01*
X113953732Y-68489900D01*
X113953732Y-68505739D01*
X113948838Y-68520802D01*
X113948838Y-68673183D01*
X113967936Y-68731962D01*
X114017936Y-68768289D01*
X114079740Y-68768289D01*
X114129740Y-68731962D01*
X114148838Y-68673183D01*
X114148838Y-68620802D01*
X114268826Y-68620802D01*
X114291695Y-68689410D01*
X114291695Y-68733147D01*
X114266197Y-68809641D01*
X114218174Y-68857663D01*
X114166314Y-68883593D01*
X114036528Y-68916041D01*
X113946862Y-68916041D01*
X113817074Y-68883593D01*
X113765216Y-68857664D01*
X113717192Y-68809640D01*
X113691695Y-68733147D01*
X113691695Y-68658695D01*
X113719233Y-68603619D01*
X113728438Y-68542505D01*
X113699962Y-68487652D01*
X113644683Y-68460013D01*
X113583716Y-68470144D01*
X113540347Y-68514177D01*
X113502252Y-68590367D01*
X113498818Y-68613164D01*
X113491695Y-68635088D01*
X113491695Y-68749374D01*
X113377409Y-68749374D01*
X113377409Y-68198300D01*
X113493788Y-68198300D01*
X113496589Y-68203201D01*
X113496589Y-68208847D01*
X113511700Y-68229646D01*
X113524452Y-68251961D01*
X113529597Y-68254279D01*
X113532916Y-68258847D01*
X113557362Y-68266790D01*
X113580799Y-68277350D01*
X113586326Y-68276200D01*
X113591695Y-68277945D01*
X114391695Y-68277945D01*
X114450474Y-68258847D01*
X114486801Y-68208847D01*
X114486801Y-68147043D01*
X114450474Y-68097043D01*
X114391695Y-68077945D01*
X113968251Y-68077945D01*
X114441309Y-67807626D01*
X114445104Y-67803448D01*
X114450474Y-67801704D01*
X114465585Y-67780905D01*
X114482868Y-67761882D01*
X114483483Y-67756270D01*
X114486801Y-67751704D01*
X114486801Y-67726000D01*
X114489602Y-67700447D01*
X114486801Y-67695545D01*
X114486801Y-67689900D01*
X114471689Y-67669100D01*
X114458938Y-67646786D01*
X114453792Y-67644467D01*
X114450474Y-67639900D01*
X114426027Y-67631956D01*
X114402591Y-67621397D01*
X114397063Y-67622546D01*
X114391695Y-67620802D01*
X113591695Y-67620802D01*
X113532916Y-67639900D01*
X113496589Y-67689900D01*
X113496589Y-67751704D01*
X113532916Y-67801704D01*
X113591695Y-67820802D01*
X114015139Y-67820802D01*
X113542081Y-68091121D01*
X113538285Y-68095298D01*
X113532916Y-68097043D01*
X113517804Y-68117841D01*
X113500522Y-68136865D01*
X113499906Y-68142476D01*
X113496589Y-68147043D01*
X113496589Y-68172746D01*
X113493788Y-68198300D01*
X113377409Y-68198300D01*
X113377409Y-67339850D01*
X113491695Y-67339850D01*
X113496589Y-67354912D01*
X113496589Y-67370752D01*
X113505898Y-67383565D01*
X113510793Y-67398629D01*
X113523606Y-67407938D01*
X113532916Y-67420752D01*
X113547979Y-67425646D01*
X113560793Y-67434956D01*
X113576632Y-67434956D01*
X113591695Y-67439850D01*
X114391695Y-67439850D01*
X114406758Y-67434956D01*
X114422597Y-67434956D01*
X114435410Y-67425646D01*
X114450474Y-67420752D01*
X114459783Y-67407938D01*
X114472597Y-67398629D01*
X114477491Y-67383565D01*
X114486801Y-67370752D01*
X114486801Y-67354912D01*
X114491695Y-67339850D01*
X114491695Y-67149374D01*
X114486686Y-67133958D01*
X114486563Y-67117752D01*
X114448468Y-67003465D01*
X114434777Y-66984918D01*
X114424310Y-66964377D01*
X114348119Y-66888187D01*
X114333678Y-66880829D01*
X114322130Y-66869455D01*
X114245940Y-66831360D01*
X114234919Y-66829700D01*
X114225473Y-66823789D01*
X114073092Y-66785693D01*
X114060675Y-66786553D01*
X114048838Y-66782707D01*
X113934552Y-66782707D01*
X113922714Y-66786553D01*
X113910298Y-66785693D01*
X113757917Y-66823789D01*
X113748470Y-66829700D01*
X113737450Y-66831360D01*
X113661259Y-66869455D01*
X113649711Y-66880828D01*
X113635269Y-66888187D01*
X113559079Y-66964377D01*
X113548612Y-66984918D01*
X113534922Y-67003465D01*
X113496827Y-67117751D01*
X113496703Y-67133958D01*
X113491695Y-67149374D01*
X113491695Y-67339850D01*
X113377409Y-67339850D01*
X113377409Y-66668421D01*
X114605981Y-66668421D01*
X114605981Y-69230327D01*
G37*
G36*
X109066314Y-67115154D02*
G01*
X109118174Y-67141084D01*
X109166197Y-67189106D01*
X109191695Y-67265600D01*
X109191695Y-67339850D01*
X108591695Y-67339850D01*
X108591695Y-67265600D01*
X108617192Y-67189107D01*
X108665216Y-67141083D01*
X108717074Y-67115154D01*
X108846862Y-67082707D01*
X108936528Y-67082707D01*
X109066314Y-67115154D01*
G37*
G36*
X109505981Y-69330327D02*
G01*
X108277409Y-69330327D01*
X108277409Y-68849374D01*
X108391695Y-68849374D01*
X108396703Y-68864789D01*
X108396827Y-68880997D01*
X108434922Y-68995283D01*
X108448612Y-69013829D01*
X108459079Y-69034371D01*
X108535269Y-69110561D01*
X108549711Y-69117919D01*
X108561259Y-69129293D01*
X108637450Y-69167388D01*
X108648470Y-69169047D01*
X108657917Y-69174959D01*
X108810298Y-69213055D01*
X108822714Y-69212194D01*
X108834552Y-69216041D01*
X108948838Y-69216041D01*
X108960675Y-69212194D01*
X108973092Y-69213055D01*
X109125473Y-69174959D01*
X109134919Y-69169047D01*
X109145940Y-69167388D01*
X109222130Y-69129293D01*
X109233678Y-69117918D01*
X109248119Y-69110561D01*
X109324310Y-69034371D01*
X109334777Y-69013829D01*
X109348468Y-68995283D01*
X109386563Y-68880996D01*
X109386686Y-68864789D01*
X109391695Y-68849374D01*
X109391695Y-68773183D01*
X109386686Y-68757767D01*
X109386563Y-68741560D01*
X109348468Y-68627275D01*
X109334777Y-68608728D01*
X109324311Y-68588187D01*
X109286215Y-68550091D01*
X109279025Y-68546428D01*
X109274283Y-68539900D01*
X109252011Y-68532663D01*
X109231147Y-68522033D01*
X109223177Y-68523295D01*
X109215504Y-68520802D01*
X108948838Y-68520802D01*
X108933775Y-68525696D01*
X108917936Y-68525696D01*
X108905122Y-68535005D01*
X108890059Y-68539900D01*
X108880749Y-68552713D01*
X108867936Y-68562023D01*
X108863041Y-68577086D01*
X108853732Y-68589900D01*
X108853732Y-68605739D01*
X108848838Y-68620802D01*
X108848838Y-68773183D01*
X108867936Y-68831962D01*
X108917936Y-68868289D01*
X108979740Y-68868289D01*
X109029740Y-68831962D01*
X109048838Y-68773183D01*
X109048838Y-68720802D01*
X109168826Y-68720802D01*
X109191695Y-68789410D01*
X109191695Y-68833147D01*
X109166197Y-68909641D01*
X109118174Y-68957663D01*
X109066314Y-68983593D01*
X108936528Y-69016041D01*
X108846862Y-69016041D01*
X108717074Y-68983593D01*
X108665216Y-68957664D01*
X108617192Y-68909640D01*
X108591695Y-68833147D01*
X108591695Y-68758695D01*
X108619233Y-68703619D01*
X108628438Y-68642505D01*
X108599962Y-68587652D01*
X108544683Y-68560013D01*
X108483716Y-68570144D01*
X108440347Y-68614177D01*
X108402252Y-68690367D01*
X108398818Y-68713164D01*
X108391695Y-68735088D01*
X108391695Y-68849374D01*
X108277409Y-68849374D01*
X108277409Y-68298300D01*
X108393788Y-68298300D01*
X108396589Y-68303201D01*
X108396589Y-68308847D01*
X108411700Y-68329646D01*
X108424452Y-68351961D01*
X108429597Y-68354279D01*
X108432916Y-68358847D01*
X108457362Y-68366790D01*
X108480799Y-68377350D01*
X108486326Y-68376200D01*
X108491695Y-68377945D01*
X109291695Y-68377945D01*
X109350474Y-68358847D01*
X109386801Y-68308847D01*
X109386801Y-68247043D01*
X109350474Y-68197043D01*
X109291695Y-68177945D01*
X108868251Y-68177945D01*
X109341309Y-67907626D01*
X109345104Y-67903448D01*
X109350474Y-67901704D01*
X109365585Y-67880905D01*
X109382868Y-67861882D01*
X109383483Y-67856270D01*
X109386801Y-67851704D01*
X109386801Y-67826000D01*
X109389602Y-67800447D01*
X109386801Y-67795545D01*
X109386801Y-67789900D01*
X109371689Y-67769100D01*
X109358938Y-67746786D01*
X109353792Y-67744467D01*
X109350474Y-67739900D01*
X109326027Y-67731956D01*
X109302591Y-67721397D01*
X109297063Y-67722546D01*
X109291695Y-67720802D01*
X108491695Y-67720802D01*
X108432916Y-67739900D01*
X108396589Y-67789900D01*
X108396589Y-67851704D01*
X108432916Y-67901704D01*
X108491695Y-67920802D01*
X108915139Y-67920802D01*
X108442081Y-68191121D01*
X108438285Y-68195298D01*
X108432916Y-68197043D01*
X108417804Y-68217841D01*
X108400522Y-68236865D01*
X108399906Y-68242476D01*
X108396589Y-68247043D01*
X108396589Y-68272746D01*
X108393788Y-68298300D01*
X108277409Y-68298300D01*
X108277409Y-67439850D01*
X108391695Y-67439850D01*
X108396589Y-67454912D01*
X108396589Y-67470752D01*
X108405898Y-67483565D01*
X108410793Y-67498629D01*
X108423606Y-67507938D01*
X108432916Y-67520752D01*
X108447979Y-67525646D01*
X108460793Y-67534956D01*
X108476632Y-67534956D01*
X108491695Y-67539850D01*
X109291695Y-67539850D01*
X109306758Y-67534956D01*
X109322597Y-67534956D01*
X109335410Y-67525646D01*
X109350474Y-67520752D01*
X109359783Y-67507938D01*
X109372597Y-67498629D01*
X109377491Y-67483565D01*
X109386801Y-67470752D01*
X109386801Y-67454912D01*
X109391695Y-67439850D01*
X109391695Y-67249374D01*
X109386686Y-67233958D01*
X109386563Y-67217752D01*
X109348468Y-67103465D01*
X109334777Y-67084918D01*
X109324310Y-67064377D01*
X109248119Y-66988187D01*
X109233678Y-66980829D01*
X109222130Y-66969455D01*
X109145940Y-66931360D01*
X109134919Y-66929700D01*
X109125473Y-66923789D01*
X108973092Y-66885693D01*
X108960675Y-66886553D01*
X108948838Y-66882707D01*
X108834552Y-66882707D01*
X108822714Y-66886553D01*
X108810298Y-66885693D01*
X108657917Y-66923789D01*
X108648470Y-66929700D01*
X108637450Y-66931360D01*
X108561259Y-66969455D01*
X108549711Y-66980828D01*
X108535269Y-66988187D01*
X108459079Y-67064377D01*
X108448612Y-67084918D01*
X108434922Y-67103465D01*
X108396827Y-67217751D01*
X108396703Y-67233958D01*
X108391695Y-67249374D01*
X108391695Y-67439850D01*
X108277409Y-67439850D01*
X108277409Y-66768421D01*
X109505981Y-66768421D01*
X109505981Y-69330327D01*
G37*
G36*
X112105981Y-69292231D02*
G01*
X110879502Y-69292231D01*
X110879502Y-69108847D01*
X110996589Y-69108847D01*
X111032916Y-69158847D01*
X111091695Y-69177945D01*
X111891695Y-69177945D01*
X111950474Y-69158847D01*
X111986801Y-69108847D01*
X111986801Y-69047043D01*
X111950474Y-68997043D01*
X111891695Y-68977945D01*
X111091695Y-68977945D01*
X111032916Y-68997043D01*
X110996589Y-69047043D01*
X110996589Y-69108847D01*
X110879502Y-69108847D01*
X110879502Y-68717348D01*
X110993788Y-68717348D01*
X110996589Y-68722249D01*
X110996589Y-68727895D01*
X111011700Y-68748694D01*
X111024452Y-68771009D01*
X111029597Y-68773327D01*
X111032916Y-68777895D01*
X111057362Y-68785838D01*
X111080799Y-68796398D01*
X111086326Y-68795248D01*
X111091695Y-68796993D01*
X111891695Y-68796993D01*
X111950474Y-68777895D01*
X111986801Y-68727895D01*
X111986801Y-68666091D01*
X111950474Y-68616091D01*
X111891695Y-68596993D01*
X111468251Y-68596993D01*
X111941309Y-68326674D01*
X111945104Y-68322496D01*
X111950474Y-68320752D01*
X111965585Y-68299953D01*
X111982868Y-68280930D01*
X111983483Y-68275318D01*
X111986801Y-68270752D01*
X111986801Y-68245048D01*
X111989602Y-68219495D01*
X111986801Y-68214593D01*
X111986801Y-68208948D01*
X111971689Y-68188148D01*
X111958938Y-68165834D01*
X111953792Y-68163515D01*
X111950474Y-68158948D01*
X111926027Y-68151004D01*
X111902591Y-68140445D01*
X111897063Y-68141594D01*
X111891695Y-68139850D01*
X111091695Y-68139850D01*
X111032916Y-68158948D01*
X110996589Y-68208948D01*
X110996589Y-68270752D01*
X111032916Y-68320752D01*
X111091695Y-68339850D01*
X111515139Y-68339850D01*
X111042081Y-68610169D01*
X111038285Y-68614346D01*
X111032916Y-68616091D01*
X111017804Y-68636889D01*
X111000522Y-68655913D01*
X110999906Y-68661524D01*
X110996589Y-68666091D01*
X110996589Y-68691794D01*
X110993788Y-68717348D01*
X110879502Y-68717348D01*
X110879502Y-67641378D01*
X110995421Y-67641378D01*
X110996589Y-67670344D01*
X110996589Y-67699324D01*
X110997826Y-67701026D01*
X110997911Y-67703131D01*
X111015880Y-67725875D01*
X111032916Y-67749324D01*
X111034918Y-67749974D01*
X111036224Y-67751627D01*
X111142274Y-67822327D01*
X111199984Y-67880038D01*
X111230823Y-67941715D01*
X111274191Y-67985748D01*
X111335159Y-67995879D01*
X111390438Y-67968240D01*
X111418914Y-67913388D01*
X111409709Y-67852273D01*
X111371614Y-67776082D01*
X111364070Y-67768422D01*
X111791695Y-67768422D01*
X111791695Y-67896994D01*
X111810793Y-67955773D01*
X111860793Y-67992100D01*
X111922597Y-67992100D01*
X111972597Y-67955773D01*
X111991695Y-67896994D01*
X111991695Y-67439851D01*
X111972597Y-67381072D01*
X111922597Y-67344745D01*
X111860793Y-67344745D01*
X111810793Y-67381072D01*
X111791695Y-67439851D01*
X111791695Y-67568422D01*
X111091695Y-67568422D01*
X111089692Y-67569072D01*
X111087665Y-67568503D01*
X111060477Y-67578565D01*
X111032916Y-67587520D01*
X111031678Y-67589223D01*
X111029704Y-67589954D01*
X111013628Y-67614067D01*
X110996589Y-67637520D01*
X110996589Y-67639626D01*
X110995421Y-67641378D01*
X110879502Y-67641378D01*
X110879502Y-67230459D01*
X112105981Y-67230459D01*
X112105981Y-69292231D01*
G37*
G36*
X106504409Y-67572297D02*
G01*
X106556268Y-67598226D01*
X106571414Y-67613372D01*
X106591695Y-67653933D01*
X106591695Y-67682910D01*
X106571414Y-67723471D01*
X106556268Y-67738617D01*
X106504409Y-67764546D01*
X106374623Y-67796994D01*
X106208767Y-67796994D01*
X106078979Y-67764546D01*
X106027120Y-67738617D01*
X106011975Y-67723471D01*
X105991695Y-67682910D01*
X105991695Y-67653933D01*
X106011975Y-67613372D01*
X106027120Y-67598226D01*
X106078980Y-67572297D01*
X106208767Y-67539851D01*
X106374624Y-67539851D01*
X106504409Y-67572297D01*
G37*
G36*
X106905981Y-69292231D02*
G01*
X105677409Y-69292231D01*
X105677409Y-69108847D01*
X105796589Y-69108847D01*
X105832916Y-69158847D01*
X105891695Y-69177945D01*
X106691695Y-69177945D01*
X106750474Y-69158847D01*
X106786801Y-69108847D01*
X106786801Y-69047043D01*
X106750474Y-68997043D01*
X106691695Y-68977945D01*
X105891695Y-68977945D01*
X105832916Y-68997043D01*
X105796589Y-69047043D01*
X105796589Y-69108847D01*
X105677409Y-69108847D01*
X105677409Y-68717348D01*
X105793788Y-68717348D01*
X105796589Y-68722249D01*
X105796589Y-68727895D01*
X105811700Y-68748694D01*
X105824452Y-68771009D01*
X105829597Y-68773327D01*
X105832916Y-68777895D01*
X105857362Y-68785838D01*
X105880799Y-68796398D01*
X105886326Y-68795248D01*
X105891695Y-68796993D01*
X106691695Y-68796993D01*
X106750474Y-68777895D01*
X106786801Y-68727895D01*
X106786801Y-68666091D01*
X106750474Y-68616091D01*
X106691695Y-68596993D01*
X106268251Y-68596993D01*
X106741309Y-68326674D01*
X106745104Y-68322496D01*
X106750474Y-68320752D01*
X106765585Y-68299953D01*
X106782868Y-68280930D01*
X106783483Y-68275318D01*
X106786801Y-68270752D01*
X106786801Y-68245048D01*
X106789602Y-68219495D01*
X106786801Y-68214593D01*
X106786801Y-68208948D01*
X106771689Y-68188148D01*
X106758938Y-68165834D01*
X106753792Y-68163515D01*
X106750474Y-68158948D01*
X106726027Y-68151004D01*
X106702591Y-68140445D01*
X106697063Y-68141594D01*
X106691695Y-68139850D01*
X105891695Y-68139850D01*
X105832916Y-68158948D01*
X105796589Y-68208948D01*
X105796589Y-68270752D01*
X105832916Y-68320752D01*
X105891695Y-68339850D01*
X106315139Y-68339850D01*
X105842081Y-68610169D01*
X105838285Y-68614346D01*
X105832916Y-68616091D01*
X105817804Y-68636889D01*
X105800522Y-68655913D01*
X105799906Y-68661524D01*
X105796589Y-68666091D01*
X105796589Y-68691794D01*
X105793788Y-68717348D01*
X105677409Y-68717348D01*
X105677409Y-67706517D01*
X105791695Y-67706517D01*
X105798818Y-67728440D01*
X105802252Y-67751238D01*
X105840347Y-67827429D01*
X105851720Y-67838976D01*
X105859079Y-67853419D01*
X105897174Y-67891513D01*
X105911614Y-67898871D01*
X105923164Y-67910246D01*
X105999355Y-67948341D01*
X106010375Y-67950000D01*
X106019822Y-67955912D01*
X106172203Y-67994008D01*
X106184619Y-67993147D01*
X106196457Y-67996994D01*
X106386933Y-67996994D01*
X106398770Y-67993147D01*
X106411187Y-67994008D01*
X106563568Y-67955912D01*
X106573014Y-67950000D01*
X106584035Y-67948341D01*
X106660225Y-67910246D01*
X106671771Y-67898873D01*
X106686214Y-67891515D01*
X106724310Y-67853420D01*
X106731669Y-67838977D01*
X106743043Y-67827429D01*
X106781138Y-67751238D01*
X106784571Y-67728440D01*
X106791695Y-67706517D01*
X106791695Y-67630327D01*
X106784571Y-67608403D01*
X106781138Y-67585606D01*
X106743043Y-67509415D01*
X106731669Y-67497866D01*
X106724310Y-67483424D01*
X106686214Y-67445329D01*
X106671771Y-67437970D01*
X106660225Y-67426598D01*
X106584035Y-67388503D01*
X106573014Y-67386843D01*
X106563568Y-67380932D01*
X106411186Y-67342837D01*
X106398770Y-67343697D01*
X106386933Y-67339851D01*
X106196457Y-67339851D01*
X106184619Y-67343697D01*
X106172204Y-67342837D01*
X106019823Y-67380932D01*
X106010376Y-67386843D01*
X105999355Y-67388503D01*
X105923164Y-67426598D01*
X105911614Y-67437972D01*
X105897174Y-67445331D01*
X105859079Y-67483425D01*
X105851720Y-67497867D01*
X105840347Y-67509415D01*
X105802252Y-67585606D01*
X105798818Y-67608403D01*
X105791695Y-67630327D01*
X105791695Y-67706517D01*
X105677409Y-67706517D01*
X105677409Y-67225565D01*
X106905981Y-67225565D01*
X106905981Y-69292231D01*
G37*
G36*
X102516311Y-71013954D02*
G01*
X102527107Y-71015866D01*
X102536220Y-71019295D01*
X102543780Y-71024125D01*
X102549915Y-71030241D01*
X102554754Y-71037526D01*
X102558425Y-71045865D01*
X102561057Y-71055142D01*
X102562777Y-71065240D01*
X102563715Y-71076044D01*
X102564000Y-71087438D01*
X102564000Y-71217376D01*
X102521794Y-71217376D01*
X102529042Y-71228337D01*
X102535702Y-71238983D01*
X102541790Y-71249371D01*
X102547324Y-71259556D01*
X102552319Y-71269595D01*
X102556794Y-71279543D01*
X102560763Y-71289457D01*
X102564244Y-71299392D01*
X102567253Y-71309406D01*
X102569807Y-71319553D01*
X102571923Y-71329890D01*
X102573617Y-71340474D01*
X102574905Y-71351360D01*
X102575805Y-71362604D01*
X102576333Y-71374263D01*
X102576505Y-71386392D01*
X102576164Y-71402365D01*
X102575152Y-71417931D01*
X102573487Y-71433084D01*
X102571187Y-71447816D01*
X102568268Y-71462121D01*
X102564749Y-71475993D01*
X102560647Y-71489425D01*
X102555979Y-71502410D01*
X102550763Y-71514942D01*
X102545017Y-71527015D01*
X102538757Y-71538621D01*
X102532002Y-71549755D01*
X102524768Y-71560409D01*
X102517074Y-71570577D01*
X102508937Y-71580254D01*
X102500374Y-71589431D01*
X102491403Y-71598102D01*
X102482042Y-71606262D01*
X102472307Y-71613903D01*
X102462216Y-71621019D01*
X102451788Y-71627604D01*
X102441038Y-71633650D01*
X102429986Y-71639151D01*
X102418648Y-71644101D01*
X102407041Y-71648494D01*
X102395184Y-71652322D01*
X102383094Y-71655579D01*
X102370788Y-71658258D01*
X102358284Y-71660353D01*
X102345599Y-71661858D01*
X102332751Y-71662766D01*
X102319757Y-71663070D01*
X102306748Y-71662766D01*
X102293891Y-71661858D01*
X102281204Y-71660353D01*
X102268703Y-71658256D01*
X102256406Y-71655575D01*
X102244329Y-71652315D01*
X102232490Y-71648484D01*
X102220905Y-71644086D01*
X102209593Y-71639130D01*
X102198570Y-71633620D01*
X102187853Y-71627564D01*
X102177458Y-71620968D01*
X102167405Y-71613838D01*
X102157708Y-71606180D01*
X102148387Y-71598002D01*
X102139457Y-71589309D01*
X102130935Y-71580107D01*
X102122840Y-71570404D01*
X102115187Y-71560204D01*
X102107994Y-71549516D01*
X102101279Y-71538345D01*
X102095058Y-71526697D01*
X102089348Y-71514579D01*
X102084166Y-71501998D01*
X102079530Y-71488959D01*
X102075457Y-71475469D01*
X102071963Y-71461534D01*
X102069067Y-71447162D01*
X102066784Y-71432357D01*
X102065132Y-71417126D01*
X102064128Y-71401477D01*
X102063790Y-71385415D01*
X102175946Y-71385415D01*
X102176139Y-71395053D01*
X102176711Y-71404438D01*
X102177652Y-71413567D01*
X102178952Y-71422435D01*
X102180601Y-71431041D01*
X102182587Y-71439379D01*
X102184903Y-71447447D01*
X102187536Y-71455241D01*
X102190477Y-71462757D01*
X102193716Y-71469993D01*
X102201047Y-71483608D01*
X102209447Y-71496059D01*
X102218836Y-71507316D01*
X102229131Y-71517354D01*
X102240251Y-71526142D01*
X102252116Y-71533655D01*
X102264643Y-71539865D01*
X102277752Y-71544742D01*
X102291362Y-71548261D01*
X102305390Y-71550392D01*
X102319757Y-71551109D01*
X102334842Y-71550343D01*
X102349428Y-71548074D01*
X102363447Y-71544350D01*
X102376836Y-71539214D01*
X102389529Y-71532715D01*
X102401460Y-71524896D01*
X102412565Y-71515804D01*
X102422778Y-71505484D01*
X102432034Y-71493984D01*
X102440268Y-71481347D01*
X102447413Y-71467621D01*
X102450558Y-71460363D01*
X102453406Y-71452850D01*
X102455950Y-71445088D01*
X102458181Y-71437081D01*
X102460091Y-71428837D01*
X102461672Y-71420360D01*
X102462916Y-71411656D01*
X102463815Y-71402732D01*
X102464360Y-71393592D01*
X102464544Y-71384242D01*
X102464363Y-71374893D01*
X102463827Y-71365753D01*
X102462943Y-71356829D01*
X102461719Y-71348125D01*
X102460165Y-71339648D01*
X102458288Y-71331403D01*
X102456096Y-71323397D01*
X102453599Y-71315635D01*
X102450803Y-71308122D01*
X102447718Y-71300864D01*
X102440711Y-71287137D01*
X102432644Y-71274501D01*
X102423584Y-71263000D01*
X102413597Y-71252681D01*
X102402748Y-71243589D01*
X102391105Y-71235770D01*
X102378732Y-71229270D01*
X102365697Y-71224135D01*
X102352064Y-71220410D01*
X102337901Y-71218142D01*
X102323274Y-71217376D01*
X102321906Y-71217376D01*
X102313906Y-71217568D01*
X102306067Y-71218142D01*
X102290894Y-71220413D01*
X102276438Y-71224143D01*
X102262747Y-71229289D01*
X102249870Y-71235806D01*
X102237856Y-71243651D01*
X102226754Y-71252779D01*
X102216613Y-71263147D01*
X102207481Y-71274710D01*
X102199409Y-71287424D01*
X102192444Y-71301245D01*
X102189392Y-71308557D01*
X102186635Y-71316129D01*
X102184180Y-71323956D01*
X102182032Y-71332032D01*
X102180198Y-71340352D01*
X102178684Y-71348910D01*
X102177495Y-71357701D01*
X102176639Y-71366719D01*
X102176121Y-71375959D01*
X102175946Y-71385415D01*
X102063790Y-71385415D01*
X102064001Y-71372979D01*
X102064637Y-71360868D01*
X102065700Y-71349067D01*
X102067194Y-71337561D01*
X102069122Y-71326338D01*
X102071487Y-71315382D01*
X102074292Y-71304679D01*
X102077541Y-71294214D01*
X102081236Y-71283974D01*
X102085381Y-71273945D01*
X102089978Y-71264110D01*
X102095032Y-71254458D01*
X102100544Y-71244972D01*
X102106519Y-71235640D01*
X102112960Y-71226446D01*
X102119868Y-71217376D01*
X101987196Y-71217376D01*
X101987196Y-71235352D01*
X101986907Y-71246972D01*
X101985955Y-71257913D01*
X101984215Y-71268074D01*
X101981559Y-71277354D01*
X101977862Y-71285652D01*
X101972995Y-71292865D01*
X101966834Y-71298893D01*
X101959251Y-71303633D01*
X101950120Y-71306985D01*
X101939314Y-71308847D01*
X101931117Y-71309211D01*
X101919425Y-71308426D01*
X101909435Y-71306129D01*
X101901027Y-71302402D01*
X101894081Y-71297330D01*
X101888476Y-71290998D01*
X101884091Y-71283488D01*
X101880806Y-71274886D01*
X101878498Y-71265275D01*
X101877049Y-71254739D01*
X101876337Y-71243362D01*
X101876212Y-71235352D01*
X101876212Y-71105415D01*
X102452039Y-71105415D01*
X102452039Y-71087438D01*
X102452072Y-71083376D01*
X102452356Y-71075503D01*
X102453379Y-71064370D01*
X102455219Y-71054120D01*
X102457984Y-71044835D01*
X102461783Y-71036596D01*
X102466726Y-71029484D01*
X102472921Y-71023580D01*
X102480478Y-71018965D01*
X102489505Y-71015721D01*
X102500113Y-71013928D01*
X102508117Y-71013579D01*
X102516311Y-71013954D01*
G37*
G36*
X102375053Y-70869574D02*
G01*
X102380674Y-70867075D01*
X102391347Y-70861479D01*
X102401269Y-70855079D01*
X102410445Y-70847866D01*
X102418881Y-70839833D01*
X102426582Y-70830972D01*
X102433555Y-70821275D01*
X102439804Y-70810733D01*
X102445337Y-70799338D01*
X102450157Y-70787084D01*
X102454272Y-70773961D01*
X102457687Y-70759961D01*
X102460408Y-70745077D01*
X102461509Y-70737301D01*
X102462439Y-70729301D01*
X102463199Y-70721076D01*
X102463788Y-70712624D01*
X102464209Y-70703946D01*
X102464460Y-70695039D01*
X102464544Y-70685903D01*
X102464447Y-70676234D01*
X102464166Y-70666755D01*
X102463713Y-70657464D01*
X102463100Y-70648361D01*
X102462339Y-70639444D01*
X102461442Y-70630714D01*
X102460423Y-70622169D01*
X102459293Y-70613809D01*
X102458064Y-70605632D01*
X102456749Y-70597639D01*
X102453910Y-70582197D01*
X102450874Y-70567478D01*
X102447740Y-70553475D01*
X102444606Y-70540182D01*
X102441570Y-70527592D01*
X102438731Y-70515699D01*
X102436187Y-70504498D01*
X102434037Y-70493981D01*
X102432380Y-70484143D01*
X102431313Y-70474976D01*
X102430936Y-70466475D01*
X102431516Y-70458151D01*
X102433209Y-70450270D01*
X102437072Y-70440593D01*
X102442612Y-70432043D01*
X102449657Y-70424815D01*
X102458036Y-70419104D01*
X102467577Y-70415105D01*
X102475393Y-70413347D01*
X102483692Y-70412742D01*
X102497840Y-70415394D01*
X102510513Y-70422936D01*
X102516321Y-70428349D01*
X102521788Y-70434753D01*
X102526926Y-70442070D01*
X102531744Y-70450224D01*
X102536251Y-70459138D01*
X102540458Y-70468733D01*
X102544373Y-70478933D01*
X102548007Y-70489661D01*
X102551368Y-70500840D01*
X102554468Y-70512391D01*
X102557316Y-70524238D01*
X102559921Y-70536304D01*
X102562292Y-70548512D01*
X102564441Y-70560783D01*
X102566376Y-70573042D01*
X102568107Y-70585210D01*
X102569644Y-70597210D01*
X102570996Y-70608966D01*
X102572174Y-70620400D01*
X102573186Y-70631434D01*
X102574043Y-70641992D01*
X102574754Y-70651996D01*
X102575330Y-70661369D01*
X102575778Y-70670033D01*
X102576336Y-70684928D01*
X102576505Y-70696064D01*
X102576192Y-70712178D01*
X102575263Y-70727977D01*
X102573730Y-70743450D01*
X102571607Y-70758583D01*
X102568907Y-70773363D01*
X102565643Y-70787777D01*
X102561828Y-70801812D01*
X102557475Y-70815456D01*
X102552598Y-70828694D01*
X102547209Y-70841516D01*
X102541321Y-70853906D01*
X102534949Y-70865853D01*
X102528104Y-70877343D01*
X102520800Y-70888364D01*
X102513051Y-70898903D01*
X102504868Y-70908946D01*
X102496266Y-70918481D01*
X102487258Y-70927494D01*
X102477856Y-70935973D01*
X102468074Y-70943905D01*
X102457925Y-70951277D01*
X102447422Y-70958076D01*
X102436578Y-70964289D01*
X102425407Y-70969903D01*
X102413921Y-70974905D01*
X102402133Y-70979282D01*
X102390058Y-70983021D01*
X102377707Y-70986109D01*
X102365094Y-70988534D01*
X102352232Y-70990281D01*
X102339134Y-70991340D01*
X102325814Y-70991695D01*
X102312066Y-70991330D01*
X102298528Y-70990247D01*
X102285216Y-70988460D01*
X102272144Y-70985986D01*
X102259327Y-70982841D01*
X102246780Y-70979041D01*
X102234517Y-70974602D01*
X102222554Y-70969539D01*
X102210905Y-70963870D01*
X102199586Y-70957610D01*
X102188610Y-70950774D01*
X102177993Y-70943380D01*
X102167749Y-70935442D01*
X102157894Y-70926977D01*
X102148442Y-70918002D01*
X102139408Y-70908531D01*
X102130806Y-70898580D01*
X102122653Y-70888167D01*
X102114961Y-70877307D01*
X102107747Y-70866015D01*
X102101025Y-70854308D01*
X102094809Y-70842202D01*
X102089116Y-70829713D01*
X102083959Y-70816857D01*
X102079353Y-70803650D01*
X102075313Y-70790107D01*
X102071854Y-70776245D01*
X102068990Y-70762080D01*
X102066737Y-70747628D01*
X102065110Y-70732904D01*
X102064123Y-70717925D01*
X102063790Y-70702707D01*
X102063811Y-70701730D01*
X102175946Y-70701730D01*
X102176413Y-70716853D01*
X102177794Y-70731560D01*
X102180058Y-70745802D01*
X102183176Y-70759530D01*
X102187119Y-70772695D01*
X102191856Y-70785247D01*
X102197358Y-70797138D01*
X102203595Y-70808318D01*
X102210537Y-70818737D01*
X102218155Y-70828347D01*
X102226418Y-70837098D01*
X102235297Y-70844942D01*
X102244763Y-70851828D01*
X102254785Y-70857708D01*
X102265334Y-70862533D01*
X102276379Y-70866252D01*
X102276379Y-70537013D01*
X102265140Y-70540926D01*
X102254448Y-70545894D01*
X102244328Y-70551873D01*
X102234803Y-70558821D01*
X102225899Y-70566692D01*
X102217639Y-70575443D01*
X102210050Y-70585031D01*
X102203155Y-70595411D01*
X102196979Y-70606540D01*
X102191547Y-70618374D01*
X102186883Y-70630869D01*
X102183011Y-70643982D01*
X102179957Y-70657668D01*
X102177745Y-70671884D01*
X102176400Y-70686586D01*
X102175946Y-70701730D01*
X102063811Y-70701730D01*
X102064119Y-70687194D01*
X102065098Y-70671952D01*
X102066714Y-70656995D01*
X102068953Y-70642339D01*
X102071802Y-70627997D01*
X102075248Y-70613984D01*
X102079278Y-70600314D01*
X102083879Y-70587003D01*
X102089038Y-70574065D01*
X102094740Y-70561513D01*
X102100974Y-70549364D01*
X102107726Y-70537630D01*
X102114983Y-70526328D01*
X102122732Y-70515470D01*
X102130959Y-70505073D01*
X102139652Y-70495150D01*
X102148797Y-70485715D01*
X102158381Y-70476784D01*
X102168391Y-70468371D01*
X102178813Y-70460491D01*
X102189635Y-70453157D01*
X102200844Y-70446385D01*
X102212426Y-70440189D01*
X102224368Y-70434583D01*
X102236656Y-70429583D01*
X102249279Y-70425202D01*
X102262222Y-70421455D01*
X102275472Y-70418357D01*
X102289017Y-70415922D01*
X102302843Y-70414165D01*
X102316937Y-70413100D01*
X102331285Y-70412742D01*
X102375053Y-70412742D01*
X102375053Y-70869574D01*
G37*
G36*
X102132374Y-70061618D02*
G01*
X102124177Y-70061982D01*
X102113371Y-70063844D01*
X102104240Y-70067196D01*
X102096657Y-70071937D01*
X102090496Y-70077964D01*
X102085629Y-70085178D01*
X102081932Y-70093475D01*
X102079276Y-70102755D01*
X102077536Y-70112916D01*
X102076584Y-70123858D01*
X102076295Y-70135478D01*
X102076295Y-70283391D01*
X102076584Y-70294785D01*
X102077536Y-70305589D01*
X102079276Y-70315688D01*
X102081932Y-70324964D01*
X102085629Y-70333303D01*
X102090496Y-70340588D01*
X102096657Y-70346704D01*
X102104240Y-70351535D01*
X102113371Y-70354964D01*
X102124177Y-70356876D01*
X102132374Y-70357250D01*
X102140570Y-70356876D01*
X102151376Y-70354964D01*
X102160507Y-70351535D01*
X102168090Y-70346704D01*
X102174252Y-70340588D01*
X102179118Y-70333303D01*
X102182815Y-70324964D01*
X102185471Y-70315688D01*
X102187211Y-70305589D01*
X102188163Y-70294785D01*
X102188452Y-70283391D01*
X102188452Y-70267759D01*
X102564000Y-70080767D01*
X102564000Y-69964117D01*
X102188452Y-69777124D01*
X102188452Y-69759148D01*
X102188163Y-69747754D01*
X102187211Y-69736950D01*
X102185471Y-69726852D01*
X102182815Y-69717575D01*
X102179118Y-69709236D01*
X102174252Y-69701951D01*
X102168090Y-69695835D01*
X102160507Y-69691004D01*
X102151376Y-69687575D01*
X102140570Y-69685663D01*
X102132374Y-69685289D01*
X102124177Y-69685653D01*
X102113371Y-69687515D01*
X102104240Y-69690867D01*
X102096657Y-69695608D01*
X102090496Y-69701635D01*
X102085629Y-69708848D01*
X102081932Y-69717146D01*
X102079276Y-69726426D01*
X102077536Y-69736587D01*
X102076584Y-69747528D01*
X102076295Y-69759148D01*
X102076295Y-69910383D01*
X102076584Y-69921782D01*
X102077536Y-69932600D01*
X102079276Y-69942718D01*
X102081932Y-69952018D01*
X102085629Y-69960384D01*
X102090496Y-69967697D01*
X102096657Y-69973839D01*
X102104240Y-69978692D01*
X102113371Y-69982139D01*
X102124177Y-69984061D01*
X102132374Y-69984438D01*
X102140570Y-69984061D01*
X102151376Y-69982139D01*
X102160507Y-69978692D01*
X102168090Y-69973839D01*
X102174252Y-69967697D01*
X102179118Y-69960384D01*
X102182815Y-69952018D01*
X102185471Y-69942718D01*
X102187211Y-69932600D01*
X102188163Y-69921782D01*
X102188452Y-69910383D01*
X102188452Y-69899246D01*
X102428005Y-70019023D01*
X102188452Y-70141144D01*
X102188452Y-70135478D01*
X102188163Y-70124083D01*
X102187211Y-70113279D01*
X102185471Y-70103181D01*
X102182815Y-70093904D01*
X102179118Y-70085565D01*
X102174252Y-70078280D01*
X102168090Y-70072164D01*
X102160507Y-70067334D01*
X102151376Y-70063905D01*
X102140570Y-70061993D01*
X102132374Y-70061618D01*
G37*
G36*
X102508117Y-69083279D02*
G01*
X102499727Y-69083680D01*
X102488723Y-69085711D01*
X102479488Y-69089327D01*
X102471879Y-69094378D01*
X102465752Y-69100715D01*
X102460962Y-69108186D01*
X102457366Y-69116643D01*
X102454819Y-69125936D01*
X102453178Y-69135916D01*
X102452300Y-69146431D01*
X102452039Y-69157334D01*
X102452039Y-69293914D01*
X102076295Y-69293914D01*
X102076295Y-69493412D01*
X102076533Y-69504835D01*
X102077352Y-69515718D01*
X102078909Y-69525935D01*
X102081365Y-69535356D01*
X102084877Y-69543855D01*
X102089603Y-69551305D01*
X102095702Y-69557577D01*
X102103333Y-69562545D01*
X102112654Y-69566080D01*
X102123823Y-69568056D01*
X102132374Y-69568443D01*
X102140377Y-69568056D01*
X102150985Y-69566080D01*
X102160013Y-69562545D01*
X102167570Y-69557577D01*
X102173765Y-69551305D01*
X102178707Y-69543855D01*
X102182506Y-69535356D01*
X102185271Y-69525935D01*
X102187111Y-69515718D01*
X102188135Y-69504835D01*
X102188452Y-69493412D01*
X102188452Y-69405875D01*
X102452039Y-69405875D01*
X102452039Y-69542651D01*
X102452164Y-69550661D01*
X102452880Y-69562038D01*
X102454344Y-69572574D01*
X102456680Y-69582185D01*
X102460016Y-69590788D01*
X102464479Y-69598297D01*
X102470195Y-69604630D01*
X102477290Y-69609701D01*
X102485891Y-69613428D01*
X102496124Y-69615726D01*
X102503916Y-69616422D01*
X102508117Y-69616510D01*
X102517250Y-69615909D01*
X102526740Y-69613790D01*
X102536102Y-69609679D01*
X102542748Y-69605003D01*
X102548843Y-69598740D01*
X102554184Y-69590690D01*
X102558565Y-69580652D01*
X102560852Y-69572758D01*
X102562560Y-69563833D01*
X102563630Y-69553817D01*
X102564000Y-69542651D01*
X102564000Y-69157334D01*
X102563840Y-69149289D01*
X102562965Y-69137869D01*
X102561258Y-69127298D01*
X102558639Y-69117660D01*
X102555028Y-69109037D01*
X102550348Y-69101513D01*
X102544517Y-69095170D01*
X102537458Y-69090093D01*
X102529091Y-69086363D01*
X102519337Y-69084064D01*
X102508117Y-69083279D01*
G37*
G36*
X101871327Y-69309546D02*
G01*
X101871327Y-69441828D01*
X101988759Y-69441828D01*
X101988759Y-69309546D01*
X101871327Y-69309546D01*
G37*
G36*
X102224013Y-68409755D02*
G01*
X102137845Y-68409755D01*
X102128512Y-68409953D01*
X102119852Y-68410549D01*
X102111855Y-68411549D01*
X102101082Y-68413817D01*
X102091745Y-68417020D01*
X102083811Y-68421174D01*
X102077249Y-68426297D01*
X102072026Y-68432405D01*
X102068107Y-68439513D01*
X102065461Y-68447639D01*
X102064055Y-68456799D01*
X102063790Y-68463489D01*
X102064273Y-68471835D01*
X102066271Y-68480874D01*
X102069886Y-68488487D01*
X102075190Y-68494803D01*
X102082255Y-68499951D01*
X102091151Y-68504062D01*
X102097398Y-68506085D01*
X102093350Y-68514408D01*
X102089559Y-68522965D01*
X102086025Y-68531755D01*
X102082750Y-68540779D01*
X102079733Y-68550037D01*
X102076975Y-68559528D01*
X102074478Y-68569253D01*
X102072241Y-68579211D01*
X102070265Y-68589403D01*
X102068551Y-68599828D01*
X102067098Y-68610487D01*
X102065909Y-68621379D01*
X102064983Y-68632505D01*
X102064321Y-68643865D01*
X102063923Y-68655458D01*
X102063790Y-68667285D01*
X102064117Y-68682995D01*
X102065088Y-68698391D01*
X102066690Y-68713461D01*
X102068912Y-68728192D01*
X102071741Y-68742573D01*
X102075163Y-68756590D01*
X102079167Y-68770233D01*
X102083739Y-68783490D01*
X102088867Y-68796347D01*
X102094538Y-68808793D01*
X102100739Y-68820815D01*
X102107458Y-68832403D01*
X102114683Y-68843543D01*
X102122400Y-68854224D01*
X102130597Y-68864433D01*
X102139261Y-68874159D01*
X102148380Y-68883388D01*
X102157940Y-68892110D01*
X102167930Y-68900312D01*
X102178336Y-68907982D01*
X102189146Y-68915108D01*
X102200348Y-68921678D01*
X102211927Y-68927679D01*
X102223873Y-68933101D01*
X102236172Y-68937929D01*
X102248811Y-68942153D01*
X102261779Y-68945760D01*
X102275061Y-68948739D01*
X102288646Y-68951077D01*
X102302521Y-68952761D01*
X102316673Y-68953781D01*
X102331090Y-68954124D01*
X102341060Y-68953943D01*
X102351201Y-68953385D01*
X102361483Y-68952428D01*
X102371872Y-68951051D01*
X102382337Y-68949231D01*
X102392846Y-68946947D01*
X102403366Y-68944177D01*
X102413866Y-68940898D01*
X102424314Y-68937089D01*
X102434677Y-68932729D01*
X102444924Y-68927794D01*
X102455023Y-68922264D01*
X102464940Y-68916116D01*
X102474646Y-68909328D01*
X102484107Y-68901879D01*
X102493291Y-68893747D01*
X102502167Y-68884909D01*
X102510702Y-68875345D01*
X102518865Y-68865031D01*
X102526623Y-68853946D01*
X102533945Y-68842068D01*
X102540797Y-68829376D01*
X102547149Y-68815847D01*
X102552969Y-68801460D01*
X102558224Y-68786192D01*
X102562882Y-68770022D01*
X102566911Y-68752927D01*
X102570279Y-68734887D01*
X102572955Y-68715878D01*
X102574906Y-68695880D01*
X102576100Y-68674870D01*
X102576505Y-68652826D01*
X102576343Y-68637264D01*
X102575862Y-68622090D01*
X102575073Y-68607312D01*
X102573983Y-68592935D01*
X102572603Y-68578968D01*
X102570942Y-68565416D01*
X102569008Y-68552287D01*
X102566811Y-68539589D01*
X102564361Y-68527327D01*
X102561665Y-68515508D01*
X102558734Y-68504141D01*
X102555577Y-68493231D01*
X102552203Y-68482785D01*
X102548621Y-68472811D01*
X102544840Y-68463315D01*
X102540870Y-68454305D01*
X102536719Y-68445787D01*
X102532397Y-68437768D01*
X102527913Y-68430256D01*
X102523277Y-68423257D01*
X102518497Y-68416777D01*
X102508543Y-68405406D01*
X102498125Y-68396199D01*
X102487317Y-68389211D01*
X102476193Y-68384498D01*
X102464825Y-68382114D01*
X102459073Y-68381814D01*
X102450710Y-68382476D01*
X102442723Y-68384392D01*
X102435210Y-68387456D01*
X102428267Y-68391561D01*
X102421993Y-68396602D01*
X102416485Y-68402471D01*
X102411841Y-68409062D01*
X102408157Y-68416270D01*
X102405533Y-68423988D01*
X102404064Y-68432110D01*
X102403776Y-68437697D01*
X102404459Y-68445696D01*
X102407763Y-68455960D01*
X102413271Y-68465198D01*
X102420381Y-68474602D01*
X102425715Y-68481550D01*
X102431315Y-68489453D01*
X102437005Y-68498663D01*
X102442605Y-68509534D01*
X102447939Y-68522417D01*
X102452827Y-68537666D01*
X102455049Y-68546287D01*
X102457093Y-68555632D01*
X102458936Y-68565745D01*
X102460557Y-68576669D01*
X102461933Y-68588449D01*
X102463042Y-68601130D01*
X102463861Y-68614754D01*
X102464369Y-68629366D01*
X102464544Y-68645010D01*
X102464414Y-68657094D01*
X102464024Y-68668798D01*
X102463374Y-68680123D01*
X102462464Y-68691068D01*
X102461294Y-68701633D01*
X102459863Y-68711818D01*
X102458172Y-68721622D01*
X102456221Y-68731045D01*
X102454010Y-68740086D01*
X102451537Y-68748746D01*
X102448805Y-68757025D01*
X102445811Y-68764921D01*
X102442557Y-68772435D01*
X102439042Y-68779566D01*
X102431229Y-68792679D01*
X102422372Y-68804258D01*
X102412470Y-68814301D01*
X102401524Y-68822805D01*
X102389531Y-68829767D01*
X102376491Y-68835187D01*
X102362405Y-68839061D01*
X102347271Y-68841387D01*
X102339312Y-68841969D01*
X102331090Y-68842163D01*
X102322530Y-68841963D01*
X102314149Y-68841369D01*
X102305951Y-68840385D01*
X102297944Y-68839016D01*
X102290133Y-68837269D01*
X102282525Y-68835150D01*
X102267941Y-68829813D01*
X102254240Y-68823052D01*
X102241472Y-68814909D01*
X102229687Y-68805429D01*
X102218933Y-68794658D01*
X102209260Y-68782638D01*
X102204844Y-68776174D01*
X102200717Y-68769415D01*
X102196885Y-68762366D01*
X102193354Y-68755032D01*
X102190129Y-68747420D01*
X102187218Y-68739535D01*
X102184627Y-68731382D01*
X102182361Y-68722967D01*
X102180426Y-68714296D01*
X102178830Y-68705373D01*
X102177578Y-68696206D01*
X102176676Y-68686798D01*
X102176130Y-68677156D01*
X102175946Y-68667285D01*
X102176060Y-68658158D01*
X102176400Y-68649246D01*
X102176963Y-68640550D01*
X102177745Y-68632074D01*
X102178743Y-68623822D01*
X102179955Y-68615796D01*
X102181376Y-68607999D01*
X102183896Y-68596742D01*
X102186871Y-68586019D01*
X102190290Y-68575840D01*
X102194142Y-68566218D01*
X102198418Y-68557161D01*
X102203106Y-68548681D01*
X102209099Y-68541847D01*
X102215770Y-68536353D01*
X102222971Y-68531960D01*
X102230556Y-68528427D01*
X102238378Y-68525514D01*
X102246290Y-68522982D01*
X102254146Y-68520591D01*
X102261798Y-68518101D01*
X102269099Y-68515272D01*
X102279074Y-68509869D01*
X102287434Y-68502354D01*
X102291866Y-68495771D01*
X102295214Y-68487650D01*
X102297330Y-68477750D01*
X102298068Y-68465833D01*
X102297668Y-68457443D01*
X102295636Y-68446440D01*
X102292020Y-68437205D01*
X102286969Y-68429596D01*
X102280633Y-68423469D01*
X102273161Y-68418679D01*
X102264704Y-68415082D01*
X102255411Y-68412536D01*
X102245432Y-68410895D01*
X102234916Y-68410016D01*
X102224013Y-68409755D01*
G37*
G36*
X102375053Y-68184075D02*
G01*
X102380674Y-68181576D01*
X102391347Y-68175980D01*
X102401269Y-68169580D01*
X102410445Y-68162367D01*
X102418881Y-68154334D01*
X102426582Y-68145473D01*
X102433555Y-68135776D01*
X102439804Y-68125234D01*
X102445337Y-68113839D01*
X102450157Y-68101585D01*
X102454272Y-68088462D01*
X102457687Y-68074462D01*
X102460408Y-68059578D01*
X102461509Y-68051802D01*
X102462439Y-68043802D01*
X102463199Y-68035577D01*
X102463788Y-68027125D01*
X102464209Y-68018447D01*
X102464460Y-68009540D01*
X102464544Y-68000404D01*
X102464447Y-67990736D01*
X102464166Y-67981256D01*
X102463713Y-67971965D01*
X102463100Y-67962862D01*
X102462339Y-67953945D01*
X102461442Y-67945215D01*
X102460423Y-67936670D01*
X102459293Y-67928310D01*
X102458064Y-67920133D01*
X102456749Y-67912140D01*
X102453910Y-67896698D01*
X102450874Y-67881979D01*
X102447740Y-67867976D01*
X102444606Y-67854683D01*
X102441570Y-67842093D01*
X102438731Y-67830200D01*
X102436187Y-67818999D01*
X102434037Y-67808482D01*
X102432380Y-67798644D01*
X102431313Y-67789477D01*
X102430936Y-67780976D01*
X102431516Y-67772653D01*
X102433209Y-67764771D01*
X102437072Y-67755094D01*
X102442612Y-67746544D01*
X102449657Y-67739316D01*
X102458036Y-67733606D01*
X102467577Y-67729607D01*
X102475393Y-67727848D01*
X102483692Y-67727243D01*
X102497840Y-67729895D01*
X102510513Y-67737438D01*
X102516321Y-67742850D01*
X102521788Y-67749254D01*
X102526926Y-67756571D01*
X102531744Y-67764725D01*
X102536251Y-67773639D01*
X102540458Y-67783234D01*
X102544373Y-67793434D01*
X102548007Y-67804162D01*
X102551368Y-67815341D01*
X102554468Y-67826892D01*
X102557316Y-67838740D01*
X102559921Y-67850806D01*
X102562292Y-67863013D01*
X102564441Y-67875284D01*
X102566376Y-67887543D01*
X102568107Y-67899711D01*
X102569644Y-67911711D01*
X102570996Y-67923467D01*
X102572174Y-67934901D01*
X102573186Y-67945935D01*
X102574043Y-67956493D01*
X102574754Y-67966497D01*
X102575330Y-67975870D01*
X102575778Y-67984534D01*
X102576336Y-67999430D01*
X102576505Y-68010565D01*
X102576192Y-68026679D01*
X102575263Y-68042478D01*
X102573730Y-68057951D01*
X102571607Y-68073084D01*
X102568907Y-68087864D01*
X102565643Y-68102278D01*
X102561828Y-68116313D01*
X102557475Y-68129957D01*
X102552598Y-68143196D01*
X102547209Y-68156017D01*
X102541321Y-68168407D01*
X102534949Y-68180354D01*
X102528104Y-68191844D01*
X102520800Y-68202865D01*
X102513051Y-68213404D01*
X102504868Y-68223447D01*
X102496266Y-68232982D01*
X102487258Y-68241995D01*
X102477856Y-68250474D01*
X102468074Y-68258406D01*
X102457925Y-68265778D01*
X102447422Y-68272577D01*
X102436578Y-68278790D01*
X102425407Y-68284404D01*
X102413921Y-68289406D01*
X102402133Y-68293783D01*
X102390058Y-68297522D01*
X102377707Y-68300610D01*
X102365094Y-68303035D01*
X102352232Y-68304782D01*
X102339134Y-68305841D01*
X102325814Y-68306196D01*
X102312066Y-68305831D01*
X102298528Y-68304748D01*
X102285216Y-68302961D01*
X102272144Y-68300487D01*
X102259327Y-68297342D01*
X102246780Y-68293542D01*
X102234517Y-68289103D01*
X102222554Y-68284040D01*
X102210905Y-68278371D01*
X102199586Y-68272111D01*
X102188610Y-68265275D01*
X102177993Y-68257881D01*
X102167749Y-68249943D01*
X102157894Y-68241478D01*
X102148442Y-68232503D01*
X102139408Y-68223032D01*
X102130806Y-68213081D01*
X102122653Y-68202668D01*
X102114961Y-68191808D01*
X102107747Y-68180516D01*
X102101025Y-68168809D01*
X102094809Y-68156703D01*
X102089116Y-68144214D01*
X102083959Y-68131358D01*
X102079353Y-68118151D01*
X102075313Y-68104608D01*
X102071854Y-68090746D01*
X102068990Y-68076581D01*
X102066737Y-68062129D01*
X102065110Y-68047405D01*
X102064123Y-68032426D01*
X102063790Y-68017208D01*
X102063811Y-68016231D01*
X102175946Y-68016231D01*
X102176413Y-68031354D01*
X102177794Y-68046061D01*
X102180058Y-68060303D01*
X102183176Y-68074031D01*
X102187119Y-68087196D01*
X102191856Y-68099748D01*
X102197358Y-68111639D01*
X102203595Y-68122819D01*
X102210537Y-68133238D01*
X102218155Y-68142848D01*
X102226418Y-68151600D01*
X102235297Y-68159443D01*
X102244763Y-68166329D01*
X102254785Y-68172209D01*
X102265334Y-68177034D01*
X102276379Y-68180753D01*
X102276379Y-67851514D01*
X102265140Y-67855427D01*
X102254448Y-67860395D01*
X102244328Y-67866374D01*
X102234803Y-67873322D01*
X102225899Y-67881193D01*
X102217639Y-67889944D01*
X102210050Y-67899532D01*
X102203155Y-67909912D01*
X102196979Y-67921041D01*
X102191547Y-67932875D01*
X102186883Y-67945370D01*
X102183011Y-67958483D01*
X102179957Y-67972169D01*
X102177745Y-67986385D01*
X102176400Y-68001087D01*
X102175946Y-68016231D01*
X102063811Y-68016231D01*
X102064119Y-68001695D01*
X102065098Y-67986453D01*
X102066714Y-67971496D01*
X102068953Y-67956840D01*
X102071802Y-67942498D01*
X102075248Y-67928485D01*
X102079278Y-67914815D01*
X102083879Y-67901504D01*
X102089038Y-67888566D01*
X102094740Y-67876014D01*
X102100974Y-67863865D01*
X102107726Y-67852131D01*
X102114983Y-67840829D01*
X102122732Y-67829971D01*
X102130959Y-67819574D01*
X102139652Y-67809651D01*
X102148797Y-67800216D01*
X102158381Y-67791285D01*
X102168391Y-67782872D01*
X102178813Y-67774992D01*
X102189635Y-67767658D01*
X102200844Y-67760886D01*
X102212426Y-67754690D01*
X102224368Y-67749084D01*
X102236656Y-67744084D01*
X102249279Y-67739703D01*
X102262222Y-67735956D01*
X102275472Y-67732858D01*
X102289017Y-67730423D01*
X102302843Y-67728666D01*
X102316937Y-67727601D01*
X102331285Y-67727243D01*
X102375053Y-67727243D01*
X102375053Y-68184075D01*
G37*
G36*
X102179268Y-67105108D02*
G01*
X102137845Y-67105108D01*
X102128512Y-67105305D01*
X102119852Y-67105900D01*
X102111855Y-67106894D01*
X102101082Y-67109143D01*
X102091745Y-67112310D01*
X102083811Y-67116406D01*
X102077249Y-67121441D01*
X102072026Y-67127426D01*
X102068107Y-67134371D01*
X102065461Y-67142288D01*
X102064055Y-67151186D01*
X102063790Y-67157669D01*
X102064670Y-67166456D01*
X102067448Y-67174059D01*
X102072333Y-67180693D01*
X102079535Y-67186575D01*
X102087455Y-67191058D01*
X102093099Y-67193621D01*
X102089421Y-67201820D01*
X102086006Y-67210084D01*
X102082849Y-67218422D01*
X102079947Y-67226844D01*
X102077297Y-67235361D01*
X102074896Y-67243980D01*
X102072739Y-67252713D01*
X102070824Y-67261570D01*
X102069148Y-67270559D01*
X102067706Y-67279690D01*
X102066495Y-67288974D01*
X102065512Y-67298420D01*
X102064754Y-67308037D01*
X102064216Y-67317836D01*
X102063896Y-67327827D01*
X102063790Y-67338018D01*
X102063976Y-67350507D01*
X102064529Y-67362763D01*
X102065442Y-67374774D01*
X102066708Y-67386530D01*
X102068319Y-67398020D01*
X102070269Y-67409233D01*
X102072549Y-67420159D01*
X102075154Y-67430787D01*
X102078074Y-67441107D01*
X102081305Y-67451107D01*
X102084837Y-67460778D01*
X102088664Y-67470108D01*
X102092779Y-67479087D01*
X102097174Y-67487704D01*
X102101842Y-67495948D01*
X102106777Y-67503810D01*
X102111970Y-67511277D01*
X102117415Y-67518340D01*
X102123104Y-67524988D01*
X102129030Y-67531210D01*
X102135186Y-67536995D01*
X102141564Y-67542334D01*
X102148158Y-67547214D01*
X102154960Y-67551626D01*
X102161963Y-67555559D01*
X102169159Y-67559002D01*
X102176543Y-67561945D01*
X102184105Y-67564377D01*
X102191839Y-67566286D01*
X102199738Y-67567664D01*
X102207795Y-67568498D01*
X102216002Y-67568778D01*
X102223920Y-67568584D01*
X102239022Y-67567016D01*
X102253164Y-67563846D01*
X102266369Y-67559038D01*
X102278659Y-67552554D01*
X102290057Y-67544359D01*
X102300586Y-67534415D01*
X102310268Y-67522688D01*
X102314799Y-67516144D01*
X102319126Y-67509140D01*
X102323253Y-67501672D01*
X102327182Y-67493735D01*
X102330917Y-67485325D01*
X102334459Y-67476438D01*
X102337813Y-67467067D01*
X102340980Y-67457210D01*
X102343964Y-67446861D01*
X102346767Y-67436017D01*
X102349393Y-67424671D01*
X102351844Y-67412821D01*
X102354122Y-67400461D01*
X102356231Y-67387587D01*
X102358174Y-67374194D01*
X102359953Y-67360278D01*
X102361571Y-67345833D01*
X102362596Y-67334583D01*
X102363493Y-67325362D01*
X102364618Y-67315074D01*
X102366019Y-67303984D01*
X102367745Y-67292358D01*
X102369847Y-67280462D01*
X102372371Y-67268562D01*
X102375368Y-67256923D01*
X102378887Y-67245810D01*
X102382975Y-67235490D01*
X102387683Y-67226227D01*
X102393059Y-67218288D01*
X102399153Y-67211938D01*
X102406012Y-67207443D01*
X102413686Y-67205068D01*
X102417845Y-67204759D01*
X102427032Y-67207451D01*
X102433589Y-67212793D01*
X102439758Y-67220724D01*
X102445450Y-67231011D01*
X102448934Y-67239064D01*
X102452139Y-67247991D01*
X102455037Y-67257724D01*
X102457601Y-67268194D01*
X102459806Y-67279332D01*
X102461623Y-67291069D01*
X102463025Y-67303336D01*
X102463987Y-67316063D01*
X102464481Y-67329183D01*
X102464544Y-67335868D01*
X102464379Y-67347033D01*
X102463884Y-67357884D01*
X102463060Y-67368420D01*
X102461906Y-67378638D01*
X102460422Y-67388537D01*
X102458609Y-67398115D01*
X102456465Y-67407369D01*
X102453993Y-67416297D01*
X102451190Y-67424899D01*
X102448057Y-67433170D01*
X102444595Y-67441111D01*
X102440803Y-67448718D01*
X102436682Y-67455989D01*
X102432230Y-67462923D01*
X102427449Y-67469518D01*
X102422339Y-67475771D01*
X102414253Y-67478837D01*
X102406927Y-67482332D01*
X102398355Y-67487687D01*
X102391166Y-67493872D01*
X102385378Y-67500927D01*
X102381010Y-67508889D01*
X102378080Y-67517797D01*
X102376606Y-67527692D01*
X102376421Y-67533021D01*
X102376809Y-67541390D01*
X102378785Y-67552414D01*
X102382323Y-67561720D01*
X102387295Y-67569439D01*
X102393576Y-67575702D01*
X102401038Y-67580642D01*
X102409556Y-67584388D01*
X102419002Y-67587074D01*
X102429251Y-67588829D01*
X102440175Y-67589786D01*
X102451648Y-67590076D01*
X102488577Y-67590076D01*
X102499430Y-67589814D01*
X102509905Y-67588930D01*
X102519852Y-67587274D01*
X102529120Y-67584698D01*
X102537559Y-67581052D01*
X102545017Y-67576189D01*
X102551345Y-67569959D01*
X102556391Y-67562214D01*
X102560005Y-67552805D01*
X102562036Y-67541583D01*
X102562436Y-67533021D01*
X102561923Y-67524123D01*
X102560234Y-67516288D01*
X102557151Y-67508951D01*
X102552451Y-67501547D01*
X102548954Y-67497069D01*
X102551968Y-67488536D01*
X102554850Y-67479723D01*
X102557591Y-67470637D01*
X102560183Y-67461287D01*
X102562617Y-67451680D01*
X102564884Y-67441825D01*
X102566976Y-67431730D01*
X102568884Y-67421402D01*
X102570600Y-67410850D01*
X102572115Y-67400081D01*
X102573421Y-67389104D01*
X102574508Y-67377927D01*
X102575369Y-67366557D01*
X102575994Y-67355003D01*
X102576376Y-67343273D01*
X102576505Y-67331374D01*
X102576313Y-67317936D01*
X102575741Y-67304742D01*
X102574798Y-67291803D01*
X102573491Y-67279131D01*
X102571827Y-67266738D01*
X102569815Y-67254637D01*
X102567462Y-67242839D01*
X102564775Y-67231357D01*
X102561763Y-67220202D01*
X102558432Y-67209386D01*
X102554791Y-67198922D01*
X102550848Y-67188822D01*
X102546609Y-67179097D01*
X102542083Y-67169760D01*
X102537277Y-67160822D01*
X102532199Y-67152295D01*
X102526857Y-67144193D01*
X102521257Y-67136526D01*
X102515409Y-67129306D01*
X102509319Y-67122547D01*
X102502995Y-67116259D01*
X102496445Y-67110454D01*
X102489677Y-67105146D01*
X102482697Y-67100345D01*
X102475515Y-67096064D01*
X102468136Y-67092315D01*
X102460570Y-67089109D01*
X102452824Y-67086460D01*
X102444905Y-67084378D01*
X102436821Y-67082876D01*
X102428580Y-67081966D01*
X102420189Y-67081660D01*
X102410854Y-67081999D01*
X102401621Y-67083008D01*
X102392518Y-67084672D01*
X102383568Y-67086979D01*
X102374799Y-67089915D01*
X102366234Y-67093469D01*
X102357900Y-67097625D01*
X102349823Y-67102372D01*
X102342027Y-67107696D01*
X102334538Y-67113584D01*
X102327382Y-67120022D01*
X102320584Y-67126998D01*
X102314169Y-67134498D01*
X102308164Y-67142510D01*
X102302593Y-67151019D01*
X102297482Y-67160013D01*
X102292794Y-67169205D01*
X102288495Y-67178903D01*
X102284559Y-67189055D01*
X102280961Y-67199609D01*
X102277676Y-67210512D01*
X102274678Y-67221712D01*
X102271941Y-67233156D01*
X102269440Y-67244793D01*
X102267149Y-67256570D01*
X102265043Y-67268435D01*
X102263096Y-67280334D01*
X102261284Y-67292217D01*
X102259579Y-67304030D01*
X102257958Y-67315722D01*
X102256394Y-67327240D01*
X102254861Y-67338531D01*
X102253335Y-67349543D01*
X102251790Y-67360224D01*
X102250200Y-67370522D01*
X102248540Y-67380383D01*
X102246784Y-67389757D01*
X102244906Y-67398590D01*
X102242882Y-67406831D01*
X102240686Y-67414426D01*
X102235675Y-67427471D01*
X102229668Y-67437308D01*
X102222462Y-67443517D01*
X102213853Y-67445680D01*
X102204845Y-67441924D01*
X102198027Y-67434013D01*
X102193272Y-67425608D01*
X102188919Y-67415364D01*
X102186283Y-67407636D01*
X102183887Y-67399278D01*
X102181759Y-67390362D01*
X102179923Y-67380964D01*
X102178403Y-67371158D01*
X102177226Y-67361018D01*
X102176417Y-67350618D01*
X102176000Y-67340034D01*
X102175946Y-67334696D01*
X102176168Y-67321365D01*
X102176813Y-67309072D01*
X102177854Y-67297763D01*
X102179263Y-67287386D01*
X102181011Y-67277888D01*
X102183069Y-67269216D01*
X102185410Y-67261318D01*
X102190828Y-67247633D01*
X102197036Y-67236410D01*
X102203810Y-67227229D01*
X102210924Y-67219666D01*
X102218150Y-67213301D01*
X102225263Y-67207712D01*
X102232037Y-67202478D01*
X102238246Y-67197177D01*
X102243663Y-67191387D01*
X102248063Y-67184686D01*
X102251219Y-67176654D01*
X102252906Y-67166868D01*
X102253127Y-67161186D01*
X102252766Y-67152957D01*
X102250913Y-67142118D01*
X102247577Y-67132970D01*
X102242854Y-67125382D01*
X102236844Y-67119227D01*
X102229646Y-67114373D01*
X102221357Y-67110692D01*
X102212076Y-67108055D01*
X102201902Y-67106331D01*
X102190933Y-67105392D01*
X102179268Y-67105108D01*
G37*
D11*
G36*
X100886020Y-78192882D02*
G01*
X100756767Y-78192882D01*
X100742768Y-78193178D01*
X100729779Y-78194073D01*
X100717783Y-78195573D01*
X100701623Y-78198974D01*
X100687617Y-78203778D01*
X100675717Y-78210010D01*
X100665874Y-78217694D01*
X100658039Y-78226856D01*
X100652161Y-78237518D01*
X100648192Y-78249708D01*
X100646083Y-78263448D01*
X100645685Y-78273482D01*
X100646409Y-78286000D01*
X100649407Y-78299560D01*
X100654830Y-78310979D01*
X100662786Y-78320452D01*
X100673383Y-78328175D01*
X100686727Y-78334342D01*
X100696097Y-78337376D01*
X100690025Y-78349861D01*
X100684338Y-78362696D01*
X100679038Y-78375882D01*
X100674125Y-78389418D01*
X100669599Y-78403304D01*
X100665463Y-78417541D01*
X100661717Y-78432128D01*
X100658362Y-78447065D01*
X100655398Y-78462353D01*
X100652826Y-78477991D01*
X100650648Y-78493979D01*
X100648864Y-78510318D01*
X100647475Y-78527007D01*
X100646481Y-78544046D01*
X100645885Y-78561436D01*
X100645685Y-78579176D01*
X100646175Y-78602742D01*
X100647632Y-78625836D01*
X100650036Y-78648440D01*
X100653369Y-78670537D01*
X100657612Y-78692108D01*
X100662745Y-78713134D01*
X100668750Y-78733599D01*
X100675608Y-78753483D01*
X100683300Y-78772769D01*
X100691807Y-78791438D01*
X100701109Y-78809472D01*
X100711188Y-78826853D01*
X100722025Y-78843563D01*
X100733600Y-78859585D01*
X100745896Y-78874898D01*
X100758892Y-78889487D01*
X100772570Y-78903331D01*
X100786911Y-78916414D01*
X100801895Y-78928717D01*
X100817505Y-78940222D01*
X100833720Y-78950911D01*
X100850522Y-78960766D01*
X100867891Y-78969768D01*
X100885810Y-78977899D01*
X100904258Y-78985142D01*
X100923217Y-78991478D01*
X100942668Y-78996889D01*
X100962592Y-79001357D01*
X100982969Y-79004864D01*
X101003782Y-79007391D01*
X101025010Y-79008920D01*
X101046635Y-79009434D01*
X101061590Y-79009163D01*
X101076802Y-79008326D01*
X101092225Y-79006891D01*
X101107809Y-79004825D01*
X101123506Y-79002095D01*
X101139269Y-78998669D01*
X101155050Y-78994514D01*
X101170800Y-78989596D01*
X101186471Y-78983883D01*
X101202016Y-78977342D01*
X101217386Y-78969940D01*
X101232534Y-78961644D01*
X101247411Y-78952422D01*
X101261969Y-78942241D01*
X101276160Y-78931068D01*
X101289937Y-78918869D01*
X101303251Y-78905613D01*
X101316054Y-78891265D01*
X101328298Y-78875795D01*
X101339935Y-78859168D01*
X101350917Y-78841351D01*
X101361196Y-78822313D01*
X101370724Y-78802019D01*
X101379454Y-78780438D01*
X101387336Y-78757536D01*
X101394323Y-78733281D01*
X101400366Y-78707640D01*
X101405419Y-78680579D01*
X101409433Y-78652066D01*
X101412359Y-78622068D01*
X101414150Y-78590553D01*
X101414757Y-78557487D01*
X101414514Y-78534144D01*
X101413793Y-78511384D01*
X101412609Y-78489216D01*
X101410975Y-78467651D01*
X101408905Y-78446700D01*
X101406413Y-78426373D01*
X101403512Y-78406680D01*
X101400217Y-78387632D01*
X101396541Y-78369239D01*
X101392498Y-78351511D01*
X101388102Y-78334460D01*
X101383366Y-78318095D01*
X101378305Y-78302426D01*
X101372932Y-78287465D01*
X101367260Y-78273222D01*
X101361305Y-78259706D01*
X101355079Y-78246929D01*
X101348596Y-78234901D01*
X101341870Y-78223633D01*
X101334916Y-78213133D01*
X101327746Y-78203414D01*
X101312815Y-78186358D01*
X101297188Y-78172548D01*
X101280976Y-78162066D01*
X101264289Y-78154995D01*
X101247238Y-78151420D01*
X101238609Y-78150969D01*
X101226066Y-78151963D01*
X101214085Y-78154837D01*
X101202815Y-78159433D01*
X101192401Y-78165591D01*
X101182990Y-78173151D01*
X101174728Y-78181955D01*
X101167761Y-78191842D01*
X101162236Y-78202654D01*
X101158299Y-78214231D01*
X101156097Y-78226414D01*
X101155665Y-78234794D01*
X101156688Y-78246793D01*
X101161645Y-78262189D01*
X101169907Y-78276046D01*
X101180572Y-78290151D01*
X101188572Y-78300573D01*
X101196973Y-78312428D01*
X101205507Y-78326243D01*
X101213908Y-78342549D01*
X101221908Y-78361874D01*
X101229241Y-78384747D01*
X101232574Y-78397679D01*
X101235639Y-78411697D01*
X101238404Y-78426866D01*
X101240835Y-78443252D01*
X101242899Y-78460923D01*
X101244563Y-78479943D01*
X101245792Y-78500379D01*
X101246554Y-78522297D01*
X101246816Y-78545764D01*
X101246621Y-78563889D01*
X101246036Y-78581446D01*
X101245061Y-78598433D01*
X101243696Y-78614851D01*
X101241941Y-78630698D01*
X101239795Y-78645975D01*
X101237259Y-78660681D01*
X101234332Y-78674815D01*
X101231015Y-78688378D01*
X101227306Y-78701368D01*
X101223207Y-78713786D01*
X101218717Y-78725630D01*
X101213836Y-78736901D01*
X101208563Y-78747598D01*
X101196844Y-78767267D01*
X101183558Y-78784636D01*
X101168706Y-78799700D01*
X101152286Y-78812456D01*
X101134296Y-78822900D01*
X101114737Y-78831029D01*
X101093608Y-78836840D01*
X101070907Y-78840329D01*
X101058968Y-78841202D01*
X101046635Y-78841493D01*
X101033796Y-78841194D01*
X101021223Y-78840302D01*
X101008927Y-78838826D01*
X100996917Y-78836773D01*
X100985200Y-78834153D01*
X100973788Y-78830973D01*
X100951911Y-78822969D01*
X100931360Y-78812826D01*
X100912209Y-78800612D01*
X100894531Y-78786393D01*
X100878400Y-78770235D01*
X100863891Y-78752206D01*
X100857267Y-78742510D01*
X100851076Y-78732371D01*
X100845328Y-78721797D01*
X100840031Y-78710797D01*
X100835194Y-78699379D01*
X100830828Y-78687551D01*
X100826940Y-78675322D01*
X100823541Y-78662700D01*
X100820640Y-78649692D01*
X100818245Y-78636309D01*
X100816367Y-78622557D01*
X100815014Y-78608445D01*
X100814195Y-78593982D01*
X100813920Y-78579176D01*
X100814091Y-78565486D01*
X100814601Y-78552117D01*
X100815444Y-78539074D01*
X100816617Y-78526360D01*
X100818115Y-78513981D01*
X100819932Y-78501942D01*
X100822065Y-78490248D01*
X100825844Y-78473362D01*
X100830306Y-78457277D01*
X100835435Y-78442009D01*
X100841214Y-78427575D01*
X100847627Y-78413990D01*
X100854660Y-78401270D01*
X100863649Y-78391019D01*
X100873655Y-78382778D01*
X100884457Y-78376188D01*
X100895834Y-78370889D01*
X100907567Y-78366520D01*
X100919436Y-78362722D01*
X100931219Y-78359136D01*
X100942697Y-78355401D01*
X100953649Y-78351157D01*
X100968611Y-78343052D01*
X100981151Y-78331779D01*
X100987800Y-78321905D01*
X100992821Y-78309723D01*
X100995995Y-78294874D01*
X100997102Y-78276999D01*
X100996502Y-78264414D01*
X100993454Y-78247908D01*
X100988030Y-78234056D01*
X100980453Y-78222643D01*
X100970949Y-78213452D01*
X100959742Y-78206267D01*
X100947056Y-78200872D01*
X100933117Y-78197053D01*
X100918148Y-78194591D01*
X100902374Y-78193273D01*
X100886020Y-78192882D01*
G37*
G36*
X101049968Y-77156187D02*
G01*
X101069461Y-77157840D01*
X101088674Y-77160562D01*
X101107584Y-77164328D01*
X101126167Y-77169112D01*
X101144397Y-77174889D01*
X101162250Y-77181633D01*
X101179703Y-77189318D01*
X101196730Y-77197919D01*
X101213307Y-77207409D01*
X101229409Y-77217762D01*
X101245013Y-77228954D01*
X101260094Y-77240958D01*
X101274628Y-77253749D01*
X101288589Y-77267301D01*
X101301954Y-77281587D01*
X101314698Y-77296583D01*
X101326797Y-77312262D01*
X101338226Y-77328599D01*
X101348961Y-77345568D01*
X101358978Y-77363143D01*
X101368252Y-77381299D01*
X101376758Y-77400009D01*
X101384473Y-77419248D01*
X101391371Y-77438991D01*
X101397429Y-77459211D01*
X101402622Y-77479882D01*
X101406926Y-77500980D01*
X101410315Y-77522477D01*
X101412767Y-77544349D01*
X101414256Y-77566570D01*
X101414757Y-77589113D01*
X101414256Y-77611631D01*
X101412767Y-77633829D01*
X101410315Y-77655681D01*
X101406926Y-77677163D01*
X101402622Y-77698246D01*
X101397429Y-77718907D01*
X101391371Y-77739118D01*
X101384473Y-77758854D01*
X101376758Y-77778090D01*
X101368252Y-77796798D01*
X101358978Y-77814953D01*
X101348961Y-77832530D01*
X101338226Y-77849502D01*
X101326797Y-77865843D01*
X101314698Y-77881527D01*
X101301954Y-77896530D01*
X101288589Y-77910823D01*
X101274628Y-77924383D01*
X101260094Y-77937182D01*
X101245013Y-77949195D01*
X101229409Y-77960396D01*
X101213307Y-77970759D01*
X101196730Y-77980258D01*
X101179703Y-77988867D01*
X101162250Y-77996560D01*
X101144397Y-78003312D01*
X101126167Y-78009096D01*
X101107584Y-78013887D01*
X101088674Y-78017658D01*
X101069461Y-78020384D01*
X101049968Y-78022038D01*
X101030221Y-78022595D01*
X101010217Y-78022043D01*
X100990499Y-78020402D01*
X100971092Y-78017696D01*
X100952017Y-78013949D01*
X100933298Y-78009186D01*
X100914958Y-78003430D01*
X100897019Y-77996706D01*
X100879504Y-77989036D01*
X100862436Y-77980447D01*
X100845838Y-77970961D01*
X100829732Y-77960603D01*
X100814141Y-77949396D01*
X100799089Y-77937365D01*
X100784598Y-77924533D01*
X100770691Y-77910926D01*
X100757390Y-77896566D01*
X100744719Y-77881478D01*
X100732699Y-77865686D01*
X100721355Y-77849214D01*
X100710709Y-77832086D01*
X100700783Y-77814326D01*
X100691601Y-77795958D01*
X100683185Y-77777006D01*
X100675558Y-77757494D01*
X100668743Y-77737447D01*
X100662762Y-77716887D01*
X100657639Y-77695840D01*
X100653397Y-77674330D01*
X100650057Y-77652379D01*
X100647644Y-77630013D01*
X100646179Y-77607256D01*
X100645716Y-77585596D01*
X100813920Y-77585596D01*
X100814189Y-77599828D01*
X100814990Y-77613827D01*
X100816311Y-77627579D01*
X100818141Y-77641071D01*
X100820469Y-77654286D01*
X100823282Y-77667212D01*
X100826571Y-77679833D01*
X100830324Y-77692135D01*
X100834529Y-77704104D01*
X100839175Y-77715726D01*
X100844252Y-77726985D01*
X100849747Y-77737869D01*
X100855649Y-77748361D01*
X100861948Y-77758449D01*
X100875689Y-77777351D01*
X100890879Y-77794461D01*
X100907429Y-77809662D01*
X100925247Y-77822841D01*
X100944245Y-77833881D01*
X100964331Y-77842669D01*
X100985416Y-77849088D01*
X101007410Y-77853023D01*
X101030221Y-77854361D01*
X101052795Y-77853024D01*
X101074618Y-77849094D01*
X101095594Y-77842692D01*
X101115626Y-77833936D01*
X101134614Y-77822948D01*
X101152463Y-77809848D01*
X101169074Y-77794755D01*
X101184351Y-77777791D01*
X101198195Y-77759075D01*
X101204550Y-77749097D01*
X101210510Y-77738727D01*
X101216063Y-77727979D01*
X101221197Y-77716868D01*
X101225900Y-77705410D01*
X101230160Y-77693619D01*
X101233964Y-77681510D01*
X101237301Y-77669098D01*
X101240158Y-77656399D01*
X101242522Y-77643427D01*
X101244382Y-77630197D01*
X101245726Y-77616725D01*
X101246542Y-77603025D01*
X101246816Y-77589113D01*
X101246542Y-77575200D01*
X101245726Y-77561498D01*
X101244382Y-77548022D01*
X101242522Y-77534787D01*
X101240158Y-77521809D01*
X101237301Y-77509101D01*
X101233964Y-77496681D01*
X101230160Y-77484562D01*
X101225900Y-77472760D01*
X101221197Y-77461290D01*
X101216063Y-77450167D01*
X101210510Y-77439407D01*
X101204550Y-77429023D01*
X101198195Y-77419032D01*
X101184351Y-77400289D01*
X101169074Y-77383297D01*
X101152463Y-77368178D01*
X101134614Y-77355053D01*
X101115626Y-77344043D01*
X101095594Y-77335269D01*
X101074618Y-77328852D01*
X101052795Y-77324912D01*
X101030221Y-77323572D01*
X101007941Y-77324912D01*
X100986342Y-77328845D01*
X100965528Y-77335246D01*
X100945605Y-77343988D01*
X100926676Y-77354946D01*
X100908846Y-77367993D01*
X100892218Y-77383003D01*
X100876898Y-77399849D01*
X100862990Y-77418407D01*
X100856597Y-77428287D01*
X100850597Y-77438548D01*
X100845002Y-77449173D01*
X100839825Y-77460147D01*
X100835079Y-77471454D01*
X100830777Y-77483078D01*
X100826933Y-77495004D01*
X100823559Y-77507215D01*
X100820668Y-77519696D01*
X100818273Y-77532431D01*
X100816388Y-77545404D01*
X100815026Y-77558600D01*
X100814199Y-77572003D01*
X100813920Y-77585596D01*
X100645716Y-77585596D01*
X100645685Y-77584131D01*
X100646193Y-77562040D01*
X100647698Y-77540244D01*
X100650176Y-77518769D01*
X100653601Y-77497642D01*
X100657947Y-77476889D01*
X100663189Y-77456538D01*
X100669302Y-77436615D01*
X100676259Y-77417146D01*
X100684035Y-77398159D01*
X100692604Y-77379680D01*
X100701942Y-77361735D01*
X100712023Y-77344352D01*
X100722820Y-77327556D01*
X100734309Y-77311375D01*
X100746463Y-77295836D01*
X100759258Y-77280964D01*
X100772668Y-77266787D01*
X100786667Y-77253332D01*
X100801230Y-77240624D01*
X100816331Y-77228692D01*
X100831945Y-77217560D01*
X100848045Y-77207257D01*
X100864608Y-77197808D01*
X100881606Y-77189240D01*
X100899014Y-77181581D01*
X100916808Y-77174856D01*
X100934961Y-77169093D01*
X100953447Y-77164318D01*
X100972242Y-77160557D01*
X100991320Y-77157838D01*
X101010655Y-77156187D01*
X101030221Y-77155631D01*
X101049968Y-77156187D01*
G37*
G36*
X101312175Y-77047480D02*
G01*
X101329006Y-77046303D01*
X101343637Y-77042855D01*
X101356188Y-77037261D01*
X101366776Y-77029644D01*
X101375522Y-77020130D01*
X101382543Y-77008844D01*
X101387958Y-76995910D01*
X101391887Y-76981452D01*
X101394448Y-76965596D01*
X101395760Y-76948465D01*
X101396000Y-76936399D01*
X101396000Y-76748234D01*
X101395573Y-76731955D01*
X101394166Y-76716243D01*
X101391585Y-76701322D01*
X101387638Y-76687420D01*
X101382131Y-76674762D01*
X101374873Y-76663574D01*
X101365670Y-76654082D01*
X101354330Y-76646513D01*
X101340660Y-76641092D01*
X101324467Y-76638046D01*
X101312175Y-76637445D01*
X101299590Y-76638046D01*
X101283085Y-76641092D01*
X101269233Y-76646513D01*
X101257819Y-76654082D01*
X101248628Y-76663574D01*
X101241443Y-76674762D01*
X101236049Y-76687420D01*
X101232229Y-76701322D01*
X101229768Y-76716243D01*
X101228450Y-76731955D01*
X101228058Y-76748234D01*
X101228058Y-76758492D01*
X100926467Y-76758492D01*
X100911293Y-76743941D01*
X100897396Y-76729916D01*
X100884736Y-76716344D01*
X100873271Y-76703153D01*
X100862960Y-76690271D01*
X100853762Y-76677626D01*
X100845636Y-76665147D01*
X100838540Y-76652759D01*
X100832433Y-76640393D01*
X100827274Y-76627975D01*
X100823022Y-76615433D01*
X100819635Y-76602696D01*
X100817073Y-76589690D01*
X100815294Y-76576345D01*
X100814257Y-76562587D01*
X100813920Y-76548346D01*
X100814368Y-76529501D01*
X100815716Y-76511974D01*
X100817971Y-76495752D01*
X100821142Y-76480820D01*
X100825235Y-76467164D01*
X100830257Y-76454770D01*
X100836216Y-76443623D01*
X100843119Y-76433710D01*
X100855260Y-76421122D01*
X100869566Y-76411230D01*
X100880319Y-76406109D01*
X100892052Y-76402151D01*
X100904773Y-76399341D01*
X100918489Y-76397666D01*
X100933208Y-76397110D01*
X101228058Y-76397110D01*
X101228410Y-76409082D01*
X101230245Y-76425750D01*
X101233618Y-76440836D01*
X101238498Y-76454299D01*
X101244853Y-76466099D01*
X101252651Y-76476195D01*
X101261861Y-76484546D01*
X101272450Y-76491111D01*
X101284387Y-76495852D01*
X101297639Y-76498725D01*
X101312175Y-76499692D01*
X101327043Y-76498717D01*
X101340481Y-76495786D01*
X101352483Y-76490890D01*
X101363041Y-76484020D01*
X101372148Y-76475168D01*
X101379797Y-76464325D01*
X101385981Y-76451483D01*
X101390692Y-76436632D01*
X101393923Y-76419764D01*
X101395251Y-76407394D01*
X101395916Y-76394121D01*
X101396000Y-76387145D01*
X101396000Y-76237669D01*
X101395531Y-76220570D01*
X101394015Y-76204344D01*
X101391285Y-76189167D01*
X101387174Y-76175216D01*
X101381516Y-76162668D01*
X101374143Y-76151699D01*
X101364889Y-76142486D01*
X101353588Y-76135206D01*
X101340073Y-76130036D01*
X101324177Y-76127152D01*
X101312175Y-76126587D01*
X101297639Y-76127554D01*
X101284387Y-76130428D01*
X101272450Y-76135168D01*
X101261861Y-76141734D01*
X101252651Y-76150085D01*
X101244853Y-76160181D01*
X101238498Y-76171980D01*
X101233618Y-76185443D01*
X101230245Y-76200530D01*
X101228410Y-76217198D01*
X101228058Y-76229169D01*
X100926467Y-76229169D01*
X100909545Y-76229550D01*
X100893126Y-76230681D01*
X100877214Y-76232546D01*
X100861809Y-76235127D01*
X100846915Y-76238406D01*
X100832533Y-76242367D01*
X100818665Y-76246992D01*
X100805315Y-76252264D01*
X100792484Y-76258166D01*
X100780174Y-76264680D01*
X100768387Y-76271790D01*
X100757126Y-76279478D01*
X100746393Y-76287727D01*
X100736190Y-76296520D01*
X100726519Y-76305839D01*
X100717383Y-76315668D01*
X100708783Y-76325988D01*
X100700723Y-76336783D01*
X100693203Y-76348036D01*
X100686227Y-76359729D01*
X100679796Y-76371846D01*
X100673912Y-76384368D01*
X100668579Y-76397278D01*
X100663798Y-76410561D01*
X100659571Y-76424197D01*
X100655900Y-76438170D01*
X100652788Y-76452463D01*
X100650237Y-76467059D01*
X100648249Y-76481940D01*
X100646826Y-76497089D01*
X100645971Y-76512489D01*
X100645685Y-76528122D01*
X100645987Y-76545087D01*
X100646920Y-76561306D01*
X100648522Y-76576867D01*
X100650833Y-76591856D01*
X100653893Y-76606359D01*
X100657741Y-76620462D01*
X100662417Y-76634251D01*
X100667960Y-76647814D01*
X100674410Y-76661235D01*
X100681807Y-76674602D01*
X100690189Y-76688001D01*
X100699596Y-76701518D01*
X100710068Y-76715239D01*
X100721644Y-76729251D01*
X100734364Y-76743640D01*
X100748267Y-76758492D01*
X100664443Y-76758492D01*
X100664443Y-76916468D01*
X100664725Y-76928503D01*
X100666231Y-76945664D01*
X100669096Y-76961627D01*
X100673383Y-76976250D01*
X100679155Y-76989388D01*
X100686477Y-77000899D01*
X100695413Y-77010638D01*
X100706025Y-77018463D01*
X100718378Y-77024230D01*
X100732535Y-77027795D01*
X100748561Y-77029016D01*
X100763055Y-77028042D01*
X100776198Y-77025150D01*
X100787986Y-77020385D01*
X100798411Y-77013791D01*
X100807469Y-77005415D01*
X100815153Y-76995300D01*
X100821457Y-76983492D01*
X100826376Y-76970035D01*
X100829904Y-76954975D01*
X100832036Y-76938356D01*
X100832678Y-76926434D01*
X101228058Y-76926434D01*
X101228058Y-76936399D01*
X101228492Y-76953159D01*
X101229919Y-76969179D01*
X101232529Y-76984261D01*
X101236513Y-76998207D01*
X101242059Y-77010818D01*
X101249358Y-77021895D01*
X101258600Y-77031241D01*
X101269975Y-77038656D01*
X101283671Y-77043941D01*
X101299880Y-77046899D01*
X101312175Y-77047480D01*
G37*
G36*
X101153613Y-75719483D02*
G01*
X100832678Y-75719483D01*
X100832678Y-75415254D01*
X100832202Y-75398163D01*
X100830667Y-75381957D01*
X100827907Y-75366809D01*
X100823760Y-75352894D01*
X100818061Y-75340386D01*
X100810647Y-75329458D01*
X100801355Y-75320284D01*
X100790019Y-75313039D01*
X100776478Y-75307895D01*
X100760566Y-75305027D01*
X100748561Y-75304466D01*
X100736265Y-75305008D01*
X100720057Y-75307786D01*
X100706360Y-75312791D01*
X100694986Y-75319875D01*
X100685744Y-75328890D01*
X100678444Y-75339688D01*
X100672898Y-75352122D01*
X100668914Y-75366043D01*
X100666304Y-75381304D01*
X100664877Y-75397757D01*
X100664443Y-75415254D01*
X100664443Y-75719483D01*
X100514381Y-75719483D01*
X100502201Y-75719668D01*
X100484892Y-75720727D01*
X100468851Y-75722895D01*
X100454208Y-75726365D01*
X100441096Y-75731331D01*
X100429642Y-75737984D01*
X100419979Y-75746517D01*
X100412236Y-75757123D01*
X100406544Y-75769995D01*
X100403033Y-75785326D01*
X100401968Y-75797007D01*
X100401833Y-75803307D01*
X100402444Y-75815892D01*
X100405541Y-75832398D01*
X100411052Y-75846250D01*
X100418746Y-75857663D01*
X100428393Y-75866854D01*
X100439762Y-75874039D01*
X100452624Y-75879434D01*
X100466746Y-75883254D01*
X100481900Y-75885715D01*
X100497855Y-75887033D01*
X100514381Y-75887424D01*
X100664443Y-75887424D01*
X100664443Y-75946336D01*
X100664631Y-75958351D01*
X100665706Y-75975416D01*
X100667901Y-75991220D01*
X100671406Y-76005637D01*
X100676410Y-76018540D01*
X100683104Y-76029805D01*
X100691677Y-76039304D01*
X100702320Y-76046911D01*
X100715221Y-76052501D01*
X100730572Y-76055948D01*
X100742259Y-76056992D01*
X100748561Y-76057124D01*
X100760566Y-76056563D01*
X100776478Y-76053695D01*
X100790019Y-76048551D01*
X100801355Y-76041306D01*
X100810647Y-76032132D01*
X100818061Y-76021204D01*
X100823760Y-76008696D01*
X100827907Y-75994781D01*
X100830667Y-75979633D01*
X100832202Y-75963427D01*
X100832678Y-75946336D01*
X100832678Y-75887424D01*
X101184681Y-75887424D01*
X101197770Y-75887076D01*
X101210545Y-75886038D01*
X101223000Y-75884318D01*
X101235127Y-75881925D01*
X101246920Y-75878868D01*
X101258372Y-75875154D01*
X101269477Y-75870794D01*
X101280228Y-75865795D01*
X101290619Y-75860167D01*
X101300642Y-75853917D01*
X101310291Y-75847054D01*
X101319560Y-75839588D01*
X101328441Y-75831527D01*
X101336929Y-75822878D01*
X101345016Y-75813652D01*
X101352695Y-75803857D01*
X101359961Y-75793501D01*
X101366806Y-75782592D01*
X101373224Y-75771141D01*
X101379209Y-75759154D01*
X101384752Y-75746641D01*
X101389849Y-75733611D01*
X101394492Y-75720072D01*
X101398674Y-75706033D01*
X101402389Y-75691502D01*
X101405631Y-75676488D01*
X101408392Y-75661000D01*
X101410666Y-75645046D01*
X101412446Y-75628636D01*
X101413726Y-75611777D01*
X101414498Y-75594478D01*
X101414757Y-75576748D01*
X101414591Y-75564396D01*
X101414094Y-75551347D01*
X101413269Y-75537674D01*
X101412117Y-75523447D01*
X101410642Y-75508738D01*
X101408845Y-75493619D01*
X101406730Y-75478160D01*
X101404298Y-75462433D01*
X101401551Y-75446509D01*
X101398493Y-75430460D01*
X101395125Y-75414357D01*
X101391450Y-75398272D01*
X101387470Y-75382276D01*
X101383187Y-75366439D01*
X101378605Y-75350835D01*
X101373725Y-75335533D01*
X101368549Y-75320606D01*
X101363080Y-75306125D01*
X101357321Y-75292160D01*
X101351273Y-75278785D01*
X101344940Y-75266069D01*
X101338323Y-75254084D01*
X101331424Y-75242902D01*
X101324247Y-75232594D01*
X101316793Y-75223232D01*
X101301066Y-75207628D01*
X101284261Y-75196663D01*
X101266397Y-75190906D01*
X101257074Y-75190160D01*
X101244305Y-75191067D01*
X101232142Y-75193705D01*
X101220727Y-75197952D01*
X101210201Y-75203684D01*
X101200707Y-75210778D01*
X101192387Y-75219111D01*
X101185382Y-75228560D01*
X101179835Y-75239001D01*
X101175888Y-75250312D01*
X101173683Y-75262368D01*
X101173250Y-75270760D01*
X101175069Y-75287308D01*
X101180039Y-75304286D01*
X101184745Y-75316194D01*
X101190312Y-75328818D01*
X101196527Y-75342368D01*
X101203172Y-75357054D01*
X101210033Y-75373086D01*
X101216894Y-75390674D01*
X101223539Y-75410027D01*
X101229754Y-75431357D01*
X101232632Y-75442828D01*
X101235321Y-75454872D01*
X101237795Y-75467515D01*
X101240027Y-75480783D01*
X101241989Y-75494702D01*
X101243655Y-75509299D01*
X101244997Y-75524600D01*
X101245990Y-75540631D01*
X101246605Y-75557419D01*
X101246816Y-75574989D01*
X101246452Y-75597091D01*
X101245360Y-75616877D01*
X101243539Y-75634470D01*
X101240991Y-75649993D01*
X101237714Y-75663568D01*
X101233709Y-75675319D01*
X101226337Y-75689792D01*
X101217326Y-75700851D01*
X101206677Y-75708909D01*
X101194389Y-75714381D01*
X101180463Y-75717682D01*
X101164899Y-75719226D01*
X101153613Y-75719483D01*
G37*
G36*
X100645685Y-74324368D02*
G01*
X100646033Y-74339564D01*
X100647117Y-74354464D01*
X100649001Y-74369199D01*
X100651749Y-74383898D01*
X100655424Y-74398691D01*
X100660090Y-74413709D01*
X100665811Y-74429081D01*
X100672650Y-74444938D01*
X100680670Y-74461410D01*
X100689935Y-74478627D01*
X100700509Y-74496719D01*
X100712455Y-74515816D01*
X100718963Y-74525782D01*
X100725837Y-74536048D01*
X100733086Y-74546631D01*
X100740718Y-74557546D01*
X100748741Y-74568809D01*
X100757162Y-74580438D01*
X100765990Y-74592449D01*
X100775232Y-74604856D01*
X100664443Y-74604856D01*
X100664443Y-74831709D01*
X100664815Y-74845125D01*
X100665918Y-74857675D01*
X100667735Y-74869360D01*
X100671764Y-74885264D01*
X100677303Y-74899221D01*
X100684295Y-74911230D01*
X100692681Y-74921292D01*
X100702405Y-74929407D01*
X100713408Y-74935573D01*
X100725632Y-74939793D01*
X100739018Y-74942065D01*
X100748561Y-74942498D01*
X100765399Y-74941321D01*
X100780050Y-74937874D01*
X100792629Y-74932284D01*
X100803254Y-74924677D01*
X100812040Y-74915178D01*
X100819102Y-74903914D01*
X100824556Y-74891010D01*
X100828520Y-74876593D01*
X100831107Y-74860789D01*
X100832435Y-74843724D01*
X100832678Y-74831709D01*
X100832678Y-74772798D01*
X101228058Y-74772798D01*
X101228058Y-74870397D01*
X101228246Y-74882412D01*
X101229321Y-74899477D01*
X101231516Y-74915281D01*
X101235020Y-74929698D01*
X101240025Y-74942602D01*
X101246719Y-74953866D01*
X101255292Y-74963365D01*
X101265935Y-74970973D01*
X101278836Y-74976563D01*
X101294186Y-74980009D01*
X101305874Y-74981054D01*
X101312175Y-74981186D01*
X101329006Y-74979967D01*
X101343637Y-74976412D01*
X101356188Y-74970673D01*
X101366776Y-74962901D01*
X101375522Y-74953250D01*
X101382543Y-74941872D01*
X101387958Y-74928917D01*
X101391887Y-74914540D01*
X101394448Y-74898891D01*
X101395760Y-74882123D01*
X101396000Y-74870397D01*
X101396000Y-74371263D01*
X101395531Y-74354128D01*
X101394015Y-74337803D01*
X101391285Y-74322479D01*
X101387174Y-74308346D01*
X101381516Y-74295597D01*
X101374143Y-74284423D01*
X101364889Y-74275015D01*
X101353588Y-74267563D01*
X101340073Y-74262260D01*
X101324177Y-74259297D01*
X101312175Y-74258715D01*
X101299880Y-74259277D01*
X101283671Y-74262151D01*
X101269975Y-74267316D01*
X101258600Y-74274605D01*
X101249358Y-74283855D01*
X101242059Y-74294900D01*
X101236513Y-74307574D01*
X101232529Y-74321712D01*
X101229919Y-74337150D01*
X101228492Y-74353722D01*
X101228058Y-74371263D01*
X101228058Y-74604856D01*
X100982741Y-74604856D01*
X100970910Y-74590159D01*
X100959593Y-74576008D01*
X100948779Y-74562388D01*
X100938461Y-74549281D01*
X100928629Y-74536674D01*
X100919273Y-74524550D01*
X100910386Y-74512893D01*
X100901957Y-74501688D01*
X100893979Y-74490920D01*
X100886441Y-74480572D01*
X100879336Y-74470628D01*
X100866384Y-74451894D01*
X100855052Y-74434591D01*
X100845267Y-74418594D01*
X100836957Y-74403778D01*
X100830050Y-74390017D01*
X100824474Y-74377185D01*
X100820158Y-74365159D01*
X100817027Y-74353812D01*
X100814399Y-74337790D01*
X100813920Y-74327592D01*
X100815398Y-74312882D01*
X100819438Y-74299678D01*
X100825448Y-74287634D01*
X100832838Y-74276402D01*
X100841016Y-74265633D01*
X100849391Y-74254980D01*
X100857373Y-74244095D01*
X100864368Y-74232630D01*
X100869788Y-74220239D01*
X100873039Y-74206572D01*
X100873711Y-74196580D01*
X100872730Y-74184007D01*
X100869885Y-74171948D01*
X100865321Y-74160560D01*
X100859182Y-74150001D01*
X100851613Y-74140429D01*
X100842760Y-74132003D01*
X100832767Y-74124880D01*
X100821778Y-74119218D01*
X100809940Y-74115175D01*
X100797397Y-74112908D01*
X100788714Y-74112463D01*
X100774357Y-74113880D01*
X100760353Y-74117974D01*
X100746782Y-74124509D01*
X100733723Y-74133249D01*
X100721254Y-74143960D01*
X100709456Y-74156404D01*
X100698406Y-74170347D01*
X100688184Y-74185553D01*
X100678868Y-74201785D01*
X100670539Y-74218809D01*
X100663274Y-74236388D01*
X100657153Y-74254287D01*
X100652254Y-74272270D01*
X100648658Y-74290102D01*
X100646442Y-74307546D01*
X100645685Y-74324368D01*
G37*
G36*
X101049968Y-73127939D02*
G01*
X101069461Y-73129591D01*
X101088674Y-73132313D01*
X101107584Y-73136079D01*
X101126167Y-73140864D01*
X101144397Y-73146641D01*
X101162250Y-73153385D01*
X101179703Y-73161070D01*
X101196730Y-73169670D01*
X101213307Y-73179160D01*
X101229409Y-73189514D01*
X101245013Y-73200706D01*
X101260094Y-73212710D01*
X101274628Y-73225501D01*
X101288589Y-73239052D01*
X101301954Y-73253339D01*
X101314698Y-73268334D01*
X101326797Y-73284014D01*
X101338226Y-73300351D01*
X101348961Y-73317320D01*
X101358978Y-73334895D01*
X101368252Y-73353050D01*
X101376758Y-73371761D01*
X101384473Y-73391000D01*
X101391371Y-73410742D01*
X101397429Y-73430962D01*
X101402622Y-73451634D01*
X101406926Y-73472731D01*
X101410315Y-73494229D01*
X101412767Y-73516101D01*
X101414256Y-73538321D01*
X101414757Y-73560865D01*
X101414256Y-73583382D01*
X101412767Y-73605581D01*
X101410315Y-73627433D01*
X101406926Y-73648914D01*
X101402622Y-73669998D01*
X101397429Y-73690658D01*
X101391371Y-73710870D01*
X101384473Y-73730606D01*
X101376758Y-73749841D01*
X101368252Y-73768549D01*
X101358978Y-73786705D01*
X101348961Y-73804281D01*
X101338226Y-73821253D01*
X101326797Y-73837594D01*
X101314698Y-73853279D01*
X101301954Y-73868281D01*
X101288589Y-73882575D01*
X101274628Y-73896134D01*
X101260094Y-73908933D01*
X101245013Y-73920947D01*
X101229409Y-73932147D01*
X101213307Y-73942510D01*
X101196730Y-73952009D01*
X101179703Y-73960619D01*
X101162250Y-73968312D01*
X101144397Y-73975064D01*
X101126167Y-73980848D01*
X101107584Y-73985638D01*
X101088674Y-73989410D01*
X101069461Y-73992135D01*
X101049968Y-73993790D01*
X101030221Y-73994347D01*
X101010217Y-73993795D01*
X100990499Y-73992153D01*
X100971092Y-73989447D01*
X100952017Y-73985701D01*
X100933298Y-73980938D01*
X100914958Y-73975182D01*
X100897019Y-73968457D01*
X100879504Y-73960788D01*
X100862436Y-73952199D01*
X100845838Y-73942713D01*
X100829732Y-73932354D01*
X100814141Y-73921147D01*
X100799089Y-73909116D01*
X100784598Y-73896285D01*
X100770691Y-73882677D01*
X100757390Y-73868318D01*
X100744719Y-73853230D01*
X100732699Y-73837438D01*
X100721355Y-73820966D01*
X100710709Y-73803838D01*
X100700783Y-73786078D01*
X100691601Y-73767710D01*
X100683185Y-73748758D01*
X100675558Y-73729246D01*
X100668743Y-73709198D01*
X100662762Y-73688639D01*
X100657639Y-73667592D01*
X100653397Y-73646081D01*
X100650057Y-73624131D01*
X100647644Y-73601765D01*
X100646179Y-73579007D01*
X100645716Y-73557348D01*
X100813920Y-73557348D01*
X100814189Y-73571579D01*
X100814990Y-73585579D01*
X100816311Y-73599331D01*
X100818141Y-73612822D01*
X100820469Y-73626038D01*
X100823282Y-73638963D01*
X100826571Y-73651584D01*
X100830324Y-73663886D01*
X100834529Y-73675856D01*
X100839175Y-73687477D01*
X100844252Y-73698737D01*
X100849747Y-73709620D01*
X100855649Y-73720113D01*
X100861948Y-73730200D01*
X100875689Y-73749103D01*
X100890879Y-73766212D01*
X100907429Y-73781414D01*
X100925247Y-73794592D01*
X100944245Y-73805633D01*
X100964331Y-73814420D01*
X100985416Y-73820839D01*
X101007410Y-73824775D01*
X101030221Y-73826113D01*
X101052795Y-73824776D01*
X101074618Y-73820846D01*
X101095594Y-73814443D01*
X101115626Y-73805688D01*
X101134614Y-73794700D01*
X101152463Y-73781599D01*
X101169074Y-73766507D01*
X101184351Y-73749542D01*
X101198195Y-73730826D01*
X101204550Y-73720849D01*
X101210510Y-73710479D01*
X101216063Y-73699731D01*
X101221197Y-73688620D01*
X101225900Y-73677162D01*
X101230160Y-73665370D01*
X101233964Y-73653261D01*
X101237301Y-73640850D01*
X101240158Y-73628150D01*
X101242522Y-73615178D01*
X101244382Y-73601949D01*
X101245726Y-73588477D01*
X101246542Y-73574777D01*
X101246816Y-73560865D01*
X101246542Y-73546952D01*
X101245726Y-73533250D01*
X101244382Y-73519774D01*
X101242522Y-73506539D01*
X101240158Y-73493560D01*
X101237301Y-73480853D01*
X101233964Y-73468432D01*
X101230160Y-73456314D01*
X101225900Y-73444512D01*
X101221197Y-73433042D01*
X101216063Y-73421919D01*
X101210510Y-73411158D01*
X101204550Y-73400775D01*
X101198195Y-73390784D01*
X101184351Y-73372041D01*
X101169074Y-73355049D01*
X101152463Y-73339930D01*
X101134614Y-73326805D01*
X101115626Y-73315795D01*
X101095594Y-73307020D01*
X101074618Y-73300603D01*
X101052795Y-73296664D01*
X101030221Y-73295324D01*
X101007941Y-73296663D01*
X100986342Y-73300596D01*
X100965528Y-73306997D01*
X100945605Y-73315740D01*
X100926676Y-73326698D01*
X100908846Y-73339745D01*
X100892218Y-73354754D01*
X100876898Y-73371601D01*
X100862990Y-73390158D01*
X100856597Y-73400039D01*
X100850597Y-73410299D01*
X100845002Y-73420925D01*
X100839825Y-73431899D01*
X100835079Y-73443206D01*
X100830777Y-73454830D01*
X100826933Y-73466755D01*
X100823559Y-73478967D01*
X100820668Y-73491448D01*
X100818273Y-73504183D01*
X100816388Y-73517156D01*
X100815026Y-73530352D01*
X100814199Y-73543754D01*
X100813920Y-73557348D01*
X100645716Y-73557348D01*
X100645685Y-73555882D01*
X100646193Y-73533792D01*
X100647698Y-73511995D01*
X100650176Y-73490520D01*
X100653601Y-73469393D01*
X100657947Y-73448641D01*
X100663189Y-73428290D01*
X100669302Y-73408367D01*
X100676259Y-73388898D01*
X100684035Y-73369911D01*
X100692604Y-73351431D01*
X100701942Y-73333487D01*
X100712023Y-73316103D01*
X100722820Y-73299308D01*
X100734309Y-73283127D01*
X100746463Y-73267587D01*
X100759258Y-73252716D01*
X100772668Y-73238539D01*
X100786667Y-73225083D01*
X100801230Y-73212376D01*
X100816331Y-73200443D01*
X100831945Y-73189312D01*
X100848045Y-73179008D01*
X100864608Y-73169559D01*
X100881606Y-73160992D01*
X100899014Y-73153333D01*
X100916808Y-73146608D01*
X100934961Y-73140845D01*
X100953447Y-73136069D01*
X100972242Y-73132309D01*
X100991320Y-73129590D01*
X101010655Y-73127939D01*
X101030221Y-73127383D01*
X101049968Y-73127939D01*
G37*
G36*
X100430556Y-72881479D02*
G01*
X100442848Y-72880898D01*
X100459041Y-72877934D01*
X100472711Y-72872631D01*
X100484051Y-72865180D01*
X100493254Y-72855771D01*
X100500512Y-72844597D01*
X100506019Y-72831848D01*
X100509966Y-72817716D01*
X100512547Y-72802391D01*
X100513954Y-72786066D01*
X100514381Y-72768932D01*
X100514381Y-72637627D01*
X101228058Y-72637627D01*
X101228058Y-72842791D01*
X101228246Y-72854806D01*
X101229321Y-72871871D01*
X101231516Y-72887675D01*
X101235020Y-72902092D01*
X101240025Y-72914995D01*
X101246719Y-72926260D01*
X101255292Y-72935759D01*
X101265935Y-72943366D01*
X101278836Y-72948956D01*
X101294186Y-72952403D01*
X101305874Y-72953447D01*
X101312175Y-72953579D01*
X101325875Y-72952678D01*
X101340111Y-72949499D01*
X101354154Y-72943332D01*
X101364122Y-72936318D01*
X101373265Y-72926924D01*
X101381276Y-72914848D01*
X101387848Y-72899793D01*
X101391278Y-72887951D01*
X101393840Y-72874563D01*
X101395445Y-72859539D01*
X101396000Y-72842791D01*
X101396000Y-72264815D01*
X101395760Y-72252748D01*
X101394448Y-72235617D01*
X101391887Y-72219761D01*
X101387958Y-72205303D01*
X101382543Y-72192369D01*
X101375522Y-72181083D01*
X101366776Y-72171569D01*
X101356188Y-72163953D01*
X101343637Y-72158358D01*
X101329006Y-72154910D01*
X101312175Y-72153733D01*
X101299590Y-72154333D01*
X101283085Y-72157381D01*
X101269233Y-72162805D01*
X101257819Y-72170382D01*
X101248628Y-72179886D01*
X101241443Y-72191093D01*
X101236049Y-72203779D01*
X101232229Y-72217718D01*
X101229768Y-72232687D01*
X101228450Y-72248461D01*
X101228058Y-72264815D01*
X101228058Y-72469685D01*
X100346439Y-72469685D01*
X100346439Y-72768932D01*
X100346608Y-72780967D01*
X100347593Y-72798127D01*
X100349649Y-72814091D01*
X100352992Y-72828713D01*
X100357838Y-72841852D01*
X100364402Y-72853362D01*
X100372900Y-72863102D01*
X100383549Y-72870927D01*
X100396564Y-72876693D01*
X100412161Y-72880259D01*
X100424100Y-72881342D01*
X100430556Y-72881479D01*
G37*
G36*
X101040320Y-71078298D02*
G01*
X101058897Y-71079797D01*
X101077141Y-71082269D01*
X101095033Y-71085693D01*
X101112555Y-71090051D01*
X101129688Y-71095319D01*
X101146414Y-71101479D01*
X101162712Y-71108509D01*
X101178566Y-71116389D01*
X101193956Y-71125098D01*
X101208863Y-71134615D01*
X101223268Y-71144920D01*
X101237154Y-71155991D01*
X101250501Y-71167810D01*
X101263290Y-71180353D01*
X101275502Y-71193602D01*
X101287120Y-71207535D01*
X101298124Y-71222132D01*
X101308495Y-71237372D01*
X101318215Y-71253234D01*
X101327265Y-71269698D01*
X101335627Y-71286743D01*
X101343281Y-71304349D01*
X101350209Y-71322494D01*
X101356391Y-71341158D01*
X101361811Y-71360320D01*
X101366448Y-71379961D01*
X101370284Y-71400058D01*
X101373300Y-71420592D01*
X101375477Y-71441541D01*
X101376797Y-71462886D01*
X101377242Y-71484605D01*
X101376926Y-71502894D01*
X101375964Y-71520649D01*
X101374336Y-71537926D01*
X101372021Y-71554782D01*
X101368998Y-71571275D01*
X101365248Y-71587460D01*
X101360748Y-71603394D01*
X101355480Y-71619134D01*
X101349421Y-71634737D01*
X101342552Y-71650259D01*
X101334851Y-71665757D01*
X101326299Y-71681288D01*
X101316874Y-71696908D01*
X101306556Y-71712674D01*
X101295325Y-71728642D01*
X101283159Y-71744870D01*
X101564820Y-71744870D01*
X101564820Y-71647564D01*
X101564866Y-71641314D01*
X101565254Y-71629247D01*
X101566681Y-71612281D01*
X101569291Y-71596763D01*
X101573275Y-71582793D01*
X101578821Y-71570469D01*
X101586120Y-71559890D01*
X101595362Y-71551154D01*
X101606737Y-71544359D01*
X101620433Y-71539605D01*
X101636642Y-71536989D01*
X101648937Y-71536482D01*
X101660943Y-71537063D01*
X101676854Y-71540021D01*
X101690396Y-71545307D01*
X101701731Y-71552722D01*
X101711024Y-71562067D01*
X101718438Y-71573145D01*
X101724137Y-71585756D01*
X101728284Y-71599701D01*
X101731043Y-71614784D01*
X101732579Y-71630804D01*
X101733055Y-71647564D01*
X101733055Y-71939776D01*
X101732621Y-71956867D01*
X101731194Y-71973074D01*
X101728584Y-71988221D01*
X101724600Y-72002136D01*
X101719054Y-72014644D01*
X101711754Y-72025572D01*
X101702512Y-72034746D01*
X101691138Y-72041992D01*
X101677441Y-72047135D01*
X101661233Y-72050003D01*
X101648937Y-72050565D01*
X101636642Y-72050003D01*
X101620433Y-72047135D01*
X101606737Y-72041992D01*
X101595362Y-72034746D01*
X101586120Y-72025572D01*
X101578821Y-72014644D01*
X101573275Y-72002136D01*
X101569291Y-71988221D01*
X101566681Y-71973074D01*
X101565254Y-71956867D01*
X101564820Y-71939776D01*
X101564820Y-71912812D01*
X100832678Y-71912812D01*
X100832678Y-71939776D01*
X100832244Y-71957274D01*
X100830817Y-71973727D01*
X100828207Y-71988988D01*
X100824223Y-72002909D01*
X100818677Y-72015342D01*
X100811378Y-72026140D01*
X100802136Y-72035155D01*
X100790761Y-72042239D01*
X100777064Y-72047244D01*
X100760856Y-72050022D01*
X100748561Y-72050565D01*
X100736265Y-72050003D01*
X100720057Y-72047135D01*
X100706360Y-72041992D01*
X100694986Y-72034746D01*
X100685744Y-72025572D01*
X100678444Y-72014644D01*
X100672898Y-72002136D01*
X100668914Y-71988221D01*
X100666304Y-71973074D01*
X100664877Y-71956867D01*
X100664443Y-71939776D01*
X100664443Y-71744870D01*
X100743285Y-71744870D01*
X100730549Y-71729558D01*
X100718811Y-71714459D01*
X100708048Y-71699508D01*
X100698236Y-71684636D01*
X100689349Y-71669775D01*
X100681363Y-71654860D01*
X100674254Y-71639822D01*
X100667997Y-71624593D01*
X100662568Y-71609107D01*
X100657942Y-71593296D01*
X100654095Y-71577092D01*
X100651002Y-71560429D01*
X100648640Y-71543238D01*
X100646982Y-71525453D01*
X100646006Y-71507006D01*
X100645798Y-71494570D01*
X100813920Y-71494570D01*
X100814174Y-71508749D01*
X100814927Y-71522594D01*
X100816167Y-71536097D01*
X100817882Y-71549251D01*
X100820060Y-71562049D01*
X100822687Y-71574482D01*
X100825753Y-71586543D01*
X100829243Y-71598224D01*
X100837451Y-71620417D01*
X100847212Y-71641000D01*
X100858428Y-71659913D01*
X100871000Y-71677093D01*
X100884828Y-71692480D01*
X100899815Y-71706014D01*
X100915862Y-71717633D01*
X100932869Y-71727276D01*
X100950739Y-71734882D01*
X100969372Y-71740390D01*
X100988669Y-71743740D01*
X101008533Y-71744870D01*
X101019475Y-71744572D01*
X101040711Y-71742220D01*
X101061024Y-71737594D01*
X101080344Y-71730778D01*
X101098600Y-71721855D01*
X101115721Y-71710907D01*
X101131638Y-71698018D01*
X101146279Y-71683270D01*
X101159575Y-71666746D01*
X101171456Y-71648528D01*
X101181849Y-71628701D01*
X101190686Y-71607346D01*
X101194499Y-71596122D01*
X101197896Y-71584547D01*
X101200869Y-71572631D01*
X101203409Y-71560386D01*
X101205506Y-71547821D01*
X101207153Y-71534946D01*
X101208340Y-71521773D01*
X101209059Y-71508311D01*
X101209300Y-71494570D01*
X101209059Y-71481144D01*
X101208340Y-71467967D01*
X101207154Y-71455050D01*
X101205510Y-71442405D01*
X101203415Y-71430044D01*
X101200881Y-71417978D01*
X101197915Y-71406218D01*
X101194527Y-71394777D01*
X101186521Y-71372898D01*
X101176935Y-71352432D01*
X101165844Y-71333473D01*
X101153320Y-71316114D01*
X101139435Y-71300449D01*
X101124264Y-71286570D01*
X101107878Y-71274571D01*
X101090351Y-71264544D01*
X101071756Y-71256583D01*
X101052165Y-71250782D01*
X101031653Y-71247233D01*
X101010677Y-71246050D01*
X101001046Y-71246318D01*
X100980719Y-71248601D01*
X100961140Y-71253099D01*
X100942396Y-71259741D01*
X100924573Y-71268455D01*
X100907760Y-71279170D01*
X100892041Y-71291815D01*
X100877504Y-71306319D01*
X100864236Y-71322610D01*
X100852324Y-71340617D01*
X100841854Y-71360269D01*
X100832912Y-71381495D01*
X100829042Y-71392675D01*
X100825586Y-71404222D01*
X100822556Y-71416127D01*
X100819962Y-71428381D01*
X100817816Y-71440975D01*
X100816128Y-71453899D01*
X100814908Y-71467146D01*
X100814169Y-71480706D01*
X100813920Y-71494570D01*
X100645798Y-71494570D01*
X100645685Y-71487829D01*
X100646160Y-71465972D01*
X100647571Y-71444488D01*
X100649896Y-71423398D01*
X100653115Y-71402723D01*
X100657207Y-71382484D01*
X100662152Y-71362703D01*
X100667928Y-71343399D01*
X100674514Y-71324596D01*
X100681889Y-71306312D01*
X100690034Y-71288570D01*
X100698926Y-71271390D01*
X100708545Y-71254794D01*
X100718870Y-71238802D01*
X100729880Y-71223436D01*
X100741555Y-71208717D01*
X100753873Y-71194665D01*
X100766813Y-71181301D01*
X100780355Y-71168648D01*
X100794478Y-71156725D01*
X100809161Y-71145553D01*
X100824383Y-71135155D01*
X100840123Y-71125550D01*
X100856360Y-71116761D01*
X100873074Y-71108807D01*
X100890243Y-71101710D01*
X100907847Y-71095491D01*
X100925865Y-71090172D01*
X100944275Y-71085772D01*
X100963058Y-71082313D01*
X100982191Y-71079817D01*
X101001655Y-71078303D01*
X101021429Y-71077794D01*
X101040320Y-71078298D01*
G37*
G36*
X101195525Y-70973161D02*
G01*
X101189370Y-70973161D01*
X101191339Y-70973025D01*
X101195525Y-70973161D01*
G37*
G36*
X101324177Y-70084779D02*
G01*
X101340073Y-70087663D01*
X101353588Y-70092833D01*
X101364889Y-70100113D01*
X101374143Y-70109326D01*
X101381516Y-70120295D01*
X101387174Y-70132844D01*
X101391285Y-70146795D01*
X101394015Y-70161972D01*
X101395531Y-70178198D01*
X101396000Y-70195296D01*
X101396000Y-70391667D01*
X101349398Y-70391667D01*
X101357039Y-70406995D01*
X101364240Y-70422734D01*
X101370993Y-70438858D01*
X101377292Y-70455337D01*
X101383129Y-70472144D01*
X101388496Y-70489251D01*
X101393388Y-70506631D01*
X101397795Y-70524255D01*
X101401711Y-70542095D01*
X101405128Y-70560123D01*
X101408040Y-70578313D01*
X101410439Y-70596634D01*
X101412317Y-70615061D01*
X101413668Y-70633564D01*
X101414484Y-70652117D01*
X101414757Y-70670690D01*
X101414460Y-70686179D01*
X101413579Y-70701473D01*
X101412127Y-70716553D01*
X101410122Y-70731400D01*
X101407576Y-70745993D01*
X101404506Y-70760314D01*
X101400926Y-70774343D01*
X101396851Y-70788060D01*
X101392296Y-70801446D01*
X101387276Y-70814482D01*
X101381806Y-70827147D01*
X101375901Y-70839423D01*
X101369575Y-70851291D01*
X101362844Y-70862730D01*
X101355723Y-70873721D01*
X101348226Y-70884244D01*
X101340368Y-70894281D01*
X101332164Y-70903811D01*
X101323630Y-70912816D01*
X101314780Y-70921275D01*
X101305629Y-70929169D01*
X101296192Y-70936480D01*
X101276519Y-70949269D01*
X101255881Y-70959488D01*
X101234397Y-70966980D01*
X101212187Y-70971590D01*
X101191339Y-70973025D01*
X101181576Y-70972709D01*
X101167715Y-70971361D01*
X101153965Y-70969128D01*
X101140351Y-70966019D01*
X101126895Y-70962045D01*
X101113620Y-70957218D01*
X101100551Y-70951547D01*
X101087709Y-70945042D01*
X101075118Y-70937715D01*
X101062801Y-70929576D01*
X101050782Y-70920636D01*
X101039085Y-70910904D01*
X101027731Y-70900392D01*
X101016744Y-70889110D01*
X101006148Y-70877068D01*
X100995966Y-70864277D01*
X100986221Y-70850748D01*
X100976937Y-70836491D01*
X100968136Y-70821517D01*
X100959841Y-70805835D01*
X100952077Y-70789458D01*
X100944866Y-70772394D01*
X100938231Y-70754655D01*
X100932196Y-70736251D01*
X100926784Y-70717193D01*
X100922018Y-70697491D01*
X100917922Y-70677156D01*
X100914518Y-70656198D01*
X100911831Y-70634628D01*
X100909882Y-70612456D01*
X100908696Y-70589693D01*
X100908471Y-70576608D01*
X101063048Y-70576608D01*
X101063214Y-70587291D01*
X101064519Y-70608409D01*
X101067055Y-70629080D01*
X101070745Y-70649167D01*
X101075513Y-70668533D01*
X101081281Y-70687040D01*
X101087973Y-70704551D01*
X101095511Y-70720928D01*
X101103820Y-70736035D01*
X101112822Y-70749734D01*
X101122440Y-70761887D01*
X101132598Y-70772357D01*
X101143218Y-70781006D01*
X101154224Y-70787698D01*
X101165539Y-70792295D01*
X101182922Y-70794961D01*
X101186277Y-70794800D01*
X101199145Y-70791050D01*
X101210955Y-70782670D01*
X101218981Y-70773616D01*
X101226186Y-70762401D01*
X101232472Y-70749213D01*
X101237743Y-70734243D01*
X101241902Y-70717681D01*
X101244009Y-70705849D01*
X101245549Y-70693449D01*
X101246494Y-70680538D01*
X101246816Y-70667173D01*
X101246491Y-70650152D01*
X101245520Y-70633057D01*
X101243910Y-70615894D01*
X101241669Y-70598672D01*
X101238802Y-70581399D01*
X101235317Y-70564082D01*
X101231220Y-70546729D01*
X101226519Y-70529347D01*
X101221221Y-70511945D01*
X101215332Y-70494530D01*
X101208858Y-70477110D01*
X101201808Y-70459692D01*
X101194188Y-70442285D01*
X101186004Y-70424895D01*
X101177264Y-70407532D01*
X101167974Y-70390202D01*
X101080926Y-70390202D01*
X101078842Y-70402728D01*
X101076876Y-70415138D01*
X101075032Y-70427430D01*
X101073310Y-70439606D01*
X101071715Y-70451665D01*
X101070246Y-70463608D01*
X101068907Y-70475433D01*
X101067147Y-70492952D01*
X101065691Y-70510209D01*
X101064545Y-70527203D01*
X101063718Y-70543934D01*
X101063216Y-70560402D01*
X101063048Y-70576608D01*
X100908471Y-70576608D01*
X100908295Y-70566350D01*
X100908435Y-70551288D01*
X100908860Y-70536214D01*
X100909573Y-70521038D01*
X100910583Y-70505670D01*
X100911894Y-70490019D01*
X100913512Y-70473996D01*
X100915443Y-70457512D01*
X100917693Y-70440476D01*
X100919372Y-70428768D01*
X100921198Y-70416748D01*
X100923172Y-70404390D01*
X100925295Y-70391667D01*
X100888658Y-70391667D01*
X100874828Y-70392966D01*
X100862497Y-70396891D01*
X100851636Y-70403491D01*
X100842213Y-70412811D01*
X100834199Y-70424898D01*
X100827563Y-70439797D01*
X100823889Y-70451316D01*
X100820805Y-70464119D01*
X100818303Y-70478221D01*
X100816372Y-70493635D01*
X100815004Y-70510374D01*
X100814189Y-70528453D01*
X100813920Y-70547885D01*
X100814020Y-70559134D01*
X100814782Y-70581041D01*
X100816208Y-70602158D01*
X100818197Y-70622486D01*
X100820645Y-70642026D01*
X100823450Y-70660778D01*
X100826512Y-70678742D01*
X100829726Y-70695919D01*
X100832992Y-70712309D01*
X100836206Y-70727913D01*
X100839267Y-70742731D01*
X100842073Y-70756764D01*
X100844521Y-70770012D01*
X100846509Y-70782474D01*
X100847936Y-70794153D01*
X100848798Y-70810202D01*
X100847932Y-70823070D01*
X100845394Y-70835216D01*
X100841273Y-70846522D01*
X100835660Y-70856869D01*
X100826010Y-70868967D01*
X100814079Y-70878867D01*
X100803762Y-70884679D01*
X100792372Y-70888979D01*
X100779999Y-70891645D01*
X100766732Y-70892561D01*
X100754092Y-70891765D01*
X100739832Y-70888540D01*
X100727278Y-70882848D01*
X100716422Y-70874705D01*
X100707258Y-70864122D01*
X100701140Y-70853908D01*
X100696097Y-70842149D01*
X100690846Y-70826493D01*
X100685769Y-70809944D01*
X100680888Y-70792624D01*
X100676227Y-70774655D01*
X100671807Y-70756161D01*
X100667653Y-70737264D01*
X100663786Y-70718088D01*
X100660230Y-70698754D01*
X100657007Y-70679386D01*
X100654140Y-70660106D01*
X100651651Y-70641037D01*
X100649564Y-70622303D01*
X100647901Y-70604025D01*
X100646686Y-70586327D01*
X100645939Y-70569331D01*
X100645685Y-70553161D01*
X100645956Y-70534031D01*
X100646762Y-70515390D01*
X100648098Y-70497245D01*
X100649956Y-70479604D01*
X100652330Y-70462476D01*
X100655214Y-70445867D01*
X100658601Y-70429786D01*
X100662483Y-70414240D01*
X100666855Y-70399237D01*
X100671710Y-70384785D01*
X100677041Y-70370892D01*
X100682842Y-70357565D01*
X100689105Y-70344813D01*
X100695824Y-70332642D01*
X100702993Y-70321061D01*
X100710605Y-70310078D01*
X100718653Y-70299700D01*
X100727131Y-70289935D01*
X100736031Y-70280792D01*
X100745348Y-70272277D01*
X100755074Y-70264398D01*
X100765204Y-70257164D01*
X100775729Y-70250582D01*
X100786644Y-70244659D01*
X100797942Y-70239404D01*
X100809617Y-70234825D01*
X100821661Y-70230929D01*
X100834068Y-70227723D01*
X100846831Y-70225217D01*
X100859944Y-70223417D01*
X100873400Y-70222331D01*
X100887193Y-70221967D01*
X101228058Y-70221967D01*
X101228058Y-70195296D01*
X101228109Y-70189201D01*
X101228534Y-70177385D01*
X101230069Y-70160666D01*
X101232829Y-70145262D01*
X101236976Y-70131298D01*
X101242675Y-70118899D01*
X101250089Y-70108190D01*
X101259381Y-70099295D01*
X101270717Y-70092339D01*
X101284258Y-70087446D01*
X101300170Y-70084741D01*
X101312175Y-70084214D01*
X101324177Y-70084779D01*
G37*
G36*
X101153613Y-69677110D02*
G01*
X100832678Y-69677110D01*
X100832678Y-69372882D01*
X100832202Y-69355790D01*
X100830667Y-69339584D01*
X100827907Y-69324437D01*
X100823760Y-69310522D01*
X100818061Y-69298013D01*
X100810647Y-69287085D01*
X100801355Y-69277912D01*
X100790019Y-69270666D01*
X100776478Y-69265522D01*
X100760566Y-69262655D01*
X100748561Y-69262093D01*
X100736265Y-69262635D01*
X100720057Y-69265414D01*
X100706360Y-69270419D01*
X100694986Y-69277502D01*
X100685744Y-69286517D01*
X100678444Y-69297315D01*
X100672898Y-69309749D01*
X100668914Y-69323670D01*
X100666304Y-69338931D01*
X100664877Y-69355384D01*
X100664443Y-69372882D01*
X100664443Y-69677110D01*
X100514381Y-69677110D01*
X100502201Y-69677295D01*
X100484892Y-69678354D01*
X100468851Y-69680522D01*
X100454208Y-69683993D01*
X100441096Y-69688958D01*
X100429642Y-69695611D01*
X100419979Y-69704144D01*
X100412236Y-69714750D01*
X100406544Y-69727622D01*
X100403033Y-69742953D01*
X100401968Y-69754634D01*
X100401833Y-69760935D01*
X100402444Y-69773520D01*
X100405541Y-69790025D01*
X100411052Y-69803877D01*
X100418746Y-69815291D01*
X100428393Y-69824482D01*
X100439762Y-69831667D01*
X100452624Y-69837061D01*
X100466746Y-69840881D01*
X100481900Y-69843342D01*
X100497855Y-69844660D01*
X100514381Y-69845052D01*
X100664443Y-69845052D01*
X100664443Y-69903963D01*
X100664631Y-69915978D01*
X100665706Y-69933043D01*
X100667901Y-69948847D01*
X100671406Y-69963264D01*
X100676410Y-69976168D01*
X100683104Y-69987432D01*
X100691677Y-69996931D01*
X100702320Y-70004538D01*
X100715221Y-70010128D01*
X100730572Y-70013575D01*
X100742259Y-70014619D01*
X100748561Y-70014752D01*
X100760566Y-70014190D01*
X100776478Y-70011322D01*
X100790019Y-70006179D01*
X100801355Y-69998933D01*
X100810647Y-69989759D01*
X100818061Y-69978831D01*
X100823760Y-69966323D01*
X100827907Y-69952408D01*
X100830667Y-69937261D01*
X100832202Y-69921054D01*
X100832678Y-69903963D01*
X100832678Y-69845052D01*
X101184681Y-69845052D01*
X101197770Y-69844704D01*
X101210545Y-69843665D01*
X101223000Y-69841945D01*
X101235127Y-69839552D01*
X101246920Y-69836495D01*
X101258372Y-69832782D01*
X101269477Y-69828421D01*
X101280228Y-69823423D01*
X101290619Y-69817794D01*
X101300642Y-69811544D01*
X101310291Y-69804682D01*
X101319560Y-69797216D01*
X101328441Y-69789154D01*
X101336929Y-69780506D01*
X101345016Y-69771280D01*
X101352695Y-69761484D01*
X101359961Y-69751128D01*
X101366806Y-69740220D01*
X101373224Y-69728768D01*
X101379209Y-69716781D01*
X101384752Y-69704269D01*
X101389849Y-69691239D01*
X101394492Y-69677700D01*
X101398674Y-69663660D01*
X101402389Y-69649129D01*
X101405631Y-69634116D01*
X101408392Y-69618628D01*
X101410666Y-69602674D01*
X101412446Y-69586263D01*
X101413726Y-69569404D01*
X101414498Y-69552105D01*
X101414757Y-69534375D01*
X101414591Y-69522023D01*
X101414094Y-69508975D01*
X101413269Y-69495301D01*
X101412117Y-69481075D01*
X101410642Y-69466366D01*
X101408845Y-69451246D01*
X101406730Y-69435787D01*
X101404298Y-69420060D01*
X101401551Y-69404136D01*
X101398493Y-69388088D01*
X101395125Y-69371985D01*
X101391450Y-69355899D01*
X101387470Y-69339903D01*
X101383187Y-69324067D01*
X101378605Y-69308462D01*
X101373725Y-69293161D01*
X101368549Y-69278234D01*
X101363080Y-69263752D01*
X101357321Y-69249788D01*
X101351273Y-69236412D01*
X101344940Y-69223696D01*
X101338323Y-69211711D01*
X101331424Y-69200529D01*
X101324247Y-69190221D01*
X101316793Y-69180859D01*
X101301066Y-69165255D01*
X101284261Y-69154290D01*
X101266397Y-69148534D01*
X101257074Y-69147787D01*
X101244305Y-69148694D01*
X101232142Y-69151333D01*
X101220727Y-69155579D01*
X101210201Y-69161311D01*
X101200707Y-69168405D01*
X101192387Y-69176738D01*
X101185382Y-69186187D01*
X101179835Y-69196628D01*
X101175888Y-69207939D01*
X101173683Y-69219996D01*
X101173250Y-69228387D01*
X101175069Y-69244935D01*
X101180039Y-69261913D01*
X101184745Y-69273821D01*
X101190312Y-69286445D01*
X101196527Y-69299995D01*
X101203172Y-69314681D01*
X101210033Y-69330713D01*
X101216894Y-69348301D01*
X101223539Y-69367655D01*
X101229754Y-69388984D01*
X101232632Y-69400455D01*
X101235321Y-69412499D01*
X101237795Y-69425142D01*
X101240027Y-69438410D01*
X101241989Y-69452330D01*
X101243655Y-69466927D01*
X101244997Y-69482228D01*
X101245990Y-69498259D01*
X101246605Y-69515046D01*
X101246816Y-69532616D01*
X101246452Y-69554718D01*
X101245360Y-69574504D01*
X101243539Y-69592097D01*
X101240991Y-69607620D01*
X101237714Y-69621196D01*
X101233709Y-69632946D01*
X101226337Y-69647420D01*
X101217326Y-69658478D01*
X101206677Y-69666537D01*
X101194389Y-69672009D01*
X101180463Y-69675309D01*
X101164899Y-69676853D01*
X101153613Y-69677110D01*
G37*
G36*
X100430556Y-69007690D02*
G01*
X100442848Y-69007144D01*
X100459041Y-69004351D01*
X100472711Y-68999323D01*
X100484051Y-68992212D01*
X100493254Y-68983171D01*
X100500512Y-68972351D01*
X100506019Y-68959905D01*
X100509966Y-68945985D01*
X100512547Y-68930743D01*
X100513954Y-68914331D01*
X100514381Y-68896901D01*
X100514381Y-68869937D01*
X101228058Y-68869937D01*
X101228058Y-68879902D01*
X101228492Y-68896662D01*
X101229919Y-68912682D01*
X101232529Y-68927764D01*
X101236513Y-68941710D01*
X101242059Y-68954321D01*
X101249358Y-68965399D01*
X101258600Y-68974744D01*
X101269975Y-68982159D01*
X101283671Y-68987444D01*
X101299880Y-68990402D01*
X101312175Y-68990983D01*
X101329006Y-68989764D01*
X101343637Y-68986208D01*
X101356188Y-68980464D01*
X101366776Y-68972684D01*
X101375522Y-68963018D01*
X101382543Y-68951617D01*
X101387958Y-68938632D01*
X101391887Y-68924214D01*
X101394448Y-68908512D01*
X101395760Y-68891679D01*
X101396000Y-68879902D01*
X101396000Y-68691737D01*
X101395573Y-68674603D01*
X101394166Y-68658277D01*
X101391585Y-68642953D01*
X101387638Y-68628821D01*
X101382131Y-68616072D01*
X101374873Y-68604898D01*
X101365670Y-68595489D01*
X101354330Y-68588038D01*
X101340660Y-68582735D01*
X101324467Y-68579771D01*
X101312175Y-68579190D01*
X101299880Y-68579752D01*
X101283671Y-68582626D01*
X101269975Y-68587790D01*
X101258600Y-68595080D01*
X101249358Y-68604330D01*
X101242059Y-68615374D01*
X101236513Y-68628048D01*
X101232529Y-68642187D01*
X101229919Y-68657624D01*
X101228492Y-68674196D01*
X101228058Y-68691737D01*
X101228058Y-68701995D01*
X100925002Y-68701995D01*
X100916663Y-68693180D01*
X100901201Y-68676510D01*
X100887295Y-68660999D01*
X100874871Y-68646498D01*
X100863853Y-68632860D01*
X100854166Y-68619936D01*
X100845735Y-68607578D01*
X100838485Y-68595638D01*
X100832340Y-68583967D01*
X100827227Y-68572419D01*
X100823068Y-68560844D01*
X100819791Y-68549094D01*
X100817318Y-68537022D01*
X100815575Y-68524479D01*
X100814488Y-68511317D01*
X100813980Y-68497389D01*
X100813920Y-68490090D01*
X100814093Y-68478140D01*
X100815449Y-68456177D01*
X100818095Y-68436678D01*
X100821961Y-68419501D01*
X100826976Y-68404503D01*
X100833071Y-68391540D01*
X100840175Y-68380470D01*
X100848219Y-68371150D01*
X100857132Y-68363437D01*
X100871980Y-68354567D01*
X100888391Y-68348508D01*
X100900083Y-68345792D01*
X100912295Y-68343968D01*
X100924956Y-68342893D01*
X100937998Y-68342424D01*
X100944639Y-68342372D01*
X101228058Y-68342372D01*
X101228058Y-68352337D01*
X101228450Y-68369133D01*
X101229768Y-68385253D01*
X101232229Y-68400482D01*
X101236049Y-68414609D01*
X101241443Y-68427421D01*
X101248628Y-68438703D01*
X101257819Y-68448244D01*
X101269233Y-68455831D01*
X101283085Y-68461249D01*
X101299590Y-68464287D01*
X101312175Y-68464884D01*
X101324177Y-68464287D01*
X101340073Y-68461249D01*
X101353588Y-68455831D01*
X101364889Y-68448244D01*
X101374143Y-68438703D01*
X101381516Y-68427421D01*
X101387174Y-68414609D01*
X101391285Y-68400482D01*
X101394015Y-68385253D01*
X101395531Y-68369133D01*
X101396000Y-68352337D01*
X101396000Y-68164173D01*
X101395531Y-68147081D01*
X101394015Y-68130875D01*
X101391285Y-68115728D01*
X101387174Y-68101813D01*
X101381516Y-68089304D01*
X101374143Y-68078376D01*
X101364889Y-68069203D01*
X101353588Y-68061957D01*
X101340073Y-68056813D01*
X101324177Y-68053946D01*
X101312175Y-68053384D01*
X101300170Y-68053910D01*
X101284258Y-68056614D01*
X101270717Y-68061504D01*
X101259381Y-68068453D01*
X101250089Y-68077335D01*
X101242675Y-68088025D01*
X101236976Y-68100396D01*
X101232829Y-68114322D01*
X101230069Y-68129678D01*
X101228534Y-68146337D01*
X101228109Y-68158104D01*
X101228058Y-68164173D01*
X101228058Y-68174431D01*
X100923243Y-68174431D01*
X100907800Y-68174778D01*
X100892692Y-68175814D01*
X100877928Y-68177526D01*
X100863520Y-68179904D01*
X100849477Y-68182936D01*
X100835810Y-68186612D01*
X100822528Y-68190920D01*
X100809643Y-68195849D01*
X100797163Y-68201389D01*
X100785100Y-68207527D01*
X100773464Y-68214253D01*
X100762264Y-68221556D01*
X100751511Y-68229425D01*
X100741215Y-68237848D01*
X100731387Y-68246814D01*
X100722036Y-68256313D01*
X100713173Y-68266333D01*
X100704807Y-68276863D01*
X100696950Y-68287893D01*
X100689611Y-68299410D01*
X100682801Y-68311403D01*
X100676529Y-68323863D01*
X100670807Y-68336777D01*
X100665643Y-68350134D01*
X100661049Y-68363924D01*
X100657034Y-68378135D01*
X100653609Y-68392757D01*
X100650784Y-68407777D01*
X100648568Y-68423185D01*
X100646974Y-68438970D01*
X100646009Y-68455120D01*
X100645685Y-68471625D01*
X100646081Y-68487865D01*
X100647268Y-68503836D01*
X100649250Y-68519542D01*
X100652028Y-68534988D01*
X100655605Y-68550181D01*
X100659982Y-68565124D01*
X100665163Y-68579823D01*
X100671148Y-68594284D01*
X100677940Y-68608511D01*
X100685542Y-68622510D01*
X100693955Y-68636286D01*
X100703182Y-68649843D01*
X100713224Y-68663188D01*
X100724085Y-68676325D01*
X100735765Y-68689259D01*
X100748267Y-68701995D01*
X100346439Y-68701995D01*
X100346439Y-68896901D01*
X100346873Y-68913992D01*
X100348300Y-68930198D01*
X100350910Y-68945346D01*
X100354894Y-68959261D01*
X100360440Y-68971769D01*
X100367739Y-68982697D01*
X100376981Y-68991871D01*
X100388356Y-68999117D01*
X100402052Y-69004260D01*
X100418261Y-69007128D01*
X100430556Y-69007690D01*
G37*
G36*
X100818903Y-67172351D02*
G01*
X100756767Y-67172351D01*
X100742768Y-67172647D01*
X100729779Y-67173539D01*
X100717783Y-67175031D01*
X100701623Y-67178404D01*
X100687617Y-67183155D01*
X100675717Y-67189298D01*
X100665874Y-67196851D01*
X100658039Y-67205828D01*
X100652161Y-67216246D01*
X100648192Y-67228121D01*
X100646083Y-67241468D01*
X100645685Y-67251193D01*
X100647005Y-67264374D01*
X100651172Y-67275778D01*
X100658500Y-67285729D01*
X100669302Y-67294552D01*
X100681183Y-67301277D01*
X100689649Y-67305122D01*
X100684132Y-67317420D01*
X100679009Y-67329816D01*
X100674273Y-67342323D01*
X100669920Y-67354956D01*
X100665946Y-67367731D01*
X100662344Y-67380660D01*
X100659109Y-67393760D01*
X100656237Y-67407044D01*
X100653722Y-67420528D01*
X100651559Y-67434225D01*
X100649743Y-67448151D01*
X100648268Y-67462319D01*
X100647131Y-67476746D01*
X100646324Y-67491444D01*
X100645844Y-67506429D01*
X100645685Y-67521716D01*
X100645964Y-67540450D01*
X100646794Y-67558834D01*
X100648164Y-67576850D01*
X100650062Y-67594484D01*
X100652479Y-67611719D01*
X100655403Y-67628539D01*
X100658824Y-67644928D01*
X100662731Y-67660870D01*
X100667112Y-67676350D01*
X100671957Y-67691351D01*
X100677256Y-67705857D01*
X100682996Y-67719852D01*
X100689168Y-67733320D01*
X100695761Y-67746246D01*
X100702764Y-67758612D01*
X100710166Y-67770404D01*
X100717955Y-67781605D01*
X100726122Y-67792200D01*
X100734656Y-67802172D01*
X100743545Y-67811505D01*
X100752779Y-67820183D01*
X100762346Y-67828190D01*
X100772237Y-67835511D01*
X100782440Y-67842129D01*
X100792945Y-67848029D01*
X100803739Y-67853193D01*
X100814814Y-67857607D01*
X100826158Y-67861255D01*
X100837759Y-67864119D01*
X100849608Y-67866185D01*
X100861693Y-67867436D01*
X100874004Y-67867857D01*
X100885881Y-67867566D01*
X100908533Y-67865214D01*
X100929746Y-67860459D01*
X100949554Y-67853246D01*
X100967989Y-67843520D01*
X100985086Y-67831227D01*
X101000879Y-67816313D01*
X101015402Y-67798722D01*
X101022198Y-67788906D01*
X101028689Y-67778400D01*
X101034879Y-67767198D01*
X101040773Y-67755293D01*
X101046375Y-67742678D01*
X101051689Y-67729346D01*
X101056720Y-67715291D01*
X101061471Y-67700505D01*
X101065947Y-67684982D01*
X101070151Y-67668715D01*
X101074090Y-67651697D01*
X101077766Y-67633921D01*
X101081183Y-67615381D01*
X101084347Y-67596070D01*
X101087261Y-67575980D01*
X101089929Y-67555106D01*
X101092357Y-67533440D01*
X101093895Y-67516564D01*
X101095240Y-67502732D01*
X101096927Y-67487300D01*
X101099028Y-67470665D01*
X101101618Y-67453227D01*
X101104770Y-67435383D01*
X101108557Y-67417533D01*
X101113053Y-67400074D01*
X101118330Y-67383405D01*
X101124463Y-67367924D01*
X101131525Y-67354030D01*
X101139589Y-67342122D01*
X101148729Y-67332597D01*
X101159018Y-67325854D01*
X101170530Y-67322292D01*
X101176767Y-67321828D01*
X101190548Y-67325866D01*
X101200383Y-67333879D01*
X101209638Y-67345776D01*
X101218175Y-67361207D01*
X101223402Y-67373285D01*
X101228208Y-67386676D01*
X101232555Y-67401276D01*
X101236402Y-67416981D01*
X101239709Y-67433688D01*
X101242434Y-67451293D01*
X101244538Y-67469693D01*
X101245981Y-67488785D01*
X101246721Y-67508464D01*
X101246816Y-67518492D01*
X101246569Y-67535239D01*
X101245827Y-67551516D01*
X101244590Y-67567320D01*
X101242859Y-67582647D01*
X101240634Y-67597496D01*
X101237913Y-67611862D01*
X101234698Y-67625743D01*
X101230989Y-67639136D01*
X101226785Y-67652038D01*
X101222086Y-67664445D01*
X101216893Y-67676356D01*
X101211205Y-67687766D01*
X101205023Y-67698673D01*
X101198346Y-67709074D01*
X101191174Y-67718966D01*
X101183508Y-67728346D01*
X101171380Y-67732945D01*
X101160391Y-67738188D01*
X101147533Y-67746221D01*
X101136749Y-67755498D01*
X101128068Y-67766080D01*
X101121515Y-67778023D01*
X101117120Y-67791386D01*
X101114909Y-67806228D01*
X101114632Y-67814221D01*
X101115213Y-67826775D01*
X101118178Y-67843311D01*
X101123484Y-67857269D01*
X101130943Y-67868848D01*
X101140364Y-67878243D01*
X101151558Y-67885652D01*
X101164334Y-67891272D01*
X101178504Y-67895301D01*
X101193876Y-67897934D01*
X101210262Y-67899369D01*
X101227472Y-67899804D01*
X101282866Y-67899804D01*
X101299145Y-67899411D01*
X101314858Y-67898085D01*
X101329778Y-67895601D01*
X101343680Y-67891736D01*
X101356339Y-67886268D01*
X101367526Y-67878973D01*
X101377018Y-67869629D01*
X101384587Y-67858011D01*
X101390008Y-67843897D01*
X101393055Y-67827064D01*
X101393655Y-67814221D01*
X101392884Y-67800875D01*
X101390352Y-67789122D01*
X101385726Y-67778116D01*
X101378676Y-67767010D01*
X101373431Y-67760293D01*
X101377953Y-67747494D01*
X101382276Y-67734274D01*
X101386387Y-67720645D01*
X101390275Y-67706620D01*
X101393926Y-67692210D01*
X101397326Y-67677428D01*
X101400464Y-67662285D01*
X101403327Y-67646793D01*
X101405901Y-67630965D01*
X101408173Y-67614812D01*
X101410131Y-67598346D01*
X101411762Y-67581580D01*
X101413053Y-67564526D01*
X101413991Y-67547195D01*
X101414564Y-67529599D01*
X101414757Y-67511751D01*
X101414469Y-67491594D01*
X101413612Y-67471802D01*
X101412197Y-67452394D01*
X101410236Y-67433386D01*
X101407741Y-67414797D01*
X101404723Y-67396645D01*
X101401193Y-67378948D01*
X101397163Y-67361725D01*
X101392644Y-67344993D01*
X101387649Y-67328769D01*
X101382187Y-67313073D01*
X101376272Y-67297923D01*
X101369914Y-67283335D01*
X101363125Y-67269329D01*
X101355916Y-67255922D01*
X101348299Y-67243133D01*
X101340285Y-67230979D01*
X101331886Y-67219478D01*
X101323113Y-67208649D01*
X101313979Y-67198510D01*
X101304493Y-67189078D01*
X101294668Y-67180371D01*
X101284515Y-67172408D01*
X101274046Y-67165207D01*
X101263272Y-67158786D01*
X101252205Y-67153162D01*
X101240856Y-67148354D01*
X101229236Y-67144379D01*
X101217358Y-67141257D01*
X101205232Y-67139004D01*
X101192870Y-67137639D01*
X101180284Y-67137180D01*
X101166281Y-67137689D01*
X101152432Y-67139201D01*
X101138777Y-67141697D01*
X101125352Y-67145158D01*
X101112198Y-67149563D01*
X101099351Y-67154893D01*
X101086851Y-67161128D01*
X101074735Y-67168248D01*
X101063041Y-67176234D01*
X101051808Y-67185065D01*
X101041073Y-67194723D01*
X101030876Y-67205187D01*
X101021254Y-67216437D01*
X101012246Y-67228454D01*
X101003889Y-67241218D01*
X100996223Y-67254710D01*
X100989191Y-67268497D01*
X100982742Y-67283044D01*
X100976839Y-67298272D01*
X100971442Y-67314103D01*
X100966514Y-67330457D01*
X100962017Y-67347257D01*
X100957911Y-67364424D01*
X100954160Y-67381880D01*
X100950724Y-67399545D01*
X100947565Y-67417342D01*
X100944645Y-67435191D01*
X100941926Y-67453015D01*
X100939369Y-67470735D01*
X100936937Y-67488273D01*
X100934591Y-67505549D01*
X100932292Y-67522486D01*
X100930003Y-67539004D01*
X100927685Y-67555026D01*
X100925300Y-67570472D01*
X100922810Y-67585265D01*
X100920176Y-67599325D01*
X100917360Y-67612575D01*
X100914324Y-67624936D01*
X100911029Y-67636329D01*
X100903512Y-67655897D01*
X100894502Y-67670652D01*
X100883694Y-67679965D01*
X100870780Y-67683210D01*
X100857268Y-67677575D01*
X100847041Y-67665709D01*
X100839909Y-67653101D01*
X100833379Y-67637735D01*
X100829424Y-67626144D01*
X100825831Y-67613606D01*
X100822639Y-67600233D01*
X100819884Y-67586136D01*
X100817605Y-67571426D01*
X100815839Y-67556216D01*
X100814625Y-67540617D01*
X100814000Y-67524741D01*
X100813920Y-67516734D01*
X100814252Y-67496738D01*
X100815220Y-67478297D01*
X100816782Y-67461334D01*
X100818894Y-67445768D01*
X100821516Y-67431521D01*
X100824604Y-67418514D01*
X100828116Y-67406667D01*
X100836242Y-67386139D01*
X100845555Y-67369305D01*
X100855716Y-67355533D01*
X100866386Y-67344189D01*
X100877225Y-67334642D01*
X100887895Y-67326258D01*
X100898056Y-67318407D01*
X100907369Y-67310455D01*
X100915495Y-67301770D01*
X100922095Y-67291719D01*
X100926829Y-67279671D01*
X100929359Y-67264992D01*
X100929691Y-67256468D01*
X100929149Y-67244125D01*
X100926370Y-67227867D01*
X100921365Y-67214144D01*
X100914282Y-67202763D01*
X100905267Y-67193530D01*
X100894469Y-67186250D01*
X100882035Y-67180728D01*
X100868114Y-67176772D01*
X100852853Y-67174187D01*
X100836400Y-67172778D01*
X100818903Y-67172351D01*
G37*
D12*
X109190476Y-51264895D02*
X109190476Y-51912514D01*
X109190476Y-51912514D02*
X109228571Y-51988704D01*
X109228571Y-51988704D02*
X109266666Y-52026800D01*
X109266666Y-52026800D02*
X109342857Y-52064895D01*
X109342857Y-52064895D02*
X109495238Y-52064895D01*
X109495238Y-52064895D02*
X109571428Y-52026800D01*
X109571428Y-52026800D02*
X109609523Y-51988704D01*
X109609523Y-51988704D02*
X109647619Y-51912514D01*
X109647619Y-51912514D02*
X109647619Y-51264895D01*
X110447618Y-52064895D02*
X109990475Y-52064895D01*
X110219047Y-52064895D02*
X110219047Y-51264895D01*
X110219047Y-51264895D02*
X110142856Y-51379180D01*
X110142856Y-51379180D02*
X110066666Y-51455371D01*
X110066666Y-51455371D02*
X109990475Y-51493466D01*
X101390476Y-56364895D02*
X101390476Y-57012514D01*
X101390476Y-57012514D02*
X101428571Y-57088704D01*
X101428571Y-57088704D02*
X101466666Y-57126800D01*
X101466666Y-57126800D02*
X101542857Y-57164895D01*
X101542857Y-57164895D02*
X101695238Y-57164895D01*
X101695238Y-57164895D02*
X101771428Y-57126800D01*
X101771428Y-57126800D02*
X101809523Y-57088704D01*
X101809523Y-57088704D02*
X101847619Y-57012514D01*
X101847619Y-57012514D02*
X101847619Y-56364895D01*
X102152380Y-56364895D02*
X102647618Y-56364895D01*
X102647618Y-56364895D02*
X102380952Y-56669657D01*
X102380952Y-56669657D02*
X102495237Y-56669657D01*
X102495237Y-56669657D02*
X102571428Y-56707752D01*
X102571428Y-56707752D02*
X102609523Y-56745847D01*
X102609523Y-56745847D02*
X102647618Y-56822038D01*
X102647618Y-56822038D02*
X102647618Y-57012514D01*
X102647618Y-57012514D02*
X102609523Y-57088704D01*
X102609523Y-57088704D02*
X102571428Y-57126800D01*
X102571428Y-57126800D02*
X102495237Y-57164895D01*
X102495237Y-57164895D02*
X102266666Y-57164895D01*
X102266666Y-57164895D02*
X102190475Y-57126800D01*
X102190475Y-57126800D02*
X102152380Y-57088704D01*
X109090476Y-56564895D02*
X109090476Y-57212514D01*
X109090476Y-57212514D02*
X109128571Y-57288704D01*
X109128571Y-57288704D02*
X109166666Y-57326800D01*
X109166666Y-57326800D02*
X109242857Y-57364895D01*
X109242857Y-57364895D02*
X109395238Y-57364895D01*
X109395238Y-57364895D02*
X109471428Y-57326800D01*
X109471428Y-57326800D02*
X109509523Y-57288704D01*
X109509523Y-57288704D02*
X109547619Y-57212514D01*
X109547619Y-57212514D02*
X109547619Y-56564895D01*
X109890475Y-56641085D02*
X109928571Y-56602990D01*
X109928571Y-56602990D02*
X110004761Y-56564895D01*
X110004761Y-56564895D02*
X110195237Y-56564895D01*
X110195237Y-56564895D02*
X110271428Y-56602990D01*
X110271428Y-56602990D02*
X110309523Y-56641085D01*
X110309523Y-56641085D02*
X110347618Y-56717276D01*
X110347618Y-56717276D02*
X110347618Y-56793466D01*
X110347618Y-56793466D02*
X110309523Y-56907752D01*
X110309523Y-56907752D02*
X109852380Y-57364895D01*
X109852380Y-57364895D02*
X110347618Y-57364895D01*
X103464895Y-49214285D02*
X103083942Y-49480952D01*
X103464895Y-49671428D02*
X102664895Y-49671428D01*
X102664895Y-49671428D02*
X102664895Y-49366666D01*
X102664895Y-49366666D02*
X102702990Y-49290476D01*
X102702990Y-49290476D02*
X102741085Y-49252381D01*
X102741085Y-49252381D02*
X102817276Y-49214285D01*
X102817276Y-49214285D02*
X102931561Y-49214285D01*
X102931561Y-49214285D02*
X103007752Y-49252381D01*
X103007752Y-49252381D02*
X103045847Y-49290476D01*
X103045847Y-49290476D02*
X103083942Y-49366666D01*
X103083942Y-49366666D02*
X103083942Y-49671428D01*
X103464895Y-48452381D02*
X103464895Y-48909524D01*
X103464895Y-48680952D02*
X102664895Y-48680952D01*
X102664895Y-48680952D02*
X102779180Y-48757143D01*
X102779180Y-48757143D02*
X102855371Y-48833333D01*
X102855371Y-48833333D02*
X102893466Y-48909524D01*
X102664895Y-48185714D02*
X102664895Y-47652380D01*
X102664895Y-47652380D02*
X103464895Y-47995238D01*
X102364895Y-49214285D02*
X101983942Y-49480952D01*
X102364895Y-49671428D02*
X101564895Y-49671428D01*
X101564895Y-49671428D02*
X101564895Y-49366666D01*
X101564895Y-49366666D02*
X101602990Y-49290476D01*
X101602990Y-49290476D02*
X101641085Y-49252381D01*
X101641085Y-49252381D02*
X101717276Y-49214285D01*
X101717276Y-49214285D02*
X101831561Y-49214285D01*
X101831561Y-49214285D02*
X101907752Y-49252381D01*
X101907752Y-49252381D02*
X101945847Y-49290476D01*
X101945847Y-49290476D02*
X101983942Y-49366666D01*
X101983942Y-49366666D02*
X101983942Y-49671428D01*
X102364895Y-48452381D02*
X102364895Y-48909524D01*
X102364895Y-48680952D02*
X101564895Y-48680952D01*
X101564895Y-48680952D02*
X101679180Y-48757143D01*
X101679180Y-48757143D02*
X101755371Y-48833333D01*
X101755371Y-48833333D02*
X101793466Y-48909524D01*
X101564895Y-47766666D02*
X101564895Y-47919047D01*
X101564895Y-47919047D02*
X101602990Y-47995238D01*
X101602990Y-47995238D02*
X101641085Y-48033333D01*
X101641085Y-48033333D02*
X101755371Y-48109523D01*
X101755371Y-48109523D02*
X101907752Y-48147619D01*
X101907752Y-48147619D02*
X102212514Y-48147619D01*
X102212514Y-48147619D02*
X102288704Y-48109523D01*
X102288704Y-48109523D02*
X102326800Y-48071428D01*
X102326800Y-48071428D02*
X102364895Y-47995238D01*
X102364895Y-47995238D02*
X102364895Y-47842857D01*
X102364895Y-47842857D02*
X102326800Y-47766666D01*
X102326800Y-47766666D02*
X102288704Y-47728571D01*
X102288704Y-47728571D02*
X102212514Y-47690476D01*
X102212514Y-47690476D02*
X102022038Y-47690476D01*
X102022038Y-47690476D02*
X101945847Y-47728571D01*
X101945847Y-47728571D02*
X101907752Y-47766666D01*
X101907752Y-47766666D02*
X101869657Y-47842857D01*
X101869657Y-47842857D02*
X101869657Y-47995238D01*
X101869657Y-47995238D02*
X101907752Y-48071428D01*
X101907752Y-48071428D02*
X101945847Y-48109523D01*
X101945847Y-48109523D02*
X102022038Y-48147619D01*
X112664895Y-65814285D02*
X112283942Y-66080952D01*
X112664895Y-66271428D02*
X111864895Y-66271428D01*
X111864895Y-66271428D02*
X111864895Y-65966666D01*
X111864895Y-65966666D02*
X111902990Y-65890476D01*
X111902990Y-65890476D02*
X111941085Y-65852381D01*
X111941085Y-65852381D02*
X112017276Y-65814285D01*
X112017276Y-65814285D02*
X112131561Y-65814285D01*
X112131561Y-65814285D02*
X112207752Y-65852381D01*
X112207752Y-65852381D02*
X112245847Y-65890476D01*
X112245847Y-65890476D02*
X112283942Y-65966666D01*
X112283942Y-65966666D02*
X112283942Y-66271428D01*
X112664895Y-65052381D02*
X112664895Y-65509524D01*
X112664895Y-65280952D02*
X111864895Y-65280952D01*
X111864895Y-65280952D02*
X111979180Y-65357143D01*
X111979180Y-65357143D02*
X112055371Y-65433333D01*
X112055371Y-65433333D02*
X112093466Y-65509524D01*
X111864895Y-64328571D02*
X111864895Y-64709523D01*
X111864895Y-64709523D02*
X112245847Y-64747619D01*
X112245847Y-64747619D02*
X112207752Y-64709523D01*
X112207752Y-64709523D02*
X112169657Y-64633333D01*
X112169657Y-64633333D02*
X112169657Y-64442857D01*
X112169657Y-64442857D02*
X112207752Y-64366666D01*
X112207752Y-64366666D02*
X112245847Y-64328571D01*
X112245847Y-64328571D02*
X112322038Y-64290476D01*
X112322038Y-64290476D02*
X112512514Y-64290476D01*
X112512514Y-64290476D02*
X112588704Y-64328571D01*
X112588704Y-64328571D02*
X112626800Y-64366666D01*
X112626800Y-64366666D02*
X112664895Y-64442857D01*
X112664895Y-64442857D02*
X112664895Y-64633333D01*
X112664895Y-64633333D02*
X112626800Y-64709523D01*
X112626800Y-64709523D02*
X112588704Y-64747619D01*
X118664895Y-71514285D02*
X118283942Y-71780952D01*
X118664895Y-71971428D02*
X117864895Y-71971428D01*
X117864895Y-71971428D02*
X117864895Y-71666666D01*
X117864895Y-71666666D02*
X117902990Y-71590476D01*
X117902990Y-71590476D02*
X117941085Y-71552381D01*
X117941085Y-71552381D02*
X118017276Y-71514285D01*
X118017276Y-71514285D02*
X118131561Y-71514285D01*
X118131561Y-71514285D02*
X118207752Y-71552381D01*
X118207752Y-71552381D02*
X118245847Y-71590476D01*
X118245847Y-71590476D02*
X118283942Y-71666666D01*
X118283942Y-71666666D02*
X118283942Y-71971428D01*
X118664895Y-70752381D02*
X118664895Y-71209524D01*
X118664895Y-70980952D02*
X117864895Y-70980952D01*
X117864895Y-70980952D02*
X117979180Y-71057143D01*
X117979180Y-71057143D02*
X118055371Y-71133333D01*
X118055371Y-71133333D02*
X118093466Y-71209524D01*
X118131561Y-70066666D02*
X118664895Y-70066666D01*
X117826800Y-70257142D02*
X118398228Y-70447619D01*
X118398228Y-70447619D02*
X118398228Y-69952380D01*
X119264895Y-56814285D02*
X118883942Y-57080952D01*
X119264895Y-57271428D02*
X118464895Y-57271428D01*
X118464895Y-57271428D02*
X118464895Y-56966666D01*
X118464895Y-56966666D02*
X118502990Y-56890476D01*
X118502990Y-56890476D02*
X118541085Y-56852381D01*
X118541085Y-56852381D02*
X118617276Y-56814285D01*
X118617276Y-56814285D02*
X118731561Y-56814285D01*
X118731561Y-56814285D02*
X118807752Y-56852381D01*
X118807752Y-56852381D02*
X118845847Y-56890476D01*
X118845847Y-56890476D02*
X118883942Y-56966666D01*
X118883942Y-56966666D02*
X118883942Y-57271428D01*
X119264895Y-56052381D02*
X119264895Y-56509524D01*
X119264895Y-56280952D02*
X118464895Y-56280952D01*
X118464895Y-56280952D02*
X118579180Y-56357143D01*
X118579180Y-56357143D02*
X118655371Y-56433333D01*
X118655371Y-56433333D02*
X118693466Y-56509524D01*
X118464895Y-55785714D02*
X118464895Y-55290476D01*
X118464895Y-55290476D02*
X118769657Y-55557142D01*
X118769657Y-55557142D02*
X118769657Y-55442857D01*
X118769657Y-55442857D02*
X118807752Y-55366666D01*
X118807752Y-55366666D02*
X118845847Y-55328571D01*
X118845847Y-55328571D02*
X118922038Y-55290476D01*
X118922038Y-55290476D02*
X119112514Y-55290476D01*
X119112514Y-55290476D02*
X119188704Y-55328571D01*
X119188704Y-55328571D02*
X119226800Y-55366666D01*
X119226800Y-55366666D02*
X119264895Y-55442857D01*
X119264895Y-55442857D02*
X119264895Y-55671428D01*
X119264895Y-55671428D02*
X119226800Y-55747619D01*
X119226800Y-55747619D02*
X119188704Y-55785714D01*
X118664895Y-69014285D02*
X118283942Y-69280952D01*
X118664895Y-69471428D02*
X117864895Y-69471428D01*
X117864895Y-69471428D02*
X117864895Y-69166666D01*
X117864895Y-69166666D02*
X117902990Y-69090476D01*
X117902990Y-69090476D02*
X117941085Y-69052381D01*
X117941085Y-69052381D02*
X118017276Y-69014285D01*
X118017276Y-69014285D02*
X118131561Y-69014285D01*
X118131561Y-69014285D02*
X118207752Y-69052381D01*
X118207752Y-69052381D02*
X118245847Y-69090476D01*
X118245847Y-69090476D02*
X118283942Y-69166666D01*
X118283942Y-69166666D02*
X118283942Y-69471428D01*
X118664895Y-68252381D02*
X118664895Y-68709524D01*
X118664895Y-68480952D02*
X117864895Y-68480952D01*
X117864895Y-68480952D02*
X117979180Y-68557143D01*
X117979180Y-68557143D02*
X118055371Y-68633333D01*
X118055371Y-68633333D02*
X118093466Y-68709524D01*
X117941085Y-67947619D02*
X117902990Y-67909523D01*
X117902990Y-67909523D02*
X117864895Y-67833333D01*
X117864895Y-67833333D02*
X117864895Y-67642857D01*
X117864895Y-67642857D02*
X117902990Y-67566666D01*
X117902990Y-67566666D02*
X117941085Y-67528571D01*
X117941085Y-67528571D02*
X118017276Y-67490476D01*
X118017276Y-67490476D02*
X118093466Y-67490476D01*
X118093466Y-67490476D02*
X118207752Y-67528571D01*
X118207752Y-67528571D02*
X118664895Y-67985714D01*
X118664895Y-67985714D02*
X118664895Y-67490476D01*
X117064895Y-68914285D02*
X116683942Y-69180952D01*
X117064895Y-69371428D02*
X116264895Y-69371428D01*
X116264895Y-69371428D02*
X116264895Y-69066666D01*
X116264895Y-69066666D02*
X116302990Y-68990476D01*
X116302990Y-68990476D02*
X116341085Y-68952381D01*
X116341085Y-68952381D02*
X116417276Y-68914285D01*
X116417276Y-68914285D02*
X116531561Y-68914285D01*
X116531561Y-68914285D02*
X116607752Y-68952381D01*
X116607752Y-68952381D02*
X116645847Y-68990476D01*
X116645847Y-68990476D02*
X116683942Y-69066666D01*
X116683942Y-69066666D02*
X116683942Y-69371428D01*
X117064895Y-68152381D02*
X117064895Y-68609524D01*
X117064895Y-68380952D02*
X116264895Y-68380952D01*
X116264895Y-68380952D02*
X116379180Y-68457143D01*
X116379180Y-68457143D02*
X116455371Y-68533333D01*
X116455371Y-68533333D02*
X116493466Y-68609524D01*
X117064895Y-67390476D02*
X117064895Y-67847619D01*
X117064895Y-67619047D02*
X116264895Y-67619047D01*
X116264895Y-67619047D02*
X116379180Y-67695238D01*
X116379180Y-67695238D02*
X116455371Y-67771428D01*
X116455371Y-67771428D02*
X116493466Y-67847619D01*
X114685714Y-57264895D02*
X114419047Y-56883942D01*
X114228571Y-57264895D02*
X114228571Y-56464895D01*
X114228571Y-56464895D02*
X114533333Y-56464895D01*
X114533333Y-56464895D02*
X114609523Y-56502990D01*
X114609523Y-56502990D02*
X114647618Y-56541085D01*
X114647618Y-56541085D02*
X114685714Y-56617276D01*
X114685714Y-56617276D02*
X114685714Y-56731561D01*
X114685714Y-56731561D02*
X114647618Y-56807752D01*
X114647618Y-56807752D02*
X114609523Y-56845847D01*
X114609523Y-56845847D02*
X114533333Y-56883942D01*
X114533333Y-56883942D02*
X114228571Y-56883942D01*
X115447618Y-57264895D02*
X114990475Y-57264895D01*
X115219047Y-57264895D02*
X115219047Y-56464895D01*
X115219047Y-56464895D02*
X115142856Y-56579180D01*
X115142856Y-56579180D02*
X115066666Y-56655371D01*
X115066666Y-56655371D02*
X114990475Y-56693466D01*
X115942857Y-56464895D02*
X116019047Y-56464895D01*
X116019047Y-56464895D02*
X116095238Y-56502990D01*
X116095238Y-56502990D02*
X116133333Y-56541085D01*
X116133333Y-56541085D02*
X116171428Y-56617276D01*
X116171428Y-56617276D02*
X116209523Y-56769657D01*
X116209523Y-56769657D02*
X116209523Y-56960133D01*
X116209523Y-56960133D02*
X116171428Y-57112514D01*
X116171428Y-57112514D02*
X116133333Y-57188704D01*
X116133333Y-57188704D02*
X116095238Y-57226800D01*
X116095238Y-57226800D02*
X116019047Y-57264895D01*
X116019047Y-57264895D02*
X115942857Y-57264895D01*
X115942857Y-57264895D02*
X115866666Y-57226800D01*
X115866666Y-57226800D02*
X115828571Y-57188704D01*
X115828571Y-57188704D02*
X115790476Y-57112514D01*
X115790476Y-57112514D02*
X115752380Y-56960133D01*
X115752380Y-56960133D02*
X115752380Y-56769657D01*
X115752380Y-56769657D02*
X115790476Y-56617276D01*
X115790476Y-56617276D02*
X115828571Y-56541085D01*
X115828571Y-56541085D02*
X115866666Y-56502990D01*
X115866666Y-56502990D02*
X115942857Y-56464895D01*
X107764895Y-56933332D02*
X107383942Y-57199999D01*
X107764895Y-57390475D02*
X106964895Y-57390475D01*
X106964895Y-57390475D02*
X106964895Y-57085713D01*
X106964895Y-57085713D02*
X107002990Y-57009523D01*
X107002990Y-57009523D02*
X107041085Y-56971428D01*
X107041085Y-56971428D02*
X107117276Y-56933332D01*
X107117276Y-56933332D02*
X107231561Y-56933332D01*
X107231561Y-56933332D02*
X107307752Y-56971428D01*
X107307752Y-56971428D02*
X107345847Y-57009523D01*
X107345847Y-57009523D02*
X107383942Y-57085713D01*
X107383942Y-57085713D02*
X107383942Y-57390475D01*
X107764895Y-56552380D02*
X107764895Y-56399999D01*
X107764895Y-56399999D02*
X107726800Y-56323809D01*
X107726800Y-56323809D02*
X107688704Y-56285713D01*
X107688704Y-56285713D02*
X107574419Y-56209523D01*
X107574419Y-56209523D02*
X107422038Y-56171428D01*
X107422038Y-56171428D02*
X107117276Y-56171428D01*
X107117276Y-56171428D02*
X107041085Y-56209523D01*
X107041085Y-56209523D02*
X107002990Y-56247618D01*
X107002990Y-56247618D02*
X106964895Y-56323809D01*
X106964895Y-56323809D02*
X106964895Y-56476190D01*
X106964895Y-56476190D02*
X107002990Y-56552380D01*
X107002990Y-56552380D02*
X107041085Y-56590475D01*
X107041085Y-56590475D02*
X107117276Y-56628571D01*
X107117276Y-56628571D02*
X107307752Y-56628571D01*
X107307752Y-56628571D02*
X107383942Y-56590475D01*
X107383942Y-56590475D02*
X107422038Y-56552380D01*
X107422038Y-56552380D02*
X107460133Y-56476190D01*
X107460133Y-56476190D02*
X107460133Y-56323809D01*
X107460133Y-56323809D02*
X107422038Y-56247618D01*
X107422038Y-56247618D02*
X107383942Y-56209523D01*
X107383942Y-56209523D02*
X107307752Y-56171428D01*
X106264895Y-56933332D02*
X105883942Y-57199999D01*
X106264895Y-57390475D02*
X105464895Y-57390475D01*
X105464895Y-57390475D02*
X105464895Y-57085713D01*
X105464895Y-57085713D02*
X105502990Y-57009523D01*
X105502990Y-57009523D02*
X105541085Y-56971428D01*
X105541085Y-56971428D02*
X105617276Y-56933332D01*
X105617276Y-56933332D02*
X105731561Y-56933332D01*
X105731561Y-56933332D02*
X105807752Y-56971428D01*
X105807752Y-56971428D02*
X105845847Y-57009523D01*
X105845847Y-57009523D02*
X105883942Y-57085713D01*
X105883942Y-57085713D02*
X105883942Y-57390475D01*
X105807752Y-56476190D02*
X105769657Y-56552380D01*
X105769657Y-56552380D02*
X105731561Y-56590475D01*
X105731561Y-56590475D02*
X105655371Y-56628571D01*
X105655371Y-56628571D02*
X105617276Y-56628571D01*
X105617276Y-56628571D02*
X105541085Y-56590475D01*
X105541085Y-56590475D02*
X105502990Y-56552380D01*
X105502990Y-56552380D02*
X105464895Y-56476190D01*
X105464895Y-56476190D02*
X105464895Y-56323809D01*
X105464895Y-56323809D02*
X105502990Y-56247618D01*
X105502990Y-56247618D02*
X105541085Y-56209523D01*
X105541085Y-56209523D02*
X105617276Y-56171428D01*
X105617276Y-56171428D02*
X105655371Y-56171428D01*
X105655371Y-56171428D02*
X105731561Y-56209523D01*
X105731561Y-56209523D02*
X105769657Y-56247618D01*
X105769657Y-56247618D02*
X105807752Y-56323809D01*
X105807752Y-56323809D02*
X105807752Y-56476190D01*
X105807752Y-56476190D02*
X105845847Y-56552380D01*
X105845847Y-56552380D02*
X105883942Y-56590475D01*
X105883942Y-56590475D02*
X105960133Y-56628571D01*
X105960133Y-56628571D02*
X106112514Y-56628571D01*
X106112514Y-56628571D02*
X106188704Y-56590475D01*
X106188704Y-56590475D02*
X106226800Y-56552380D01*
X106226800Y-56552380D02*
X106264895Y-56476190D01*
X106264895Y-56476190D02*
X106264895Y-56323809D01*
X106264895Y-56323809D02*
X106226800Y-56247618D01*
X106226800Y-56247618D02*
X106188704Y-56209523D01*
X106188704Y-56209523D02*
X106112514Y-56171428D01*
X106112514Y-56171428D02*
X105960133Y-56171428D01*
X105960133Y-56171428D02*
X105883942Y-56209523D01*
X105883942Y-56209523D02*
X105845847Y-56247618D01*
X105845847Y-56247618D02*
X105807752Y-56323809D01*
X103864895Y-62333332D02*
X103483942Y-62599999D01*
X103864895Y-62790475D02*
X103064895Y-62790475D01*
X103064895Y-62790475D02*
X103064895Y-62485713D01*
X103064895Y-62485713D02*
X103102990Y-62409523D01*
X103102990Y-62409523D02*
X103141085Y-62371428D01*
X103141085Y-62371428D02*
X103217276Y-62333332D01*
X103217276Y-62333332D02*
X103331561Y-62333332D01*
X103331561Y-62333332D02*
X103407752Y-62371428D01*
X103407752Y-62371428D02*
X103445847Y-62409523D01*
X103445847Y-62409523D02*
X103483942Y-62485713D01*
X103483942Y-62485713D02*
X103483942Y-62790475D01*
X103064895Y-62066666D02*
X103064895Y-61533332D01*
X103064895Y-61533332D02*
X103864895Y-61876190D01*
X104964895Y-62333332D02*
X104583942Y-62599999D01*
X104964895Y-62790475D02*
X104164895Y-62790475D01*
X104164895Y-62790475D02*
X104164895Y-62485713D01*
X104164895Y-62485713D02*
X104202990Y-62409523D01*
X104202990Y-62409523D02*
X104241085Y-62371428D01*
X104241085Y-62371428D02*
X104317276Y-62333332D01*
X104317276Y-62333332D02*
X104431561Y-62333332D01*
X104431561Y-62333332D02*
X104507752Y-62371428D01*
X104507752Y-62371428D02*
X104545847Y-62409523D01*
X104545847Y-62409523D02*
X104583942Y-62485713D01*
X104583942Y-62485713D02*
X104583942Y-62790475D01*
X104164895Y-61647618D02*
X104164895Y-61799999D01*
X104164895Y-61799999D02*
X104202990Y-61876190D01*
X104202990Y-61876190D02*
X104241085Y-61914285D01*
X104241085Y-61914285D02*
X104355371Y-61990475D01*
X104355371Y-61990475D02*
X104507752Y-62028571D01*
X104507752Y-62028571D02*
X104812514Y-62028571D01*
X104812514Y-62028571D02*
X104888704Y-61990475D01*
X104888704Y-61990475D02*
X104926800Y-61952380D01*
X104926800Y-61952380D02*
X104964895Y-61876190D01*
X104964895Y-61876190D02*
X104964895Y-61723809D01*
X104964895Y-61723809D02*
X104926800Y-61647618D01*
X104926800Y-61647618D02*
X104888704Y-61609523D01*
X104888704Y-61609523D02*
X104812514Y-61571428D01*
X104812514Y-61571428D02*
X104622038Y-61571428D01*
X104622038Y-61571428D02*
X104545847Y-61609523D01*
X104545847Y-61609523D02*
X104507752Y-61647618D01*
X104507752Y-61647618D02*
X104469657Y-61723809D01*
X104469657Y-61723809D02*
X104469657Y-61876190D01*
X104469657Y-61876190D02*
X104507752Y-61952380D01*
X104507752Y-61952380D02*
X104545847Y-61990475D01*
X104545847Y-61990475D02*
X104622038Y-62028571D01*
X102964895Y-65433332D02*
X102583942Y-65699999D01*
X102964895Y-65890475D02*
X102164895Y-65890475D01*
X102164895Y-65890475D02*
X102164895Y-65585713D01*
X102164895Y-65585713D02*
X102202990Y-65509523D01*
X102202990Y-65509523D02*
X102241085Y-65471428D01*
X102241085Y-65471428D02*
X102317276Y-65433332D01*
X102317276Y-65433332D02*
X102431561Y-65433332D01*
X102431561Y-65433332D02*
X102507752Y-65471428D01*
X102507752Y-65471428D02*
X102545847Y-65509523D01*
X102545847Y-65509523D02*
X102583942Y-65585713D01*
X102583942Y-65585713D02*
X102583942Y-65890475D01*
X102164895Y-64709523D02*
X102164895Y-65090475D01*
X102164895Y-65090475D02*
X102545847Y-65128571D01*
X102545847Y-65128571D02*
X102507752Y-65090475D01*
X102507752Y-65090475D02*
X102469657Y-65014285D01*
X102469657Y-65014285D02*
X102469657Y-64823809D01*
X102469657Y-64823809D02*
X102507752Y-64747618D01*
X102507752Y-64747618D02*
X102545847Y-64709523D01*
X102545847Y-64709523D02*
X102622038Y-64671428D01*
X102622038Y-64671428D02*
X102812514Y-64671428D01*
X102812514Y-64671428D02*
X102888704Y-64709523D01*
X102888704Y-64709523D02*
X102926800Y-64747618D01*
X102926800Y-64747618D02*
X102964895Y-64823809D01*
X102964895Y-64823809D02*
X102964895Y-65014285D01*
X102964895Y-65014285D02*
X102926800Y-65090475D01*
X102926800Y-65090475D02*
X102888704Y-65128571D01*
X104964895Y-65433332D02*
X104583942Y-65699999D01*
X104964895Y-65890475D02*
X104164895Y-65890475D01*
X104164895Y-65890475D02*
X104164895Y-65585713D01*
X104164895Y-65585713D02*
X104202990Y-65509523D01*
X104202990Y-65509523D02*
X104241085Y-65471428D01*
X104241085Y-65471428D02*
X104317276Y-65433332D01*
X104317276Y-65433332D02*
X104431561Y-65433332D01*
X104431561Y-65433332D02*
X104507752Y-65471428D01*
X104507752Y-65471428D02*
X104545847Y-65509523D01*
X104545847Y-65509523D02*
X104583942Y-65585713D01*
X104583942Y-65585713D02*
X104583942Y-65890475D01*
X104431561Y-64747618D02*
X104964895Y-64747618D01*
X104126800Y-64938094D02*
X104698228Y-65128571D01*
X104698228Y-65128571D02*
X104698228Y-64633332D01*
X114264895Y-47733332D02*
X113883942Y-47999999D01*
X114264895Y-48190475D02*
X113464895Y-48190475D01*
X113464895Y-48190475D02*
X113464895Y-47885713D01*
X113464895Y-47885713D02*
X113502990Y-47809523D01*
X113502990Y-47809523D02*
X113541085Y-47771428D01*
X113541085Y-47771428D02*
X113617276Y-47733332D01*
X113617276Y-47733332D02*
X113731561Y-47733332D01*
X113731561Y-47733332D02*
X113807752Y-47771428D01*
X113807752Y-47771428D02*
X113845847Y-47809523D01*
X113845847Y-47809523D02*
X113883942Y-47885713D01*
X113883942Y-47885713D02*
X113883942Y-48190475D01*
X113464895Y-47466666D02*
X113464895Y-46971428D01*
X113464895Y-46971428D02*
X113769657Y-47238094D01*
X113769657Y-47238094D02*
X113769657Y-47123809D01*
X113769657Y-47123809D02*
X113807752Y-47047618D01*
X113807752Y-47047618D02*
X113845847Y-47009523D01*
X113845847Y-47009523D02*
X113922038Y-46971428D01*
X113922038Y-46971428D02*
X114112514Y-46971428D01*
X114112514Y-46971428D02*
X114188704Y-47009523D01*
X114188704Y-47009523D02*
X114226800Y-47047618D01*
X114226800Y-47047618D02*
X114264895Y-47123809D01*
X114264895Y-47123809D02*
X114264895Y-47352380D01*
X114264895Y-47352380D02*
X114226800Y-47428571D01*
X114226800Y-47428571D02*
X114188704Y-47466666D01*
X112164895Y-47733332D02*
X111783942Y-47999999D01*
X112164895Y-48190475D02*
X111364895Y-48190475D01*
X111364895Y-48190475D02*
X111364895Y-47885713D01*
X111364895Y-47885713D02*
X111402990Y-47809523D01*
X111402990Y-47809523D02*
X111441085Y-47771428D01*
X111441085Y-47771428D02*
X111517276Y-47733332D01*
X111517276Y-47733332D02*
X111631561Y-47733332D01*
X111631561Y-47733332D02*
X111707752Y-47771428D01*
X111707752Y-47771428D02*
X111745847Y-47809523D01*
X111745847Y-47809523D02*
X111783942Y-47885713D01*
X111783942Y-47885713D02*
X111783942Y-48190475D01*
X111441085Y-47428571D02*
X111402990Y-47390475D01*
X111402990Y-47390475D02*
X111364895Y-47314285D01*
X111364895Y-47314285D02*
X111364895Y-47123809D01*
X111364895Y-47123809D02*
X111402990Y-47047618D01*
X111402990Y-47047618D02*
X111441085Y-47009523D01*
X111441085Y-47009523D02*
X111517276Y-46971428D01*
X111517276Y-46971428D02*
X111593466Y-46971428D01*
X111593466Y-46971428D02*
X111707752Y-47009523D01*
X111707752Y-47009523D02*
X112164895Y-47466666D01*
X112164895Y-47466666D02*
X112164895Y-46971428D01*
X116064895Y-47733332D02*
X115683942Y-47999999D01*
X116064895Y-48190475D02*
X115264895Y-48190475D01*
X115264895Y-48190475D02*
X115264895Y-47885713D01*
X115264895Y-47885713D02*
X115302990Y-47809523D01*
X115302990Y-47809523D02*
X115341085Y-47771428D01*
X115341085Y-47771428D02*
X115417276Y-47733332D01*
X115417276Y-47733332D02*
X115531561Y-47733332D01*
X115531561Y-47733332D02*
X115607752Y-47771428D01*
X115607752Y-47771428D02*
X115645847Y-47809523D01*
X115645847Y-47809523D02*
X115683942Y-47885713D01*
X115683942Y-47885713D02*
X115683942Y-48190475D01*
X116064895Y-46971428D02*
X116064895Y-47428571D01*
X116064895Y-47199999D02*
X115264895Y-47199999D01*
X115264895Y-47199999D02*
X115379180Y-47276190D01*
X115379180Y-47276190D02*
X115455371Y-47352380D01*
X115455371Y-47352380D02*
X115493466Y-47428571D01*
X115834895Y-75651666D02*
X116406323Y-75651666D01*
X116406323Y-75651666D02*
X116520609Y-75689761D01*
X116520609Y-75689761D02*
X116596800Y-75765952D01*
X116596800Y-75765952D02*
X116634895Y-75880237D01*
X116634895Y-75880237D02*
X116634895Y-75956428D01*
X115911085Y-75308809D02*
X115872990Y-75270713D01*
X115872990Y-75270713D02*
X115834895Y-75194523D01*
X115834895Y-75194523D02*
X115834895Y-75004047D01*
X115834895Y-75004047D02*
X115872990Y-74927856D01*
X115872990Y-74927856D02*
X115911085Y-74889761D01*
X115911085Y-74889761D02*
X115987276Y-74851666D01*
X115987276Y-74851666D02*
X116063466Y-74851666D01*
X116063466Y-74851666D02*
X116177752Y-74889761D01*
X116177752Y-74889761D02*
X116634895Y-75346904D01*
X116634895Y-75346904D02*
X116634895Y-74851666D01*
X100644895Y-42366666D02*
X101216323Y-42366666D01*
X101216323Y-42366666D02*
X101330609Y-42404761D01*
X101330609Y-42404761D02*
X101406800Y-42480952D01*
X101406800Y-42480952D02*
X101444895Y-42595237D01*
X101444895Y-42595237D02*
X101444895Y-42671428D01*
X101444895Y-41566666D02*
X101444895Y-42023809D01*
X101444895Y-41795237D02*
X100644895Y-41795237D01*
X100644895Y-41795237D02*
X100759180Y-41871428D01*
X100759180Y-41871428D02*
X100835371Y-41947618D01*
X100835371Y-41947618D02*
X100873466Y-42023809D01*
X101188704Y-48933332D02*
X101226800Y-48971428D01*
X101226800Y-48971428D02*
X101264895Y-49085713D01*
X101264895Y-49085713D02*
X101264895Y-49161904D01*
X101264895Y-49161904D02*
X101226800Y-49276190D01*
X101226800Y-49276190D02*
X101150609Y-49352380D01*
X101150609Y-49352380D02*
X101074419Y-49390475D01*
X101074419Y-49390475D02*
X100922038Y-49428571D01*
X100922038Y-49428571D02*
X100807752Y-49428571D01*
X100807752Y-49428571D02*
X100655371Y-49390475D01*
X100655371Y-49390475D02*
X100579180Y-49352380D01*
X100579180Y-49352380D02*
X100502990Y-49276190D01*
X100502990Y-49276190D02*
X100464895Y-49161904D01*
X100464895Y-49161904D02*
X100464895Y-49085713D01*
X100464895Y-49085713D02*
X100502990Y-48971428D01*
X100502990Y-48971428D02*
X100541085Y-48933332D01*
X100464895Y-48209523D02*
X100464895Y-48590475D01*
X100464895Y-48590475D02*
X100845847Y-48628571D01*
X100845847Y-48628571D02*
X100807752Y-48590475D01*
X100807752Y-48590475D02*
X100769657Y-48514285D01*
X100769657Y-48514285D02*
X100769657Y-48323809D01*
X100769657Y-48323809D02*
X100807752Y-48247618D01*
X100807752Y-48247618D02*
X100845847Y-48209523D01*
X100845847Y-48209523D02*
X100922038Y-48171428D01*
X100922038Y-48171428D02*
X101112514Y-48171428D01*
X101112514Y-48171428D02*
X101188704Y-48209523D01*
X101188704Y-48209523D02*
X101226800Y-48247618D01*
X101226800Y-48247618D02*
X101264895Y-48323809D01*
X101264895Y-48323809D02*
X101264895Y-48514285D01*
X101264895Y-48514285D02*
X101226800Y-48590475D01*
X101226800Y-48590475D02*
X101188704Y-48628571D01*
X111488704Y-65433332D02*
X111526800Y-65471428D01*
X111526800Y-65471428D02*
X111564895Y-65585713D01*
X111564895Y-65585713D02*
X111564895Y-65661904D01*
X111564895Y-65661904D02*
X111526800Y-65776190D01*
X111526800Y-65776190D02*
X111450609Y-65852380D01*
X111450609Y-65852380D02*
X111374419Y-65890475D01*
X111374419Y-65890475D02*
X111222038Y-65928571D01*
X111222038Y-65928571D02*
X111107752Y-65928571D01*
X111107752Y-65928571D02*
X110955371Y-65890475D01*
X110955371Y-65890475D02*
X110879180Y-65852380D01*
X110879180Y-65852380D02*
X110802990Y-65776190D01*
X110802990Y-65776190D02*
X110764895Y-65661904D01*
X110764895Y-65661904D02*
X110764895Y-65585713D01*
X110764895Y-65585713D02*
X110802990Y-65471428D01*
X110802990Y-65471428D02*
X110841085Y-65433332D01*
X111031561Y-64747618D02*
X111564895Y-64747618D01*
X110726800Y-64938094D02*
X111298228Y-65128571D01*
X111298228Y-65128571D02*
X111298228Y-64633332D01*
X116988704Y-70733332D02*
X117026800Y-70771428D01*
X117026800Y-70771428D02*
X117064895Y-70885713D01*
X117064895Y-70885713D02*
X117064895Y-70961904D01*
X117064895Y-70961904D02*
X117026800Y-71076190D01*
X117026800Y-71076190D02*
X116950609Y-71152380D01*
X116950609Y-71152380D02*
X116874419Y-71190475D01*
X116874419Y-71190475D02*
X116722038Y-71228571D01*
X116722038Y-71228571D02*
X116607752Y-71228571D01*
X116607752Y-71228571D02*
X116455371Y-71190475D01*
X116455371Y-71190475D02*
X116379180Y-71152380D01*
X116379180Y-71152380D02*
X116302990Y-71076190D01*
X116302990Y-71076190D02*
X116264895Y-70961904D01*
X116264895Y-70961904D02*
X116264895Y-70885713D01*
X116264895Y-70885713D02*
X116302990Y-70771428D01*
X116302990Y-70771428D02*
X116341085Y-70733332D01*
X116264895Y-70466666D02*
X116264895Y-69971428D01*
X116264895Y-69971428D02*
X116569657Y-70238094D01*
X116569657Y-70238094D02*
X116569657Y-70123809D01*
X116569657Y-70123809D02*
X116607752Y-70047618D01*
X116607752Y-70047618D02*
X116645847Y-70009523D01*
X116645847Y-70009523D02*
X116722038Y-69971428D01*
X116722038Y-69971428D02*
X116912514Y-69971428D01*
X116912514Y-69971428D02*
X116988704Y-70009523D01*
X116988704Y-70009523D02*
X117026800Y-70047618D01*
X117026800Y-70047618D02*
X117064895Y-70123809D01*
X117064895Y-70123809D02*
X117064895Y-70352380D01*
X117064895Y-70352380D02*
X117026800Y-70428571D01*
X117026800Y-70428571D02*
X116988704Y-70466666D01*
X103888704Y-65433332D02*
X103926800Y-65471428D01*
X103926800Y-65471428D02*
X103964895Y-65585713D01*
X103964895Y-65585713D02*
X103964895Y-65661904D01*
X103964895Y-65661904D02*
X103926800Y-65776190D01*
X103926800Y-65776190D02*
X103850609Y-65852380D01*
X103850609Y-65852380D02*
X103774419Y-65890475D01*
X103774419Y-65890475D02*
X103622038Y-65928571D01*
X103622038Y-65928571D02*
X103507752Y-65928571D01*
X103507752Y-65928571D02*
X103355371Y-65890475D01*
X103355371Y-65890475D02*
X103279180Y-65852380D01*
X103279180Y-65852380D02*
X103202990Y-65776190D01*
X103202990Y-65776190D02*
X103164895Y-65661904D01*
X103164895Y-65661904D02*
X103164895Y-65585713D01*
X103164895Y-65585713D02*
X103202990Y-65471428D01*
X103202990Y-65471428D02*
X103241085Y-65433332D01*
X103241085Y-65128571D02*
X103202990Y-65090475D01*
X103202990Y-65090475D02*
X103164895Y-65014285D01*
X103164895Y-65014285D02*
X103164895Y-64823809D01*
X103164895Y-64823809D02*
X103202990Y-64747618D01*
X103202990Y-64747618D02*
X103241085Y-64709523D01*
X103241085Y-64709523D02*
X103317276Y-64671428D01*
X103317276Y-64671428D02*
X103393466Y-64671428D01*
X103393466Y-64671428D02*
X103507752Y-64709523D01*
X103507752Y-64709523D02*
X103964895Y-65166666D01*
X103964895Y-65166666D02*
X103964895Y-64671428D01*
X117488704Y-53333332D02*
X117526800Y-53371428D01*
X117526800Y-53371428D02*
X117564895Y-53485713D01*
X117564895Y-53485713D02*
X117564895Y-53561904D01*
X117564895Y-53561904D02*
X117526800Y-53676190D01*
X117526800Y-53676190D02*
X117450609Y-53752380D01*
X117450609Y-53752380D02*
X117374419Y-53790475D01*
X117374419Y-53790475D02*
X117222038Y-53828571D01*
X117222038Y-53828571D02*
X117107752Y-53828571D01*
X117107752Y-53828571D02*
X116955371Y-53790475D01*
X116955371Y-53790475D02*
X116879180Y-53752380D01*
X116879180Y-53752380D02*
X116802990Y-53676190D01*
X116802990Y-53676190D02*
X116764895Y-53561904D01*
X116764895Y-53561904D02*
X116764895Y-53485713D01*
X116764895Y-53485713D02*
X116802990Y-53371428D01*
X116802990Y-53371428D02*
X116841085Y-53333332D01*
X117564895Y-52571428D02*
X117564895Y-53028571D01*
X117564895Y-52799999D02*
X116764895Y-52799999D01*
X116764895Y-52799999D02*
X116879180Y-52876190D01*
X116879180Y-52876190D02*
X116955371Y-52952380D01*
X116955371Y-52952380D02*
X116993466Y-53028571D01*
D13*
%TO.C,U1*%
X112600000Y-55620000D02*
X115600000Y-55620000D01*
X111600000Y-52380000D02*
X113600000Y-52380000D01*
%TO.C,U3*%
X104500000Y-55660000D02*
X102550000Y-55660000D01*
X104500000Y-50540000D02*
X101050000Y-50540000D01*
X104500000Y-55660000D02*
X106450000Y-55660000D01*
X104500000Y-50540000D02*
X106450000Y-50540000D01*
%TO.C,U2*%
X112100000Y-57740000D02*
X114050000Y-57740000D01*
X112100000Y-62860000D02*
X114050000Y-62860000D01*
X112100000Y-57740000D02*
X108650000Y-57740000D01*
X112100000Y-62860000D02*
X110150000Y-62860000D01*
%TO.C,R17*%
X106977500Y-49037258D02*
X106977500Y-48562742D01*
X108022500Y-49037258D02*
X108022500Y-48562742D01*
%TO.C,R16*%
X105377500Y-48562742D02*
X105377500Y-49037258D01*
X106422500Y-48562742D02*
X106422500Y-49037258D01*
%TO.C,R15*%
X115622500Y-65537258D02*
X115622500Y-65062742D01*
X114577500Y-65537258D02*
X114577500Y-65062742D01*
%TO.C,R14*%
X118822500Y-65537258D02*
X118822500Y-65062742D01*
X117777500Y-65537258D02*
X117777500Y-65062742D01*
%TO.C,R13*%
X117777500Y-58862742D02*
X117777500Y-59337258D01*
X118822500Y-58862742D02*
X118822500Y-59337258D01*
%TO.C,R12*%
X118822500Y-62437258D02*
X118822500Y-61962742D01*
X117777500Y-62437258D02*
X117777500Y-61962742D01*
%TO.C,R11*%
X117222500Y-62437258D02*
X117222500Y-61962742D01*
X116177500Y-62437258D02*
X116177500Y-61962742D01*
%TO.C,R10*%
X117222500Y-59337258D02*
X117222500Y-58862742D01*
X116177500Y-59337258D02*
X116177500Y-58862742D01*
%TO.C,R9*%
X108022500Y-59337258D02*
X108022500Y-58862742D01*
X106977500Y-59337258D02*
X106977500Y-58862742D01*
%TO.C,R8*%
X105377500Y-58862742D02*
X105377500Y-59337258D01*
X106422500Y-58862742D02*
X106422500Y-59337258D01*
%TO.C,R7*%
X106422500Y-62437258D02*
X106422500Y-61962742D01*
X105377500Y-62437258D02*
X105377500Y-61962742D01*
%TO.C,R6*%
X108022500Y-62437258D02*
X108022500Y-61962742D01*
X106977500Y-62437258D02*
X106977500Y-61962742D01*
%TO.C,R5*%
X106422500Y-65537258D02*
X106422500Y-65062742D01*
X105377500Y-65537258D02*
X105377500Y-65062742D01*
%TO.C,R4*%
X109622500Y-65537258D02*
X109622500Y-65062742D01*
X108577500Y-65537258D02*
X108577500Y-65062742D01*
%TO.C,R3*%
X113377500Y-49637742D02*
X113377500Y-50112258D01*
X114422500Y-49637742D02*
X114422500Y-50112258D01*
%TO.C,R2*%
X111277500Y-49637742D02*
X111277500Y-50112258D01*
X112322500Y-49637742D02*
X112322500Y-50112258D01*
%TO.C,R1*%
X115177500Y-49637742D02*
X115177500Y-50112258D01*
X116222500Y-49637742D02*
X116222500Y-50112258D01*
%TO.C,J2*%
X114380000Y-81100000D02*
X113620000Y-81100000D01*
X115330000Y-72440000D02*
X105050000Y-72440000D01*
X114320000Y-75100000D02*
X114320000Y-81100000D01*
X111840000Y-75100000D02*
X111840000Y-81100000D01*
X108540000Y-72042929D02*
X108540000Y-72440000D01*
X106760000Y-81100000D02*
X106000000Y-81100000D01*
X113620000Y-81100000D02*
X113620000Y-75100000D01*
X110190000Y-72440000D02*
X110190000Y-75100000D01*
X114380000Y-75100000D02*
X114380000Y-81100000D01*
X105050000Y-75100000D02*
X115330000Y-75100000D01*
X106000000Y-81100000D02*
X106000000Y-75100000D01*
X115270000Y-69730000D02*
X115270000Y-71000000D01*
X114380000Y-72110000D02*
X114380000Y-72440000D01*
X105050000Y-72440000D02*
X105050000Y-75100000D01*
X113720000Y-75100000D02*
X113720000Y-81100000D01*
X115330000Y-75100000D02*
X115330000Y-72440000D01*
X109300000Y-81100000D02*
X108540000Y-81100000D01*
X106760000Y-75100000D02*
X106760000Y-81100000D01*
X113620000Y-72110000D02*
X113620000Y-72440000D01*
X109300000Y-72042929D02*
X109300000Y-72440000D01*
X106000000Y-72042929D02*
X106000000Y-72440000D01*
X114200000Y-75100000D02*
X114200000Y-81100000D01*
X111080000Y-72042929D02*
X111080000Y-72440000D01*
X108540000Y-81100000D02*
X108540000Y-75100000D01*
X107650000Y-72440000D02*
X107650000Y-75100000D01*
X106760000Y-72042929D02*
X106760000Y-72440000D01*
X113840000Y-75100000D02*
X113840000Y-81100000D01*
X111840000Y-72042929D02*
X111840000Y-72440000D01*
X109300000Y-75100000D02*
X109300000Y-81100000D01*
X114080000Y-75100000D02*
X114080000Y-81100000D01*
X111080000Y-81100000D02*
X111080000Y-75100000D01*
X113960000Y-75100000D02*
X113960000Y-81100000D01*
X112730000Y-72440000D02*
X112730000Y-75100000D01*
X111840000Y-81100000D02*
X111080000Y-81100000D01*
X114000000Y-69730000D02*
X115270000Y-69730000D01*
%TO.C,J1*%
X106360000Y-42857071D02*
X106360000Y-42460000D01*
X110680000Y-39800000D02*
X110680000Y-33800000D01*
X108900000Y-33800000D02*
X108900000Y-39800000D01*
X102110000Y-42460000D02*
X117470000Y-42460000D01*
X103060000Y-42790000D02*
X103060000Y-42460000D01*
X103060000Y-33800000D02*
X103820000Y-33800000D01*
X108900000Y-42857071D02*
X108900000Y-42460000D01*
X103480000Y-39800000D02*
X103480000Y-33800000D01*
X103820000Y-42790000D02*
X103820000Y-42460000D01*
X110680000Y-33800000D02*
X111440000Y-33800000D01*
X115760000Y-42857071D02*
X115760000Y-42460000D01*
X111440000Y-42857071D02*
X111440000Y-42460000D01*
X113220000Y-42857071D02*
X113220000Y-42460000D01*
X103240000Y-39800000D02*
X103240000Y-33800000D01*
X103820000Y-33800000D02*
X103820000Y-39800000D01*
X106360000Y-33800000D02*
X106360000Y-39800000D01*
X105600000Y-33800000D02*
X106360000Y-33800000D01*
X102170000Y-45170000D02*
X102170000Y-43900000D01*
X111440000Y-33800000D02*
X111440000Y-39800000D01*
X104710000Y-42460000D02*
X104710000Y-39800000D01*
X117470000Y-42460000D02*
X117470000Y-39800000D01*
X103360000Y-39800000D02*
X103360000Y-33800000D01*
X108140000Y-39800000D02*
X108140000Y-33800000D01*
X114870000Y-42460000D02*
X114870000Y-39800000D01*
X107250000Y-42460000D02*
X107250000Y-39800000D01*
X103120000Y-39800000D02*
X103120000Y-33800000D01*
X108140000Y-42857071D02*
X108140000Y-42460000D01*
X115760000Y-33800000D02*
X116520000Y-33800000D01*
X102110000Y-39800000D02*
X102110000Y-42460000D01*
X109790000Y-42460000D02*
X109790000Y-39800000D01*
X113980000Y-33800000D02*
X113980000Y-39800000D01*
X103060000Y-39800000D02*
X103060000Y-33800000D01*
X103440000Y-45170000D02*
X102170000Y-45170000D01*
X103600000Y-39800000D02*
X103600000Y-33800000D01*
X113220000Y-33800000D02*
X113980000Y-33800000D01*
X112330000Y-42460000D02*
X112330000Y-39800000D01*
X110680000Y-42857071D02*
X110680000Y-42460000D01*
X117470000Y-39800000D02*
X102110000Y-39800000D01*
X103720000Y-39800000D02*
X103720000Y-33800000D01*
X115760000Y-39800000D02*
X115760000Y-33800000D01*
X105600000Y-39800000D02*
X105600000Y-33800000D01*
X116520000Y-33800000D02*
X116520000Y-39800000D01*
X116520000Y-42857071D02*
X116520000Y-42460000D01*
X105600000Y-42857071D02*
X105600000Y-42460000D01*
X113220000Y-39800000D02*
X113220000Y-33800000D01*
X113980000Y-42857071D02*
X113980000Y-42460000D01*
X108140000Y-33800000D02*
X108900000Y-33800000D01*
%TO.C,C5*%
X103790000Y-48659420D02*
X103790000Y-48940580D01*
X104810000Y-48659420D02*
X104810000Y-48940580D01*
%TO.C,C4*%
X114010000Y-65159420D02*
X114010000Y-65440580D01*
X112990000Y-65159420D02*
X112990000Y-65440580D01*
%TO.C,C3*%
X117210000Y-65440580D02*
X117210000Y-65159420D01*
X116190000Y-65440580D02*
X116190000Y-65159420D01*
%TO.C,C2*%
X108010000Y-65440580D02*
X108010000Y-65159420D01*
X106990000Y-65440580D02*
X106990000Y-65159420D01*
%TO.C,C1*%
X116690000Y-55359420D02*
X116690000Y-55640580D01*
X117710000Y-55359420D02*
X117710000Y-55640580D01*
%TD*%
M02*
