%TF.GenerationSoftware,KiCad,Pcbnew,7.0.10-7.0.10~ubuntu22.04.1*%
%TF.CreationDate,2024-01-27T22:34:07+01:00*%
%TF.ProjectId,pmod_adc12,706d6f64-5f61-4646-9331-322e6b696361,rev?*%
%TF.SameCoordinates,Original*%
%TF.FileFunction,Soldermask,Top*%
%TF.FilePolarity,Negative*%
%FSLAX46Y46*%
G04 Gerber Fmt 4.6, Leading zero omitted, Abs format (unit mm)*
G04 Created by KiCad (PCBNEW 7.0.10-7.0.10~ubuntu22.04.1) date 2024-01-27 22:34:07*
%MOMM*%
%LPD*%
G01*
G04 APERTURE LIST*
G04 Aperture macros list*
%AMRoundRect*
0 Rectangle with rounded corners*
0 $1 Rounding radius*
0 $2 $3 $4 $5 $6 $7 $8 $9 X,Y pos of 4 corners*
0 Add a 4 corners polygon primitive as box body*
4,1,4,$2,$3,$4,$5,$6,$7,$8,$9,$2,$3,0*
0 Add four circle primitives for the rounded corners*
1,1,$1+$1,$2,$3*
1,1,$1+$1,$4,$5*
1,1,$1+$1,$6,$7*
1,1,$1+$1,$8,$9*
0 Add four rect primitives between the rounded corners*
20,1,$1+$1,$2,$3,$4,$5,0*
20,1,$1+$1,$4,$5,$6,$7,0*
20,1,$1+$1,$6,$7,$8,$9,0*
20,1,$1+$1,$8,$9,$2,$3,0*%
G04 Aperture macros list end*
%ADD10R,1.450000X0.450000*%
%ADD11RoundRect,0.150000X-0.825000X-0.150000X0.825000X-0.150000X0.825000X0.150000X-0.825000X0.150000X0*%
%ADD12RoundRect,0.200000X0.275000X-0.200000X0.275000X0.200000X-0.275000X0.200000X-0.275000X-0.200000X0*%
%ADD13RoundRect,0.200000X-0.275000X0.200000X-0.275000X-0.200000X0.275000X-0.200000X0.275000X0.200000X0*%
%ADD14R,1.700000X1.700000*%
%ADD15O,1.700000X1.700000*%
%ADD16RoundRect,0.225000X-0.250000X0.225000X-0.250000X-0.225000X0.250000X-0.225000X0.250000X0.225000X0*%
%ADD17RoundRect,0.225000X0.250000X-0.225000X0.250000X0.225000X-0.250000X0.225000X-0.250000X-0.225000X0*%
G04 APERTURE END LIST*
D10*
%TO.C,U1*%
X114800000Y-54975000D03*
X114800000Y-54325000D03*
X114800000Y-53675000D03*
X114800000Y-53025000D03*
X110400000Y-53025000D03*
X110400000Y-53675000D03*
X110400000Y-54325000D03*
X110400000Y-54975000D03*
%TD*%
D11*
%TO.C,U3*%
X106975000Y-51195000D03*
X106975000Y-52465000D03*
X106975000Y-53735000D03*
X106975000Y-55005000D03*
X102025000Y-55005000D03*
X102025000Y-53735000D03*
X102025000Y-52465000D03*
X102025000Y-51195000D03*
%TD*%
%TO.C,U2*%
X109625000Y-58395000D03*
X109625000Y-59665000D03*
X109625000Y-60935000D03*
X109625000Y-62205000D03*
X114575000Y-62205000D03*
X114575000Y-60935000D03*
X114575000Y-59665000D03*
X114575000Y-58395000D03*
%TD*%
D12*
%TO.C,R17*%
X107500000Y-47975000D03*
X107500000Y-49625000D03*
%TD*%
D13*
%TO.C,R16*%
X105900000Y-47975000D03*
X105900000Y-49625000D03*
%TD*%
D12*
%TO.C,R15*%
X115100000Y-66125000D03*
X115100000Y-64475000D03*
%TD*%
%TO.C,R14*%
X118300000Y-66125000D03*
X118300000Y-64475000D03*
%TD*%
D13*
%TO.C,R13*%
X118300000Y-58275000D03*
X118300000Y-59925000D03*
%TD*%
D12*
%TO.C,R12*%
X118300000Y-63025000D03*
X118300000Y-61375000D03*
%TD*%
%TO.C,R11*%
X116700000Y-63025000D03*
X116700000Y-61375000D03*
%TD*%
%TO.C,R10*%
X116700000Y-59925000D03*
X116700000Y-58275000D03*
%TD*%
%TO.C,R9*%
X107500000Y-59925000D03*
X107500000Y-58275000D03*
%TD*%
D13*
%TO.C,R8*%
X105900000Y-58275000D03*
X105900000Y-59925000D03*
%TD*%
D12*
%TO.C,R7*%
X105900000Y-63025000D03*
X105900000Y-61375000D03*
%TD*%
%TO.C,R6*%
X107500000Y-63025000D03*
X107500000Y-61375000D03*
%TD*%
%TO.C,R5*%
X105900000Y-66125000D03*
X105900000Y-64475000D03*
%TD*%
%TO.C,R4*%
X109100000Y-66125000D03*
X109100000Y-64475000D03*
%TD*%
D13*
%TO.C,R3*%
X113900000Y-49050000D03*
X113900000Y-50700000D03*
%TD*%
%TO.C,R2*%
X111800000Y-49050000D03*
X111800000Y-50700000D03*
%TD*%
%TO.C,R1*%
X115700000Y-49050000D03*
X115700000Y-50700000D03*
%TD*%
D14*
%TO.C,J2*%
X114000000Y-71000000D03*
D15*
X111460000Y-71000000D03*
X108920000Y-71000000D03*
X106380000Y-71000000D03*
%TD*%
D14*
%TO.C,J1*%
X103440000Y-43900000D03*
D15*
X105980000Y-43900000D03*
X108520000Y-43900000D03*
X111060000Y-43900000D03*
X113600000Y-43900000D03*
X116140000Y-43900000D03*
%TD*%
D16*
%TO.C,C5*%
X104300000Y-48025000D03*
X104300000Y-49575000D03*
%TD*%
%TO.C,C4*%
X113500000Y-66075000D03*
X113500000Y-64525000D03*
%TD*%
D17*
%TO.C,C3*%
X116700000Y-66075000D03*
X116700000Y-64525000D03*
%TD*%
%TO.C,C2*%
X107500000Y-66075000D03*
X107500000Y-64525000D03*
%TD*%
D16*
%TO.C,C1*%
X117200000Y-54725000D03*
X117200000Y-56275000D03*
%TD*%
M02*
