%TF.GenerationSoftware,KiCad,Pcbnew,7.0.10-7.0.10~ubuntu22.04.1*%
%TF.CreationDate,2024-01-27T22:34:07+01:00*%
%TF.ProjectId,pmod_adc12,706d6f64-5f61-4646-9331-322e6b696361,rev?*%
%TF.SameCoordinates,Original*%
%TF.FileFunction,Copper,L2,Bot*%
%TF.FilePolarity,Positive*%
%FSLAX46Y46*%
G04 Gerber Fmt 4.6, Leading zero omitted, Abs format (unit mm)*
G04 Created by KiCad (PCBNEW 7.0.10-7.0.10~ubuntu22.04.1) date 2024-01-27 22:34:07*
%MOMM*%
%LPD*%
G01*
G04 APERTURE LIST*
%TA.AperFunction,ComponentPad*%
%ADD10R,1.700000X1.700000*%
%TD*%
%TA.AperFunction,ComponentPad*%
%ADD11O,1.700000X1.700000*%
%TD*%
%TA.AperFunction,ViaPad*%
%ADD12C,0.600000*%
%TD*%
%TA.AperFunction,Conductor*%
%ADD13C,0.127000*%
%TD*%
%TA.AperFunction,Conductor*%
%ADD14C,0.200000*%
%TD*%
G04 APERTURE END LIST*
D10*
%TO.P,J2,1,Pin_1*%
%TO.N,GND*%
X114000000Y-71000000D03*
D11*
%TO.P,J2,2,Pin_2*%
%TO.N,ADC_IN1*%
X111460000Y-71000000D03*
%TO.P,J2,3,Pin_3*%
%TO.N,GND*%
X108920000Y-71000000D03*
%TO.P,J2,4,Pin_4*%
%TO.N,ADC_IN0*%
X106380000Y-71000000D03*
%TD*%
D10*
%TO.P,J1,1,Pin_1*%
%TO.N,+3V3*%
X103440000Y-43900000D03*
D11*
%TO.P,J1,2,Pin_2*%
%TO.N,GND*%
X105980000Y-43900000D03*
%TO.P,J1,3,Pin_3*%
%TO.N,DIN*%
X108520000Y-43900000D03*
%TO.P,J1,4,Pin_4*%
%TO.N,DOUT*%
X111060000Y-43900000D03*
%TO.P,J1,5,Pin_5*%
%TO.N,SCLK*%
X113600000Y-43900000D03*
%TO.P,J1,6,Pin_6*%
%TO.N,CS*%
X116140000Y-43900000D03*
%TD*%
D12*
%TO.N,GND*%
X105500000Y-57000000D03*
X106600000Y-57000000D03*
X107600000Y-57000000D03*
%TO.N,1v65*%
X105200000Y-62400000D03*
X115600000Y-63300000D03*
%TO.N,+3V3*%
X116200000Y-54800000D03*
%TO.N,GND*%
X116500000Y-53700000D03*
X116800000Y-56800000D03*
X110000000Y-56100000D03*
%TO.N,+3V3*%
X108300000Y-51100000D03*
X105900000Y-47975000D03*
%TD*%
D13*
%TO.N,1v65*%
X115600000Y-63300000D02*
X108500000Y-63300000D01*
X108500000Y-63300000D02*
X107600000Y-62400000D01*
X107600000Y-62400000D02*
X105200000Y-62400000D01*
D14*
%TO.N,+3V3*%
X112000000Y-54800000D02*
X116200000Y-54800000D01*
X108300000Y-51100000D02*
X112000000Y-54800000D01*
X108300000Y-51100000D02*
X108300000Y-50375000D01*
X108300000Y-50375000D02*
X105900000Y-47975000D01*
%TD*%
%TA.AperFunction,Conductor*%
%TO.N,GND*%
G36*
X119642539Y-40320185D02*
G01*
X119688294Y-40372989D01*
X119699500Y-40424500D01*
X119699500Y-79575500D01*
X119679815Y-79642539D01*
X119627011Y-79688294D01*
X119575500Y-79699500D01*
X100424500Y-79699500D01*
X100357461Y-79679815D01*
X100311706Y-79627011D01*
X100300500Y-79575500D01*
X100300500Y-71000000D01*
X105224571Y-71000000D01*
X105244244Y-71212310D01*
X105302596Y-71417392D01*
X105302596Y-71417394D01*
X105397632Y-71608253D01*
X105469385Y-71703268D01*
X105526128Y-71778407D01*
X105683698Y-71922052D01*
X105864981Y-72034298D01*
X106063802Y-72111321D01*
X106273390Y-72150500D01*
X106273392Y-72150500D01*
X106486608Y-72150500D01*
X106486610Y-72150500D01*
X106696198Y-72111321D01*
X106895019Y-72034298D01*
X107076302Y-71922052D01*
X107233872Y-71778407D01*
X107362366Y-71608255D01*
X107429325Y-71473781D01*
X107476825Y-71422548D01*
X107544488Y-71405126D01*
X107610828Y-71427051D01*
X107652705Y-71476651D01*
X107746399Y-71677578D01*
X107881894Y-71871082D01*
X108048917Y-72038105D01*
X108242421Y-72173600D01*
X108456507Y-72273429D01*
X108456516Y-72273433D01*
X108670000Y-72330634D01*
X108670000Y-71435501D01*
X108777685Y-71484680D01*
X108884237Y-71500000D01*
X108955763Y-71500000D01*
X109062315Y-71484680D01*
X109170000Y-71435501D01*
X109170000Y-72330633D01*
X109383483Y-72273433D01*
X109383492Y-72273429D01*
X109597578Y-72173600D01*
X109791082Y-72038105D01*
X109958105Y-71871082D01*
X110093600Y-71677578D01*
X110187294Y-71476651D01*
X110233466Y-71424212D01*
X110300660Y-71405060D01*
X110367541Y-71425276D01*
X110410676Y-71473785D01*
X110477632Y-71608253D01*
X110549385Y-71703268D01*
X110606128Y-71778407D01*
X110763698Y-71922052D01*
X110944981Y-72034298D01*
X111143802Y-72111321D01*
X111353390Y-72150500D01*
X111353392Y-72150500D01*
X111566608Y-72150500D01*
X111566610Y-72150500D01*
X111776198Y-72111321D01*
X111975019Y-72034298D01*
X112156302Y-71922052D01*
X112313872Y-71778407D01*
X112427047Y-71628540D01*
X112483155Y-71586905D01*
X112552867Y-71582214D01*
X112614049Y-71615956D01*
X112647276Y-71677419D01*
X112650000Y-71703268D01*
X112650000Y-71897844D01*
X112656401Y-71957372D01*
X112656403Y-71957379D01*
X112706645Y-72092086D01*
X112706649Y-72092093D01*
X112792809Y-72207187D01*
X112792812Y-72207190D01*
X112907906Y-72293350D01*
X112907913Y-72293354D01*
X113042620Y-72343596D01*
X113042627Y-72343598D01*
X113102155Y-72349999D01*
X113102172Y-72350000D01*
X113750000Y-72350000D01*
X113750000Y-71435501D01*
X113857685Y-71484680D01*
X113964237Y-71500000D01*
X114035763Y-71500000D01*
X114142315Y-71484680D01*
X114250000Y-71435501D01*
X114250000Y-72350000D01*
X114897828Y-72350000D01*
X114897844Y-72349999D01*
X114957372Y-72343598D01*
X114957379Y-72343596D01*
X115092086Y-72293354D01*
X115092093Y-72293350D01*
X115207187Y-72207190D01*
X115207190Y-72207187D01*
X115293350Y-72092093D01*
X115293354Y-72092086D01*
X115343596Y-71957379D01*
X115343598Y-71957372D01*
X115349999Y-71897844D01*
X115350000Y-71897827D01*
X115350000Y-71250000D01*
X114433686Y-71250000D01*
X114459493Y-71209844D01*
X114500000Y-71071889D01*
X114500000Y-70928111D01*
X114459493Y-70790156D01*
X114433686Y-70750000D01*
X115350000Y-70750000D01*
X115350000Y-70102172D01*
X115349999Y-70102155D01*
X115343598Y-70042627D01*
X115343596Y-70042620D01*
X115293354Y-69907913D01*
X115293350Y-69907906D01*
X115207190Y-69792812D01*
X115207187Y-69792809D01*
X115092093Y-69706649D01*
X115092086Y-69706645D01*
X114957379Y-69656403D01*
X114957372Y-69656401D01*
X114897844Y-69650000D01*
X114250000Y-69650000D01*
X114250000Y-70564498D01*
X114142315Y-70515320D01*
X114035763Y-70500000D01*
X113964237Y-70500000D01*
X113857685Y-70515320D01*
X113750000Y-70564498D01*
X113750000Y-69650000D01*
X113102155Y-69650000D01*
X113042627Y-69656401D01*
X113042620Y-69656403D01*
X112907913Y-69706645D01*
X112907906Y-69706649D01*
X112792812Y-69792809D01*
X112792809Y-69792812D01*
X112706649Y-69907906D01*
X112706645Y-69907913D01*
X112656403Y-70042620D01*
X112656401Y-70042627D01*
X112650000Y-70102155D01*
X112650000Y-70296731D01*
X112630315Y-70363770D01*
X112577511Y-70409525D01*
X112508353Y-70419469D01*
X112444797Y-70390444D01*
X112427046Y-70371458D01*
X112313872Y-70221593D01*
X112156302Y-70077948D01*
X111975019Y-69965702D01*
X111975017Y-69965701D01*
X111825829Y-69907906D01*
X111776198Y-69888679D01*
X111566610Y-69849500D01*
X111353390Y-69849500D01*
X111143802Y-69888679D01*
X111143799Y-69888679D01*
X111143799Y-69888680D01*
X110944982Y-69965701D01*
X110944980Y-69965702D01*
X110763699Y-70077947D01*
X110606127Y-70221593D01*
X110477634Y-70391744D01*
X110410676Y-70526215D01*
X110363173Y-70577452D01*
X110295510Y-70594873D01*
X110229170Y-70572947D01*
X110187294Y-70523348D01*
X110093600Y-70322422D01*
X110093599Y-70322420D01*
X109958113Y-70128926D01*
X109958108Y-70128920D01*
X109791082Y-69961894D01*
X109597578Y-69826399D01*
X109383492Y-69726570D01*
X109383486Y-69726567D01*
X109170000Y-69669364D01*
X109170000Y-70564498D01*
X109062315Y-70515320D01*
X108955763Y-70500000D01*
X108884237Y-70500000D01*
X108777685Y-70515320D01*
X108670000Y-70564498D01*
X108670000Y-69669364D01*
X108669999Y-69669364D01*
X108456513Y-69726567D01*
X108456507Y-69726570D01*
X108242422Y-69826399D01*
X108242420Y-69826400D01*
X108048926Y-69961886D01*
X108048920Y-69961891D01*
X107881891Y-70128920D01*
X107881886Y-70128926D01*
X107746400Y-70322420D01*
X107746399Y-70322422D01*
X107652705Y-70523348D01*
X107606532Y-70575787D01*
X107539339Y-70594939D01*
X107472457Y-70574723D01*
X107429323Y-70526215D01*
X107362366Y-70391745D01*
X107233872Y-70221593D01*
X107076302Y-70077948D01*
X106895019Y-69965702D01*
X106895017Y-69965701D01*
X106745829Y-69907906D01*
X106696198Y-69888679D01*
X106486610Y-69849500D01*
X106273390Y-69849500D01*
X106063802Y-69888679D01*
X106063799Y-69888679D01*
X106063799Y-69888680D01*
X105864982Y-69965701D01*
X105864980Y-69965702D01*
X105683699Y-70077947D01*
X105526127Y-70221593D01*
X105397632Y-70391746D01*
X105302596Y-70582605D01*
X105302596Y-70582607D01*
X105244244Y-70787689D01*
X105224571Y-70999999D01*
X105224571Y-71000000D01*
X100300500Y-71000000D01*
X100300500Y-62400001D01*
X104594318Y-62400001D01*
X104614955Y-62556760D01*
X104614956Y-62556762D01*
X104671933Y-62694318D01*
X104675464Y-62702841D01*
X104771718Y-62828282D01*
X104897159Y-62924536D01*
X105043238Y-62985044D01*
X105121619Y-62995363D01*
X105199999Y-63005682D01*
X105200000Y-63005682D01*
X105200001Y-63005682D01*
X105264739Y-62997159D01*
X105356762Y-62985044D01*
X105502841Y-62924536D01*
X105628282Y-62828282D01*
X105640383Y-62812511D01*
X105696809Y-62771311D01*
X105738757Y-62764000D01*
X107397865Y-62764000D01*
X107464904Y-62783685D01*
X107485546Y-62800319D01*
X108206824Y-63521597D01*
X108222949Y-63541453D01*
X108228491Y-63549935D01*
X108228494Y-63549939D01*
X108252527Y-63568644D01*
X108263639Y-63578459D01*
X108263945Y-63578717D01*
X108280283Y-63590384D01*
X108284384Y-63593442D01*
X108324358Y-63624554D01*
X108331066Y-63628184D01*
X108337922Y-63631536D01*
X108386486Y-63645994D01*
X108391302Y-63647536D01*
X108439259Y-63664000D01*
X108439264Y-63664000D01*
X108446798Y-63665257D01*
X108454352Y-63666198D01*
X108454353Y-63666199D01*
X108454353Y-63666198D01*
X108454354Y-63666199D01*
X108478967Y-63665180D01*
X108504960Y-63664105D01*
X108510083Y-63664000D01*
X115061243Y-63664000D01*
X115128282Y-63683685D01*
X115159615Y-63712510D01*
X115171718Y-63728282D01*
X115297159Y-63824536D01*
X115443238Y-63885044D01*
X115521619Y-63895363D01*
X115599999Y-63905682D01*
X115600000Y-63905682D01*
X115600001Y-63905682D01*
X115652254Y-63898802D01*
X115756762Y-63885044D01*
X115902841Y-63824536D01*
X116028282Y-63728282D01*
X116124536Y-63602841D01*
X116185044Y-63456762D01*
X116205682Y-63300000D01*
X116185044Y-63143238D01*
X116124536Y-62997159D01*
X116028282Y-62871718D01*
X115902841Y-62775464D01*
X115756762Y-62714956D01*
X115756760Y-62714955D01*
X115600001Y-62694318D01*
X115599999Y-62694318D01*
X115443239Y-62714955D01*
X115443237Y-62714956D01*
X115297160Y-62775463D01*
X115228326Y-62828281D01*
X115171718Y-62871718D01*
X115159616Y-62887488D01*
X115103191Y-62928689D01*
X115061243Y-62936000D01*
X108702136Y-62936000D01*
X108635097Y-62916315D01*
X108614455Y-62899681D01*
X107893172Y-62178398D01*
X107877044Y-62158537D01*
X107871508Y-62150064D01*
X107871504Y-62150059D01*
X107847481Y-62131361D01*
X107836372Y-62121550D01*
X107836060Y-62121286D01*
X107819715Y-62109615D01*
X107815611Y-62106555D01*
X107775641Y-62075445D01*
X107768904Y-62071800D01*
X107762080Y-62068464D01*
X107713522Y-62054007D01*
X107708666Y-62052452D01*
X107678534Y-62042108D01*
X107660739Y-62035999D01*
X107653218Y-62034744D01*
X107645645Y-62033800D01*
X107597003Y-62035812D01*
X107595039Y-62035894D01*
X107589917Y-62036000D01*
X105738757Y-62036000D01*
X105671718Y-62016315D01*
X105640384Y-61987489D01*
X105628282Y-61971718D01*
X105502841Y-61875464D01*
X105356762Y-61814956D01*
X105356760Y-61814955D01*
X105200001Y-61794318D01*
X105199999Y-61794318D01*
X105043239Y-61814955D01*
X105043237Y-61814956D01*
X104897160Y-61875463D01*
X104771718Y-61971718D01*
X104675463Y-62097160D01*
X104614956Y-62243237D01*
X104614955Y-62243239D01*
X104594318Y-62399998D01*
X104594318Y-62400001D01*
X100300500Y-62400001D01*
X100300500Y-47975001D01*
X105294318Y-47975001D01*
X105314955Y-48131760D01*
X105314956Y-48131762D01*
X105375464Y-48277841D01*
X105471718Y-48403282D01*
X105597159Y-48499536D01*
X105743238Y-48560044D01*
X105900000Y-48580682D01*
X105900001Y-48580681D01*
X105903513Y-48581144D01*
X105967410Y-48609410D01*
X105975009Y-48616402D01*
X107863181Y-50504574D01*
X107896666Y-50565897D01*
X107899500Y-50592255D01*
X107899500Y-50593419D01*
X107879815Y-50660458D01*
X107873876Y-50668905D01*
X107775464Y-50797157D01*
X107714956Y-50943237D01*
X107714955Y-50943239D01*
X107694318Y-51099998D01*
X107694318Y-51100001D01*
X107714955Y-51256760D01*
X107714956Y-51256762D01*
X107775464Y-51402841D01*
X107871718Y-51528282D01*
X107997159Y-51624536D01*
X108143238Y-51685044D01*
X108300000Y-51705682D01*
X108300001Y-51705681D01*
X108303513Y-51706144D01*
X108367410Y-51734410D01*
X108375009Y-51741402D01*
X111671950Y-55038342D01*
X111761658Y-55128050D01*
X111781395Y-55138106D01*
X111797981Y-55148269D01*
X111815910Y-55161296D01*
X111815912Y-55161296D01*
X111815913Y-55161297D01*
X111836974Y-55168140D01*
X111854953Y-55175586D01*
X111874696Y-55185646D01*
X111896585Y-55189112D01*
X111915501Y-55193653D01*
X111936567Y-55200499D01*
X111963346Y-55200499D01*
X111963370Y-55200500D01*
X111968481Y-55200500D01*
X115693420Y-55200500D01*
X115760459Y-55220185D01*
X115768907Y-55226124D01*
X115771716Y-55228279D01*
X115771718Y-55228282D01*
X115897159Y-55324536D01*
X116043238Y-55385044D01*
X116121619Y-55395363D01*
X116199999Y-55405682D01*
X116200000Y-55405682D01*
X116200001Y-55405682D01*
X116252254Y-55398802D01*
X116356762Y-55385044D01*
X116502841Y-55324536D01*
X116628282Y-55228282D01*
X116724536Y-55102841D01*
X116785044Y-54956762D01*
X116805682Y-54800000D01*
X116785044Y-54643238D01*
X116724536Y-54497159D01*
X116628282Y-54371718D01*
X116502841Y-54275464D01*
X116356762Y-54214956D01*
X116356760Y-54214955D01*
X116200001Y-54194318D01*
X116199999Y-54194318D01*
X116043239Y-54214955D01*
X116043237Y-54214956D01*
X115897160Y-54275463D01*
X115897159Y-54275464D01*
X115771718Y-54371718D01*
X115771716Y-54371720D01*
X115768907Y-54373876D01*
X115703737Y-54399070D01*
X115693420Y-54399500D01*
X112217254Y-54399500D01*
X112150215Y-54379815D01*
X112129573Y-54363181D01*
X108941402Y-51175009D01*
X108907917Y-51113686D01*
X108906144Y-51103513D01*
X108905681Y-51099998D01*
X108885044Y-50943238D01*
X108824536Y-50797159D01*
X108824535Y-50797158D01*
X108824535Y-50797157D01*
X108726124Y-50668905D01*
X108700930Y-50603736D01*
X108700500Y-50593419D01*
X108700500Y-50311569D01*
X108700499Y-50311565D01*
X108693651Y-50290489D01*
X108689112Y-50271582D01*
X108685646Y-50249696D01*
X108675586Y-50229953D01*
X108668144Y-50211985D01*
X108661297Y-50190911D01*
X108648266Y-50172976D01*
X108638103Y-50156389D01*
X108628050Y-50136658D01*
X108609824Y-50118432D01*
X108609804Y-50118410D01*
X106541402Y-48050009D01*
X106507917Y-47988686D01*
X106506144Y-47978513D01*
X106505681Y-47974998D01*
X106485044Y-47818238D01*
X106424536Y-47672159D01*
X106328282Y-47546718D01*
X106202841Y-47450464D01*
X106056762Y-47389956D01*
X106056760Y-47389955D01*
X105900001Y-47369318D01*
X105899999Y-47369318D01*
X105743239Y-47389955D01*
X105743237Y-47389956D01*
X105597160Y-47450463D01*
X105471718Y-47546718D01*
X105375463Y-47672160D01*
X105314956Y-47818237D01*
X105314955Y-47818239D01*
X105294318Y-47974998D01*
X105294318Y-47975001D01*
X100300500Y-47975001D01*
X100300500Y-44794856D01*
X102289500Y-44794856D01*
X102289502Y-44794882D01*
X102292413Y-44819987D01*
X102292415Y-44819991D01*
X102337793Y-44922764D01*
X102337794Y-44922765D01*
X102417235Y-45002206D01*
X102520009Y-45047585D01*
X102545135Y-45050500D01*
X104334864Y-45050499D01*
X104334879Y-45050497D01*
X104334882Y-45050497D01*
X104359987Y-45047586D01*
X104359988Y-45047585D01*
X104359991Y-45047585D01*
X104462765Y-45002206D01*
X104542206Y-44922765D01*
X104587585Y-44819991D01*
X104590500Y-44794865D01*
X104590499Y-44662516D01*
X104610183Y-44595480D01*
X104662987Y-44549725D01*
X104732145Y-44539781D01*
X104795701Y-44568805D01*
X104816073Y-44591395D01*
X104941890Y-44771078D01*
X105108917Y-44938105D01*
X105302421Y-45073600D01*
X105516507Y-45173429D01*
X105516516Y-45173433D01*
X105730000Y-45230634D01*
X105730000Y-44335501D01*
X105837685Y-44384680D01*
X105944237Y-44400000D01*
X106015763Y-44400000D01*
X106122315Y-44384680D01*
X106230000Y-44335501D01*
X106230000Y-45230633D01*
X106443483Y-45173433D01*
X106443492Y-45173429D01*
X106657578Y-45073600D01*
X106851082Y-44938105D01*
X107018105Y-44771082D01*
X107153600Y-44577578D01*
X107247294Y-44376651D01*
X107293466Y-44324212D01*
X107360660Y-44305060D01*
X107427541Y-44325276D01*
X107470676Y-44373785D01*
X107537632Y-44508253D01*
X107666127Y-44678406D01*
X107666128Y-44678407D01*
X107823698Y-44822052D01*
X108004981Y-44934298D01*
X108203802Y-45011321D01*
X108413390Y-45050500D01*
X108413392Y-45050500D01*
X108626608Y-45050500D01*
X108626610Y-45050500D01*
X108836198Y-45011321D01*
X109035019Y-44934298D01*
X109216302Y-44822052D01*
X109373872Y-44678407D01*
X109502366Y-44508255D01*
X109556270Y-44400000D01*
X109597403Y-44317394D01*
X109597403Y-44317393D01*
X109597405Y-44317389D01*
X109655756Y-44112310D01*
X109666529Y-43996047D01*
X109692315Y-43931111D01*
X109734622Y-43900804D01*
X109843130Y-43900804D01*
X109879503Y-43921668D01*
X109911693Y-43983681D01*
X109913471Y-43996048D01*
X109924244Y-44112310D01*
X109982596Y-44317392D01*
X109982596Y-44317394D01*
X110077632Y-44508253D01*
X110206127Y-44678406D01*
X110206128Y-44678407D01*
X110363698Y-44822052D01*
X110544981Y-44934298D01*
X110743802Y-45011321D01*
X110953390Y-45050500D01*
X110953392Y-45050500D01*
X111166608Y-45050500D01*
X111166610Y-45050500D01*
X111376198Y-45011321D01*
X111575019Y-44934298D01*
X111756302Y-44822052D01*
X111913872Y-44678407D01*
X112042366Y-44508255D01*
X112096270Y-44400000D01*
X112137403Y-44317394D01*
X112137403Y-44317393D01*
X112137405Y-44317389D01*
X112195756Y-44112310D01*
X112206529Y-43996047D01*
X112232315Y-43931111D01*
X112274622Y-43900804D01*
X112383130Y-43900804D01*
X112419503Y-43921668D01*
X112451693Y-43983681D01*
X112453471Y-43996048D01*
X112464244Y-44112310D01*
X112522596Y-44317392D01*
X112522596Y-44317394D01*
X112617632Y-44508253D01*
X112746127Y-44678406D01*
X112746128Y-44678407D01*
X112903698Y-44822052D01*
X113084981Y-44934298D01*
X113283802Y-45011321D01*
X113493390Y-45050500D01*
X113493392Y-45050500D01*
X113706608Y-45050500D01*
X113706610Y-45050500D01*
X113916198Y-45011321D01*
X114115019Y-44934298D01*
X114296302Y-44822052D01*
X114453872Y-44678407D01*
X114582366Y-44508255D01*
X114636270Y-44400000D01*
X114677403Y-44317394D01*
X114677403Y-44317393D01*
X114677405Y-44317389D01*
X114735756Y-44112310D01*
X114746529Y-43996047D01*
X114772315Y-43931111D01*
X114814622Y-43900804D01*
X114923130Y-43900804D01*
X114959503Y-43921668D01*
X114991693Y-43983681D01*
X114993471Y-43996048D01*
X115004244Y-44112310D01*
X115062596Y-44317392D01*
X115062596Y-44317394D01*
X115157632Y-44508253D01*
X115286127Y-44678406D01*
X115286128Y-44678407D01*
X115443698Y-44822052D01*
X115624981Y-44934298D01*
X115823802Y-45011321D01*
X116033390Y-45050500D01*
X116033392Y-45050500D01*
X116246608Y-45050500D01*
X116246610Y-45050500D01*
X116456198Y-45011321D01*
X116655019Y-44934298D01*
X116836302Y-44822052D01*
X116993872Y-44678407D01*
X117122366Y-44508255D01*
X117176270Y-44400000D01*
X117217403Y-44317394D01*
X117217403Y-44317393D01*
X117217405Y-44317389D01*
X117275756Y-44112310D01*
X117295429Y-43900000D01*
X117275756Y-43687690D01*
X117217405Y-43482611D01*
X117217403Y-43482606D01*
X117217403Y-43482605D01*
X117122367Y-43291746D01*
X116993872Y-43121593D01*
X116836302Y-42977948D01*
X116655019Y-42865702D01*
X116655017Y-42865701D01*
X116555608Y-42827190D01*
X116456198Y-42788679D01*
X116246610Y-42749500D01*
X116033390Y-42749500D01*
X115823802Y-42788679D01*
X115823799Y-42788679D01*
X115823799Y-42788680D01*
X115624982Y-42865701D01*
X115624980Y-42865702D01*
X115443699Y-42977947D01*
X115286127Y-43121593D01*
X115157632Y-43291746D01*
X115062596Y-43482605D01*
X115062596Y-43482607D01*
X115004244Y-43687689D01*
X114993471Y-43803951D01*
X114967685Y-43868888D01*
X114923130Y-43900804D01*
X114814622Y-43900804D01*
X114816869Y-43899194D01*
X114780497Y-43878331D01*
X114748307Y-43816318D01*
X114746529Y-43803951D01*
X114745849Y-43796613D01*
X114735756Y-43687690D01*
X114677405Y-43482611D01*
X114677403Y-43482606D01*
X114677403Y-43482605D01*
X114582367Y-43291746D01*
X114453872Y-43121593D01*
X114296302Y-42977948D01*
X114115019Y-42865702D01*
X114115017Y-42865701D01*
X114015608Y-42827190D01*
X113916198Y-42788679D01*
X113706610Y-42749500D01*
X113493390Y-42749500D01*
X113283802Y-42788679D01*
X113283799Y-42788679D01*
X113283799Y-42788680D01*
X113084982Y-42865701D01*
X113084980Y-42865702D01*
X112903699Y-42977947D01*
X112746127Y-43121593D01*
X112617632Y-43291746D01*
X112522596Y-43482605D01*
X112522596Y-43482607D01*
X112464244Y-43687689D01*
X112453471Y-43803951D01*
X112427685Y-43868888D01*
X112383130Y-43900804D01*
X112274622Y-43900804D01*
X112276869Y-43899194D01*
X112240497Y-43878331D01*
X112208307Y-43816318D01*
X112206529Y-43803951D01*
X112205849Y-43796613D01*
X112195756Y-43687690D01*
X112137405Y-43482611D01*
X112137403Y-43482606D01*
X112137403Y-43482605D01*
X112042367Y-43291746D01*
X111913872Y-43121593D01*
X111756302Y-42977948D01*
X111575019Y-42865702D01*
X111575017Y-42865701D01*
X111475608Y-42827190D01*
X111376198Y-42788679D01*
X111166610Y-42749500D01*
X110953390Y-42749500D01*
X110743802Y-42788679D01*
X110743799Y-42788679D01*
X110743799Y-42788680D01*
X110544982Y-42865701D01*
X110544980Y-42865702D01*
X110363699Y-42977947D01*
X110206127Y-43121593D01*
X110077632Y-43291746D01*
X109982596Y-43482605D01*
X109982596Y-43482607D01*
X109924244Y-43687689D01*
X109913471Y-43803951D01*
X109887685Y-43868888D01*
X109843130Y-43900804D01*
X109734622Y-43900804D01*
X109736869Y-43899194D01*
X109700497Y-43878331D01*
X109668307Y-43816318D01*
X109666529Y-43803951D01*
X109665849Y-43796613D01*
X109655756Y-43687690D01*
X109597405Y-43482611D01*
X109597403Y-43482606D01*
X109597403Y-43482605D01*
X109502367Y-43291746D01*
X109373872Y-43121593D01*
X109216302Y-42977948D01*
X109035019Y-42865702D01*
X109035017Y-42865701D01*
X108935608Y-42827190D01*
X108836198Y-42788679D01*
X108626610Y-42749500D01*
X108413390Y-42749500D01*
X108203802Y-42788679D01*
X108203799Y-42788679D01*
X108203799Y-42788680D01*
X108004982Y-42865701D01*
X108004980Y-42865702D01*
X107823699Y-42977947D01*
X107666127Y-43121593D01*
X107537634Y-43291744D01*
X107470676Y-43426215D01*
X107423173Y-43477452D01*
X107355510Y-43494873D01*
X107289170Y-43472947D01*
X107247294Y-43423348D01*
X107153600Y-43222422D01*
X107153599Y-43222420D01*
X107018113Y-43028926D01*
X107018108Y-43028920D01*
X106851082Y-42861894D01*
X106657578Y-42726399D01*
X106443492Y-42626570D01*
X106443486Y-42626567D01*
X106230000Y-42569364D01*
X106230000Y-43464498D01*
X106122315Y-43415320D01*
X106015763Y-43400000D01*
X105944237Y-43400000D01*
X105837685Y-43415320D01*
X105730000Y-43464498D01*
X105730000Y-42569364D01*
X105729999Y-42569364D01*
X105516513Y-42626567D01*
X105516507Y-42626570D01*
X105302422Y-42726399D01*
X105302420Y-42726400D01*
X105108926Y-42861886D01*
X105108920Y-42861891D01*
X104941891Y-43028920D01*
X104941890Y-43028922D01*
X104816074Y-43208606D01*
X104761497Y-43252230D01*
X104691998Y-43259423D01*
X104629644Y-43227901D01*
X104594230Y-43167671D01*
X104590499Y-43137482D01*
X104590499Y-43005143D01*
X104590499Y-43005136D01*
X104590497Y-43005117D01*
X104587586Y-42980012D01*
X104587585Y-42980010D01*
X104587585Y-42980009D01*
X104542206Y-42877235D01*
X104462765Y-42797794D01*
X104442124Y-42788680D01*
X104359992Y-42752415D01*
X104334865Y-42749500D01*
X102545143Y-42749500D01*
X102545117Y-42749502D01*
X102520012Y-42752413D01*
X102520008Y-42752415D01*
X102417235Y-42797793D01*
X102337794Y-42877234D01*
X102292415Y-42980006D01*
X102292415Y-42980008D01*
X102289500Y-43005131D01*
X102289500Y-44794856D01*
X100300500Y-44794856D01*
X100300500Y-40424500D01*
X100320185Y-40357461D01*
X100372989Y-40311706D01*
X100424500Y-40300500D01*
X119575500Y-40300500D01*
X119642539Y-40320185D01*
G37*
%TD.AperFunction*%
%TD*%
M02*
