%TF.GenerationSoftware,KiCad,Pcbnew,7.0.10-7.0.10~ubuntu22.04.1*%
%TF.CreationDate,2024-01-27T22:34:07+01:00*%
%TF.ProjectId,pmod_adc12,706d6f64-5f61-4646-9331-322e6b696361,rev?*%
%TF.SameCoordinates,Original*%
%TF.FileFunction,Legend,Bot*%
%TF.FilePolarity,Positive*%
%FSLAX46Y46*%
G04 Gerber Fmt 4.6, Leading zero omitted, Abs format (unit mm)*
G04 Created by KiCad (PCBNEW 7.0.10-7.0.10~ubuntu22.04.1) date 2024-01-27 22:34:07*
%MOMM*%
%LPD*%
G01*
G04 APERTURE LIST*
%ADD10C,0.200000*%
G04 APERTURE END LIST*
D10*
X114530326Y-68367219D02*
X114530326Y-67367219D01*
X114530326Y-67367219D02*
X114196993Y-68081504D01*
X114196993Y-68081504D02*
X113863660Y-67367219D01*
X113863660Y-67367219D02*
X113863660Y-68367219D01*
X113435088Y-68081504D02*
X112958898Y-68081504D01*
X113530326Y-68367219D02*
X113196993Y-67367219D01*
X113196993Y-67367219D02*
X112863660Y-68367219D01*
X112625564Y-67367219D02*
X111958898Y-68367219D01*
X111958898Y-67367219D02*
X112625564Y-68367219D01*
X110816040Y-67986266D02*
X110054136Y-67986266D01*
X110435088Y-68367219D02*
X110435088Y-67605314D01*
X109577945Y-67986266D02*
X108816041Y-67986266D01*
X107816041Y-68367219D02*
X108387469Y-68367219D01*
X108101755Y-68367219D02*
X108101755Y-67367219D01*
X108101755Y-67367219D02*
X108196993Y-67510076D01*
X108196993Y-67510076D02*
X108292231Y-67605314D01*
X108292231Y-67605314D02*
X108387469Y-67652933D01*
X107435088Y-67462457D02*
X107387469Y-67414838D01*
X107387469Y-67414838D02*
X107292231Y-67367219D01*
X107292231Y-67367219D02*
X107054136Y-67367219D01*
X107054136Y-67367219D02*
X106958898Y-67414838D01*
X106958898Y-67414838D02*
X106911279Y-67462457D01*
X106911279Y-67462457D02*
X106863660Y-67557695D01*
X106863660Y-67557695D02*
X106863660Y-67652933D01*
X106863660Y-67652933D02*
X106911279Y-67795790D01*
X106911279Y-67795790D02*
X107482707Y-68367219D01*
X107482707Y-68367219D02*
X106863660Y-68367219D01*
X106577945Y-67367219D02*
X106244612Y-68367219D01*
X106244612Y-68367219D02*
X105911279Y-67367219D01*
X101767219Y-47569673D02*
X100767219Y-47569673D01*
X100767219Y-47569673D02*
X100767219Y-47807768D01*
X100767219Y-47807768D02*
X100814838Y-47950625D01*
X100814838Y-47950625D02*
X100910076Y-48045863D01*
X100910076Y-48045863D02*
X101005314Y-48093482D01*
X101005314Y-48093482D02*
X101195790Y-48141101D01*
X101195790Y-48141101D02*
X101338647Y-48141101D01*
X101338647Y-48141101D02*
X101529123Y-48093482D01*
X101529123Y-48093482D02*
X101624361Y-48045863D01*
X101624361Y-48045863D02*
X101719600Y-47950625D01*
X101719600Y-47950625D02*
X101767219Y-47807768D01*
X101767219Y-47807768D02*
X101767219Y-47569673D01*
X101719600Y-48950625D02*
X101767219Y-48855387D01*
X101767219Y-48855387D02*
X101767219Y-48664911D01*
X101767219Y-48664911D02*
X101719600Y-48569673D01*
X101719600Y-48569673D02*
X101624361Y-48522054D01*
X101624361Y-48522054D02*
X101243409Y-48522054D01*
X101243409Y-48522054D02*
X101148171Y-48569673D01*
X101148171Y-48569673D02*
X101100552Y-48664911D01*
X101100552Y-48664911D02*
X101100552Y-48855387D01*
X101100552Y-48855387D02*
X101148171Y-48950625D01*
X101148171Y-48950625D02*
X101243409Y-48998244D01*
X101243409Y-48998244D02*
X101338647Y-48998244D01*
X101338647Y-48998244D02*
X101433885Y-48522054D01*
X101719600Y-49379197D02*
X101767219Y-49474435D01*
X101767219Y-49474435D02*
X101767219Y-49664911D01*
X101767219Y-49664911D02*
X101719600Y-49760149D01*
X101719600Y-49760149D02*
X101624361Y-49807768D01*
X101624361Y-49807768D02*
X101576742Y-49807768D01*
X101576742Y-49807768D02*
X101481504Y-49760149D01*
X101481504Y-49760149D02*
X101433885Y-49664911D01*
X101433885Y-49664911D02*
X101433885Y-49522054D01*
X101433885Y-49522054D02*
X101386266Y-49426816D01*
X101386266Y-49426816D02*
X101291028Y-49379197D01*
X101291028Y-49379197D02*
X101243409Y-49379197D01*
X101243409Y-49379197D02*
X101148171Y-49426816D01*
X101148171Y-49426816D02*
X101100552Y-49522054D01*
X101100552Y-49522054D02*
X101100552Y-49664911D01*
X101100552Y-49664911D02*
X101148171Y-49760149D01*
X101767219Y-50236340D02*
X101100552Y-50236340D01*
X100767219Y-50236340D02*
X100814838Y-50188721D01*
X100814838Y-50188721D02*
X100862457Y-50236340D01*
X100862457Y-50236340D02*
X100814838Y-50283959D01*
X100814838Y-50283959D02*
X100767219Y-50236340D01*
X100767219Y-50236340D02*
X100862457Y-50236340D01*
X101100552Y-51141101D02*
X101910076Y-51141101D01*
X101910076Y-51141101D02*
X102005314Y-51093482D01*
X102005314Y-51093482D02*
X102052933Y-51045863D01*
X102052933Y-51045863D02*
X102100552Y-50950625D01*
X102100552Y-50950625D02*
X102100552Y-50807768D01*
X102100552Y-50807768D02*
X102052933Y-50712530D01*
X101719600Y-51141101D02*
X101767219Y-51045863D01*
X101767219Y-51045863D02*
X101767219Y-50855387D01*
X101767219Y-50855387D02*
X101719600Y-50760149D01*
X101719600Y-50760149D02*
X101671980Y-50712530D01*
X101671980Y-50712530D02*
X101576742Y-50664911D01*
X101576742Y-50664911D02*
X101291028Y-50664911D01*
X101291028Y-50664911D02*
X101195790Y-50712530D01*
X101195790Y-50712530D02*
X101148171Y-50760149D01*
X101148171Y-50760149D02*
X101100552Y-50855387D01*
X101100552Y-50855387D02*
X101100552Y-51045863D01*
X101100552Y-51045863D02*
X101148171Y-51141101D01*
X101100552Y-51617292D02*
X101767219Y-51617292D01*
X101195790Y-51617292D02*
X101148171Y-51664911D01*
X101148171Y-51664911D02*
X101100552Y-51760149D01*
X101100552Y-51760149D02*
X101100552Y-51903006D01*
X101100552Y-51903006D02*
X101148171Y-51998244D01*
X101148171Y-51998244D02*
X101243409Y-52045863D01*
X101243409Y-52045863D02*
X101767219Y-52045863D01*
X101719600Y-52903006D02*
X101767219Y-52807768D01*
X101767219Y-52807768D02*
X101767219Y-52617292D01*
X101767219Y-52617292D02*
X101719600Y-52522054D01*
X101719600Y-52522054D02*
X101624361Y-52474435D01*
X101624361Y-52474435D02*
X101243409Y-52474435D01*
X101243409Y-52474435D02*
X101148171Y-52522054D01*
X101148171Y-52522054D02*
X101100552Y-52617292D01*
X101100552Y-52617292D02*
X101100552Y-52807768D01*
X101100552Y-52807768D02*
X101148171Y-52903006D01*
X101148171Y-52903006D02*
X101243409Y-52950625D01*
X101243409Y-52950625D02*
X101338647Y-52950625D01*
X101338647Y-52950625D02*
X101433885Y-52474435D01*
X101767219Y-53807768D02*
X100767219Y-53807768D01*
X101719600Y-53807768D02*
X101767219Y-53712530D01*
X101767219Y-53712530D02*
X101767219Y-53522054D01*
X101767219Y-53522054D02*
X101719600Y-53426816D01*
X101719600Y-53426816D02*
X101671980Y-53379197D01*
X101671980Y-53379197D02*
X101576742Y-53331578D01*
X101576742Y-53331578D02*
X101291028Y-53331578D01*
X101291028Y-53331578D02*
X101195790Y-53379197D01*
X101195790Y-53379197D02*
X101148171Y-53426816D01*
X101148171Y-53426816D02*
X101100552Y-53522054D01*
X101100552Y-53522054D02*
X101100552Y-53712530D01*
X101100552Y-53712530D02*
X101148171Y-53807768D01*
X101767219Y-55045864D02*
X101100552Y-55045864D01*
X100767219Y-55045864D02*
X100814838Y-54998245D01*
X100814838Y-54998245D02*
X100862457Y-55045864D01*
X100862457Y-55045864D02*
X100814838Y-55093483D01*
X100814838Y-55093483D02*
X100767219Y-55045864D01*
X100767219Y-55045864D02*
X100862457Y-55045864D01*
X101100552Y-55522054D02*
X101767219Y-55522054D01*
X101195790Y-55522054D02*
X101148171Y-55569673D01*
X101148171Y-55569673D02*
X101100552Y-55664911D01*
X101100552Y-55664911D02*
X101100552Y-55807768D01*
X101100552Y-55807768D02*
X101148171Y-55903006D01*
X101148171Y-55903006D02*
X101243409Y-55950625D01*
X101243409Y-55950625D02*
X101767219Y-55950625D01*
X100767219Y-57045864D02*
X101767219Y-57379197D01*
X101767219Y-57379197D02*
X100767219Y-57712530D01*
X101767219Y-58474435D02*
X101243409Y-58474435D01*
X101243409Y-58474435D02*
X101148171Y-58426816D01*
X101148171Y-58426816D02*
X101100552Y-58331578D01*
X101100552Y-58331578D02*
X101100552Y-58141102D01*
X101100552Y-58141102D02*
X101148171Y-58045864D01*
X101719600Y-58474435D02*
X101767219Y-58379197D01*
X101767219Y-58379197D02*
X101767219Y-58141102D01*
X101767219Y-58141102D02*
X101719600Y-58045864D01*
X101719600Y-58045864D02*
X101624361Y-57998245D01*
X101624361Y-57998245D02*
X101529123Y-57998245D01*
X101529123Y-57998245D02*
X101433885Y-58045864D01*
X101433885Y-58045864D02*
X101386266Y-58141102D01*
X101386266Y-58141102D02*
X101386266Y-58379197D01*
X101386266Y-58379197D02*
X101338647Y-58474435D01*
X101767219Y-59093483D02*
X101719600Y-58998245D01*
X101719600Y-58998245D02*
X101624361Y-58950626D01*
X101624361Y-58950626D02*
X100767219Y-58950626D01*
X101719600Y-59855388D02*
X101767219Y-59760150D01*
X101767219Y-59760150D02*
X101767219Y-59569674D01*
X101767219Y-59569674D02*
X101719600Y-59474436D01*
X101719600Y-59474436D02*
X101624361Y-59426817D01*
X101624361Y-59426817D02*
X101243409Y-59426817D01*
X101243409Y-59426817D02*
X101148171Y-59474436D01*
X101148171Y-59474436D02*
X101100552Y-59569674D01*
X101100552Y-59569674D02*
X101100552Y-59760150D01*
X101100552Y-59760150D02*
X101148171Y-59855388D01*
X101148171Y-59855388D02*
X101243409Y-59903007D01*
X101243409Y-59903007D02*
X101338647Y-59903007D01*
X101338647Y-59903007D02*
X101433885Y-59426817D01*
X101100552Y-60331579D02*
X101767219Y-60331579D01*
X101195790Y-60331579D02*
X101148171Y-60379198D01*
X101148171Y-60379198D02*
X101100552Y-60474436D01*
X101100552Y-60474436D02*
X101100552Y-60617293D01*
X101100552Y-60617293D02*
X101148171Y-60712531D01*
X101148171Y-60712531D02*
X101243409Y-60760150D01*
X101243409Y-60760150D02*
X101767219Y-60760150D01*
X101719600Y-61664912D02*
X101767219Y-61569674D01*
X101767219Y-61569674D02*
X101767219Y-61379198D01*
X101767219Y-61379198D02*
X101719600Y-61283960D01*
X101719600Y-61283960D02*
X101671980Y-61236341D01*
X101671980Y-61236341D02*
X101576742Y-61188722D01*
X101576742Y-61188722D02*
X101291028Y-61188722D01*
X101291028Y-61188722D02*
X101195790Y-61236341D01*
X101195790Y-61236341D02*
X101148171Y-61283960D01*
X101148171Y-61283960D02*
X101100552Y-61379198D01*
X101100552Y-61379198D02*
X101100552Y-61569674D01*
X101100552Y-61569674D02*
X101148171Y-61664912D01*
X101767219Y-62093484D02*
X101100552Y-62093484D01*
X100767219Y-62093484D02*
X100814838Y-62045865D01*
X100814838Y-62045865D02*
X100862457Y-62093484D01*
X100862457Y-62093484D02*
X100814838Y-62141103D01*
X100814838Y-62141103D02*
X100767219Y-62093484D01*
X100767219Y-62093484D02*
X100862457Y-62093484D01*
X101767219Y-62998245D02*
X101243409Y-62998245D01*
X101243409Y-62998245D02*
X101148171Y-62950626D01*
X101148171Y-62950626D02*
X101100552Y-62855388D01*
X101100552Y-62855388D02*
X101100552Y-62664912D01*
X101100552Y-62664912D02*
X101148171Y-62569674D01*
X101719600Y-62998245D02*
X101767219Y-62903007D01*
X101767219Y-62903007D02*
X101767219Y-62664912D01*
X101767219Y-62664912D02*
X101719600Y-62569674D01*
X101719600Y-62569674D02*
X101624361Y-62522055D01*
X101624361Y-62522055D02*
X101529123Y-62522055D01*
X101529123Y-62522055D02*
X101433885Y-62569674D01*
X101433885Y-62569674D02*
X101386266Y-62664912D01*
X101386266Y-62664912D02*
X101386266Y-62903007D01*
X101386266Y-62903007D02*
X101338647Y-62998245D01*
M02*
