%TF.GenerationSoftware,KiCad,Pcbnew,7.0.10-7.0.10~ubuntu22.04.1*%
%TF.CreationDate,2024-01-27T22:34:03+01:00*%
%TF.ProjectId,pmod_adc12,706d6f64-5f61-4646-9331-322e6b696361,rev?*%
%TF.SameCoordinates,Original*%
%TF.FileFunction,Drillmap*%
%TF.FilePolarity,Positive*%
%FSLAX45Y45*%
G04 Gerber Fmt 4.5, Leading zero omitted, Abs format (unit mm)*
G04 Created by KiCad (PCBNEW 7.0.10-7.0.10~ubuntu22.04.1) date 2024-01-27 22:34:03*
%MOMM*%
%LPD*%
G01*
G04 APERTURE LIST*
%ADD10C,0.100000*%
%ADD11C,0.200000*%
G04 APERTURE END LIST*
D10*
X10000000Y-8000000D02*
X10000000Y-4000000D01*
X12000000Y-8000000D02*
X10000000Y-8000000D01*
X12000000Y-4000000D02*
X12000000Y-8000000D01*
X10000000Y-4000000D02*
X12000000Y-4000000D01*
D11*
D10*
X10505000Y-6225000D02*
X10535000Y-6255000D01*
X10535000Y-6225000D02*
X10505000Y-6255000D01*
X10535000Y-5685000D02*
X10565000Y-5715000D01*
X10565000Y-5685000D02*
X10535000Y-5715000D01*
X10575000Y-4782500D02*
X10605000Y-4812500D01*
X10605000Y-4782500D02*
X10575000Y-4812500D01*
X10645000Y-5685000D02*
X10675000Y-5715000D01*
X10675000Y-5685000D02*
X10645000Y-5715000D01*
X10745000Y-5685000D02*
X10775000Y-5715000D01*
X10775000Y-5685000D02*
X10745000Y-5715000D01*
X10815000Y-5095000D02*
X10845000Y-5125000D01*
X10845000Y-5095000D02*
X10815000Y-5125000D01*
X10985000Y-5595000D02*
X11015000Y-5625000D01*
X11015000Y-5595000D02*
X10985000Y-5625000D01*
X11545000Y-6315000D02*
X11575000Y-6345000D01*
X11575000Y-6315000D02*
X11545000Y-6345000D01*
X11605000Y-5465000D02*
X11635000Y-5495000D01*
X11635000Y-5465000D02*
X11605000Y-5495000D01*
X11635000Y-5355000D02*
X11665000Y-5385000D01*
X11665000Y-5355000D02*
X11635000Y-5385000D01*
X11665000Y-5665000D02*
X11695000Y-5695000D01*
X11695000Y-5665000D02*
X11665000Y-5695000D01*
X10394000Y-4390000D02*
G75*
G03*
X10294000Y-4390000I-50000J0D01*
G01*
X10294000Y-4390000D02*
G75*
G03*
X10394000Y-4390000I50000J0D01*
G01*
X10648000Y-4390000D02*
G75*
G03*
X10548000Y-4390000I-50000J0D01*
G01*
X10548000Y-4390000D02*
G75*
G03*
X10648000Y-4390000I50000J0D01*
G01*
X10688000Y-7100000D02*
G75*
G03*
X10588000Y-7100000I-50000J0D01*
G01*
X10588000Y-7100000D02*
G75*
G03*
X10688000Y-7100000I50000J0D01*
G01*
X10902000Y-4390000D02*
G75*
G03*
X10802000Y-4390000I-50000J0D01*
G01*
X10802000Y-4390000D02*
G75*
G03*
X10902000Y-4390000I50000J0D01*
G01*
X10942000Y-7100000D02*
G75*
G03*
X10842000Y-7100000I-50000J0D01*
G01*
X10842000Y-7100000D02*
G75*
G03*
X10942000Y-7100000I50000J0D01*
G01*
X11156000Y-4390000D02*
G75*
G03*
X11056000Y-4390000I-50000J0D01*
G01*
X11056000Y-4390000D02*
G75*
G03*
X11156000Y-4390000I50000J0D01*
G01*
X11196000Y-7100000D02*
G75*
G03*
X11096000Y-7100000I-50000J0D01*
G01*
X11096000Y-7100000D02*
G75*
G03*
X11196000Y-7100000I50000J0D01*
G01*
X11410000Y-4390000D02*
G75*
G03*
X11310000Y-4390000I-50000J0D01*
G01*
X11310000Y-4390000D02*
G75*
G03*
X11410000Y-4390000I50000J0D01*
G01*
X11450000Y-7100000D02*
G75*
G03*
X11350000Y-7100000I-50000J0D01*
G01*
X11350000Y-7100000D02*
G75*
G03*
X11450000Y-7100000I50000J0D01*
G01*
X11664000Y-4390000D02*
G75*
G03*
X11564000Y-4390000I-50000J0D01*
G01*
X11564000Y-4390000D02*
G75*
G03*
X11664000Y-4390000I50000J0D01*
G01*
D11*
X10255777Y-8316484D02*
X10255777Y-8116484D01*
X10255777Y-8116484D02*
X10303396Y-8116484D01*
X10303396Y-8116484D02*
X10331967Y-8126008D01*
X10331967Y-8126008D02*
X10351015Y-8145055D01*
X10351015Y-8145055D02*
X10360539Y-8164103D01*
X10360539Y-8164103D02*
X10370063Y-8202198D01*
X10370063Y-8202198D02*
X10370063Y-8230769D01*
X10370063Y-8230769D02*
X10360539Y-8268865D01*
X10360539Y-8268865D02*
X10351015Y-8287912D01*
X10351015Y-8287912D02*
X10331967Y-8306960D01*
X10331967Y-8306960D02*
X10303396Y-8316484D01*
X10303396Y-8316484D02*
X10255777Y-8316484D01*
X10455777Y-8316484D02*
X10455777Y-8183150D01*
X10455777Y-8221246D02*
X10465301Y-8202198D01*
X10465301Y-8202198D02*
X10474824Y-8192674D01*
X10474824Y-8192674D02*
X10493872Y-8183150D01*
X10493872Y-8183150D02*
X10512920Y-8183150D01*
X10579586Y-8316484D02*
X10579586Y-8183150D01*
X10579586Y-8116484D02*
X10570063Y-8126008D01*
X10570063Y-8126008D02*
X10579586Y-8135531D01*
X10579586Y-8135531D02*
X10589110Y-8126008D01*
X10589110Y-8126008D02*
X10579586Y-8116484D01*
X10579586Y-8116484D02*
X10579586Y-8135531D01*
X10703396Y-8316484D02*
X10684348Y-8306960D01*
X10684348Y-8306960D02*
X10674824Y-8287912D01*
X10674824Y-8287912D02*
X10674824Y-8116484D01*
X10808158Y-8316484D02*
X10789110Y-8306960D01*
X10789110Y-8306960D02*
X10779586Y-8287912D01*
X10779586Y-8287912D02*
X10779586Y-8116484D01*
X11036729Y-8316484D02*
X11036729Y-8116484D01*
X11036729Y-8116484D02*
X11103396Y-8259341D01*
X11103396Y-8259341D02*
X11170063Y-8116484D01*
X11170063Y-8116484D02*
X11170063Y-8316484D01*
X11351015Y-8316484D02*
X11351015Y-8211722D01*
X11351015Y-8211722D02*
X11341491Y-8192674D01*
X11341491Y-8192674D02*
X11322443Y-8183150D01*
X11322443Y-8183150D02*
X11284348Y-8183150D01*
X11284348Y-8183150D02*
X11265301Y-8192674D01*
X11351015Y-8306960D02*
X11331967Y-8316484D01*
X11331967Y-8316484D02*
X11284348Y-8316484D01*
X11284348Y-8316484D02*
X11265301Y-8306960D01*
X11265301Y-8306960D02*
X11255777Y-8287912D01*
X11255777Y-8287912D02*
X11255777Y-8268865D01*
X11255777Y-8268865D02*
X11265301Y-8249817D01*
X11265301Y-8249817D02*
X11284348Y-8240293D01*
X11284348Y-8240293D02*
X11331967Y-8240293D01*
X11331967Y-8240293D02*
X11351015Y-8230769D01*
X11446253Y-8183150D02*
X11446253Y-8383150D01*
X11446253Y-8192674D02*
X11465301Y-8183150D01*
X11465301Y-8183150D02*
X11503396Y-8183150D01*
X11503396Y-8183150D02*
X11522443Y-8192674D01*
X11522443Y-8192674D02*
X11531967Y-8202198D01*
X11531967Y-8202198D02*
X11541491Y-8221246D01*
X11541491Y-8221246D02*
X11541491Y-8278388D01*
X11541491Y-8278388D02*
X11531967Y-8297436D01*
X11531967Y-8297436D02*
X11522443Y-8306960D01*
X11522443Y-8306960D02*
X11503396Y-8316484D01*
X11503396Y-8316484D02*
X11465301Y-8316484D01*
X11465301Y-8316484D02*
X11446253Y-8306960D01*
X11627205Y-8297436D02*
X11636729Y-8306960D01*
X11636729Y-8306960D02*
X11627205Y-8316484D01*
X11627205Y-8316484D02*
X11617682Y-8306960D01*
X11617682Y-8306960D02*
X11627205Y-8297436D01*
X11627205Y-8297436D02*
X11627205Y-8316484D01*
X11627205Y-8192674D02*
X11636729Y-8202198D01*
X11636729Y-8202198D02*
X11627205Y-8211722D01*
X11627205Y-8211722D02*
X11617682Y-8202198D01*
X11617682Y-8202198D02*
X11627205Y-8192674D01*
X11627205Y-8192674D02*
X11627205Y-8211722D01*
D10*
X9965000Y-8630000D02*
X9995000Y-8660000D01*
X9995000Y-8630000D02*
X9965000Y-8660000D01*
D11*
X10293872Y-8536484D02*
X10312920Y-8536484D01*
X10312920Y-8536484D02*
X10331967Y-8546008D01*
X10331967Y-8546008D02*
X10341491Y-8555531D01*
X10341491Y-8555531D02*
X10351015Y-8574579D01*
X10351015Y-8574579D02*
X10360539Y-8612674D01*
X10360539Y-8612674D02*
X10360539Y-8660293D01*
X10360539Y-8660293D02*
X10351015Y-8698389D01*
X10351015Y-8698389D02*
X10341491Y-8717436D01*
X10341491Y-8717436D02*
X10331967Y-8726960D01*
X10331967Y-8726960D02*
X10312920Y-8736484D01*
X10312920Y-8736484D02*
X10293872Y-8736484D01*
X10293872Y-8736484D02*
X10274824Y-8726960D01*
X10274824Y-8726960D02*
X10265301Y-8717436D01*
X10265301Y-8717436D02*
X10255777Y-8698389D01*
X10255777Y-8698389D02*
X10246253Y-8660293D01*
X10246253Y-8660293D02*
X10246253Y-8612674D01*
X10246253Y-8612674D02*
X10255777Y-8574579D01*
X10255777Y-8574579D02*
X10265301Y-8555531D01*
X10265301Y-8555531D02*
X10274824Y-8546008D01*
X10274824Y-8546008D02*
X10293872Y-8536484D01*
X10446253Y-8717436D02*
X10455777Y-8726960D01*
X10455777Y-8726960D02*
X10446253Y-8736484D01*
X10446253Y-8736484D02*
X10436729Y-8726960D01*
X10436729Y-8726960D02*
X10446253Y-8717436D01*
X10446253Y-8717436D02*
X10446253Y-8736484D01*
X10522444Y-8536484D02*
X10646253Y-8536484D01*
X10646253Y-8536484D02*
X10579586Y-8612674D01*
X10579586Y-8612674D02*
X10608158Y-8612674D01*
X10608158Y-8612674D02*
X10627205Y-8622198D01*
X10627205Y-8622198D02*
X10636729Y-8631722D01*
X10636729Y-8631722D02*
X10646253Y-8650770D01*
X10646253Y-8650770D02*
X10646253Y-8698389D01*
X10646253Y-8698389D02*
X10636729Y-8717436D01*
X10636729Y-8717436D02*
X10627205Y-8726960D01*
X10627205Y-8726960D02*
X10608158Y-8736484D01*
X10608158Y-8736484D02*
X10551015Y-8736484D01*
X10551015Y-8736484D02*
X10531967Y-8726960D01*
X10531967Y-8726960D02*
X10522444Y-8717436D01*
X10770063Y-8536484D02*
X10789110Y-8536484D01*
X10789110Y-8536484D02*
X10808158Y-8546008D01*
X10808158Y-8546008D02*
X10817682Y-8555531D01*
X10817682Y-8555531D02*
X10827205Y-8574579D01*
X10827205Y-8574579D02*
X10836729Y-8612674D01*
X10836729Y-8612674D02*
X10836729Y-8660293D01*
X10836729Y-8660293D02*
X10827205Y-8698389D01*
X10827205Y-8698389D02*
X10817682Y-8717436D01*
X10817682Y-8717436D02*
X10808158Y-8726960D01*
X10808158Y-8726960D02*
X10789110Y-8736484D01*
X10789110Y-8736484D02*
X10770063Y-8736484D01*
X10770063Y-8736484D02*
X10751015Y-8726960D01*
X10751015Y-8726960D02*
X10741491Y-8717436D01*
X10741491Y-8717436D02*
X10731967Y-8698389D01*
X10731967Y-8698389D02*
X10722444Y-8660293D01*
X10722444Y-8660293D02*
X10722444Y-8612674D01*
X10722444Y-8612674D02*
X10731967Y-8574579D01*
X10731967Y-8574579D02*
X10741491Y-8555531D01*
X10741491Y-8555531D02*
X10751015Y-8546008D01*
X10751015Y-8546008D02*
X10770063Y-8536484D01*
X10960539Y-8536484D02*
X10979586Y-8536484D01*
X10979586Y-8536484D02*
X10998634Y-8546008D01*
X10998634Y-8546008D02*
X11008158Y-8555531D01*
X11008158Y-8555531D02*
X11017682Y-8574579D01*
X11017682Y-8574579D02*
X11027205Y-8612674D01*
X11027205Y-8612674D02*
X11027205Y-8660293D01*
X11027205Y-8660293D02*
X11017682Y-8698389D01*
X11017682Y-8698389D02*
X11008158Y-8717436D01*
X11008158Y-8717436D02*
X10998634Y-8726960D01*
X10998634Y-8726960D02*
X10979586Y-8736484D01*
X10979586Y-8736484D02*
X10960539Y-8736484D01*
X10960539Y-8736484D02*
X10941491Y-8726960D01*
X10941491Y-8726960D02*
X10931967Y-8717436D01*
X10931967Y-8717436D02*
X10922444Y-8698389D01*
X10922444Y-8698389D02*
X10912920Y-8660293D01*
X10912920Y-8660293D02*
X10912920Y-8612674D01*
X10912920Y-8612674D02*
X10922444Y-8574579D01*
X10922444Y-8574579D02*
X10931967Y-8555531D01*
X10931967Y-8555531D02*
X10941491Y-8546008D01*
X10941491Y-8546008D02*
X10960539Y-8536484D01*
X11112920Y-8736484D02*
X11112920Y-8603150D01*
X11112920Y-8622198D02*
X11122444Y-8612674D01*
X11122444Y-8612674D02*
X11141491Y-8603150D01*
X11141491Y-8603150D02*
X11170063Y-8603150D01*
X11170063Y-8603150D02*
X11189110Y-8612674D01*
X11189110Y-8612674D02*
X11198634Y-8631722D01*
X11198634Y-8631722D02*
X11198634Y-8736484D01*
X11198634Y-8631722D02*
X11208158Y-8612674D01*
X11208158Y-8612674D02*
X11227205Y-8603150D01*
X11227205Y-8603150D02*
X11255777Y-8603150D01*
X11255777Y-8603150D02*
X11274824Y-8612674D01*
X11274824Y-8612674D02*
X11284348Y-8631722D01*
X11284348Y-8631722D02*
X11284348Y-8736484D01*
X11379586Y-8736484D02*
X11379586Y-8603150D01*
X11379586Y-8622198D02*
X11389110Y-8612674D01*
X11389110Y-8612674D02*
X11408158Y-8603150D01*
X11408158Y-8603150D02*
X11436729Y-8603150D01*
X11436729Y-8603150D02*
X11455777Y-8612674D01*
X11455777Y-8612674D02*
X11465301Y-8631722D01*
X11465301Y-8631722D02*
X11465301Y-8736484D01*
X11465301Y-8631722D02*
X11474824Y-8612674D01*
X11474824Y-8612674D02*
X11493872Y-8603150D01*
X11493872Y-8603150D02*
X11522443Y-8603150D01*
X11522443Y-8603150D02*
X11541491Y-8612674D01*
X11541491Y-8612674D02*
X11551015Y-8631722D01*
X11551015Y-8631722D02*
X11551015Y-8736484D01*
X11941491Y-8526960D02*
X11770063Y-8784103D01*
X12198634Y-8536484D02*
X12217682Y-8536484D01*
X12217682Y-8536484D02*
X12236729Y-8546008D01*
X12236729Y-8546008D02*
X12246253Y-8555531D01*
X12246253Y-8555531D02*
X12255777Y-8574579D01*
X12255777Y-8574579D02*
X12265301Y-8612674D01*
X12265301Y-8612674D02*
X12265301Y-8660293D01*
X12265301Y-8660293D02*
X12255777Y-8698389D01*
X12255777Y-8698389D02*
X12246253Y-8717436D01*
X12246253Y-8717436D02*
X12236729Y-8726960D01*
X12236729Y-8726960D02*
X12217682Y-8736484D01*
X12217682Y-8736484D02*
X12198634Y-8736484D01*
X12198634Y-8736484D02*
X12179586Y-8726960D01*
X12179586Y-8726960D02*
X12170063Y-8717436D01*
X12170063Y-8717436D02*
X12160539Y-8698389D01*
X12160539Y-8698389D02*
X12151015Y-8660293D01*
X12151015Y-8660293D02*
X12151015Y-8612674D01*
X12151015Y-8612674D02*
X12160539Y-8574579D01*
X12160539Y-8574579D02*
X12170063Y-8555531D01*
X12170063Y-8555531D02*
X12179586Y-8546008D01*
X12179586Y-8546008D02*
X12198634Y-8536484D01*
X12351015Y-8717436D02*
X12360539Y-8726960D01*
X12360539Y-8726960D02*
X12351015Y-8736484D01*
X12351015Y-8736484D02*
X12341491Y-8726960D01*
X12341491Y-8726960D02*
X12351015Y-8717436D01*
X12351015Y-8717436D02*
X12351015Y-8736484D01*
X12484348Y-8536484D02*
X12503396Y-8536484D01*
X12503396Y-8536484D02*
X12522444Y-8546008D01*
X12522444Y-8546008D02*
X12531967Y-8555531D01*
X12531967Y-8555531D02*
X12541491Y-8574579D01*
X12541491Y-8574579D02*
X12551015Y-8612674D01*
X12551015Y-8612674D02*
X12551015Y-8660293D01*
X12551015Y-8660293D02*
X12541491Y-8698389D01*
X12541491Y-8698389D02*
X12531967Y-8717436D01*
X12531967Y-8717436D02*
X12522444Y-8726960D01*
X12522444Y-8726960D02*
X12503396Y-8736484D01*
X12503396Y-8736484D02*
X12484348Y-8736484D01*
X12484348Y-8736484D02*
X12465301Y-8726960D01*
X12465301Y-8726960D02*
X12455777Y-8717436D01*
X12455777Y-8717436D02*
X12446253Y-8698389D01*
X12446253Y-8698389D02*
X12436729Y-8660293D01*
X12436729Y-8660293D02*
X12436729Y-8612674D01*
X12436729Y-8612674D02*
X12446253Y-8574579D01*
X12446253Y-8574579D02*
X12455777Y-8555531D01*
X12455777Y-8555531D02*
X12465301Y-8546008D01*
X12465301Y-8546008D02*
X12484348Y-8536484D01*
X12741491Y-8736484D02*
X12627206Y-8736484D01*
X12684348Y-8736484D02*
X12684348Y-8536484D01*
X12684348Y-8536484D02*
X12665301Y-8565055D01*
X12665301Y-8565055D02*
X12646253Y-8584103D01*
X12646253Y-8584103D02*
X12627206Y-8593627D01*
X12931967Y-8736484D02*
X12817682Y-8736484D01*
X12874825Y-8736484D02*
X12874825Y-8536484D01*
X12874825Y-8536484D02*
X12855777Y-8565055D01*
X12855777Y-8565055D02*
X12836729Y-8584103D01*
X12836729Y-8584103D02*
X12817682Y-8593627D01*
X13046253Y-8622198D02*
X13027206Y-8612674D01*
X13027206Y-8612674D02*
X13017682Y-8603150D01*
X13017682Y-8603150D02*
X13008158Y-8584103D01*
X13008158Y-8584103D02*
X13008158Y-8574579D01*
X13008158Y-8574579D02*
X13017682Y-8555531D01*
X13017682Y-8555531D02*
X13027206Y-8546008D01*
X13027206Y-8546008D02*
X13046253Y-8536484D01*
X13046253Y-8536484D02*
X13084348Y-8536484D01*
X13084348Y-8536484D02*
X13103396Y-8546008D01*
X13103396Y-8546008D02*
X13112920Y-8555531D01*
X13112920Y-8555531D02*
X13122444Y-8574579D01*
X13122444Y-8574579D02*
X13122444Y-8584103D01*
X13122444Y-8584103D02*
X13112920Y-8603150D01*
X13112920Y-8603150D02*
X13103396Y-8612674D01*
X13103396Y-8612674D02*
X13084348Y-8622198D01*
X13084348Y-8622198D02*
X13046253Y-8622198D01*
X13046253Y-8622198D02*
X13027206Y-8631722D01*
X13027206Y-8631722D02*
X13017682Y-8641246D01*
X13017682Y-8641246D02*
X13008158Y-8660293D01*
X13008158Y-8660293D02*
X13008158Y-8698389D01*
X13008158Y-8698389D02*
X13017682Y-8717436D01*
X13017682Y-8717436D02*
X13027206Y-8726960D01*
X13027206Y-8726960D02*
X13046253Y-8736484D01*
X13046253Y-8736484D02*
X13084348Y-8736484D01*
X13084348Y-8736484D02*
X13103396Y-8726960D01*
X13103396Y-8726960D02*
X13112920Y-8717436D01*
X13112920Y-8717436D02*
X13122444Y-8698389D01*
X13122444Y-8698389D02*
X13122444Y-8660293D01*
X13122444Y-8660293D02*
X13112920Y-8641246D01*
X13112920Y-8641246D02*
X13103396Y-8631722D01*
X13103396Y-8631722D02*
X13084348Y-8622198D01*
X13198634Y-8536484D02*
X13198634Y-8574579D01*
X13274825Y-8536484D02*
X13274825Y-8574579D01*
X13570063Y-8812674D02*
X13560539Y-8803150D01*
X13560539Y-8803150D02*
X13541491Y-8774579D01*
X13541491Y-8774579D02*
X13531968Y-8755531D01*
X13531968Y-8755531D02*
X13522444Y-8726960D01*
X13522444Y-8726960D02*
X13512920Y-8679341D01*
X13512920Y-8679341D02*
X13512920Y-8641246D01*
X13512920Y-8641246D02*
X13522444Y-8593627D01*
X13522444Y-8593627D02*
X13531968Y-8565055D01*
X13531968Y-8565055D02*
X13541491Y-8546008D01*
X13541491Y-8546008D02*
X13560539Y-8517436D01*
X13560539Y-8517436D02*
X13570063Y-8507912D01*
X13751015Y-8736484D02*
X13636729Y-8736484D01*
X13693872Y-8736484D02*
X13693872Y-8536484D01*
X13693872Y-8536484D02*
X13674825Y-8565055D01*
X13674825Y-8565055D02*
X13655777Y-8584103D01*
X13655777Y-8584103D02*
X13636729Y-8593627D01*
X13941491Y-8736484D02*
X13827206Y-8736484D01*
X13884348Y-8736484D02*
X13884348Y-8536484D01*
X13884348Y-8536484D02*
X13865301Y-8565055D01*
X13865301Y-8565055D02*
X13846253Y-8584103D01*
X13846253Y-8584103D02*
X13827206Y-8593627D01*
X14179587Y-8736484D02*
X14179587Y-8536484D01*
X14265301Y-8736484D02*
X14265301Y-8631722D01*
X14265301Y-8631722D02*
X14255777Y-8612674D01*
X14255777Y-8612674D02*
X14236730Y-8603150D01*
X14236730Y-8603150D02*
X14208158Y-8603150D01*
X14208158Y-8603150D02*
X14189110Y-8612674D01*
X14189110Y-8612674D02*
X14179587Y-8622198D01*
X14389110Y-8736484D02*
X14370063Y-8726960D01*
X14370063Y-8726960D02*
X14360539Y-8717436D01*
X14360539Y-8717436D02*
X14351015Y-8698389D01*
X14351015Y-8698389D02*
X14351015Y-8641246D01*
X14351015Y-8641246D02*
X14360539Y-8622198D01*
X14360539Y-8622198D02*
X14370063Y-8612674D01*
X14370063Y-8612674D02*
X14389110Y-8603150D01*
X14389110Y-8603150D02*
X14417682Y-8603150D01*
X14417682Y-8603150D02*
X14436730Y-8612674D01*
X14436730Y-8612674D02*
X14446253Y-8622198D01*
X14446253Y-8622198D02*
X14455777Y-8641246D01*
X14455777Y-8641246D02*
X14455777Y-8698389D01*
X14455777Y-8698389D02*
X14446253Y-8717436D01*
X14446253Y-8717436D02*
X14436730Y-8726960D01*
X14436730Y-8726960D02*
X14417682Y-8736484D01*
X14417682Y-8736484D02*
X14389110Y-8736484D01*
X14570063Y-8736484D02*
X14551015Y-8726960D01*
X14551015Y-8726960D02*
X14541491Y-8707912D01*
X14541491Y-8707912D02*
X14541491Y-8536484D01*
X14722444Y-8726960D02*
X14703396Y-8736484D01*
X14703396Y-8736484D02*
X14665301Y-8736484D01*
X14665301Y-8736484D02*
X14646253Y-8726960D01*
X14646253Y-8726960D02*
X14636730Y-8707912D01*
X14636730Y-8707912D02*
X14636730Y-8631722D01*
X14636730Y-8631722D02*
X14646253Y-8612674D01*
X14646253Y-8612674D02*
X14665301Y-8603150D01*
X14665301Y-8603150D02*
X14703396Y-8603150D01*
X14703396Y-8603150D02*
X14722444Y-8612674D01*
X14722444Y-8612674D02*
X14731968Y-8631722D01*
X14731968Y-8631722D02*
X14731968Y-8650770D01*
X14731968Y-8650770D02*
X14636730Y-8669817D01*
X14808158Y-8726960D02*
X14827206Y-8736484D01*
X14827206Y-8736484D02*
X14865301Y-8736484D01*
X14865301Y-8736484D02*
X14884349Y-8726960D01*
X14884349Y-8726960D02*
X14893872Y-8707912D01*
X14893872Y-8707912D02*
X14893872Y-8698389D01*
X14893872Y-8698389D02*
X14884349Y-8679341D01*
X14884349Y-8679341D02*
X14865301Y-8669817D01*
X14865301Y-8669817D02*
X14836730Y-8669817D01*
X14836730Y-8669817D02*
X14817682Y-8660293D01*
X14817682Y-8660293D02*
X14808158Y-8641246D01*
X14808158Y-8641246D02*
X14808158Y-8631722D01*
X14808158Y-8631722D02*
X14817682Y-8612674D01*
X14817682Y-8612674D02*
X14836730Y-8603150D01*
X14836730Y-8603150D02*
X14865301Y-8603150D01*
X14865301Y-8603150D02*
X14884349Y-8612674D01*
X14960539Y-8812674D02*
X14970063Y-8803150D01*
X14970063Y-8803150D02*
X14989111Y-8774579D01*
X14989111Y-8774579D02*
X14998634Y-8755531D01*
X14998634Y-8755531D02*
X15008158Y-8726960D01*
X15008158Y-8726960D02*
X15017682Y-8679341D01*
X15017682Y-8679341D02*
X15017682Y-8641246D01*
X15017682Y-8641246D02*
X15008158Y-8593627D01*
X15008158Y-8593627D02*
X14998634Y-8565055D01*
X14998634Y-8565055D02*
X14989111Y-8546008D01*
X14989111Y-8546008D02*
X14970063Y-8517436D01*
X14970063Y-8517436D02*
X14960539Y-8507912D01*
D10*
X9995000Y-8909000D02*
G75*
G03*
X9895000Y-8909000I-50000J0D01*
G01*
X9895000Y-8909000D02*
G75*
G03*
X9995000Y-8909000I50000J0D01*
G01*
D11*
X10360539Y-9000484D02*
X10246253Y-9000484D01*
X10303396Y-9000484D02*
X10303396Y-8800484D01*
X10303396Y-8800484D02*
X10284348Y-8829055D01*
X10284348Y-8829055D02*
X10265301Y-8848103D01*
X10265301Y-8848103D02*
X10246253Y-8857627D01*
X10446253Y-8981436D02*
X10455777Y-8990960D01*
X10455777Y-8990960D02*
X10446253Y-9000484D01*
X10446253Y-9000484D02*
X10436729Y-8990960D01*
X10436729Y-8990960D02*
X10446253Y-8981436D01*
X10446253Y-8981436D02*
X10446253Y-9000484D01*
X10579586Y-8800484D02*
X10598634Y-8800484D01*
X10598634Y-8800484D02*
X10617682Y-8810008D01*
X10617682Y-8810008D02*
X10627205Y-8819531D01*
X10627205Y-8819531D02*
X10636729Y-8838579D01*
X10636729Y-8838579D02*
X10646253Y-8876674D01*
X10646253Y-8876674D02*
X10646253Y-8924293D01*
X10646253Y-8924293D02*
X10636729Y-8962389D01*
X10636729Y-8962389D02*
X10627205Y-8981436D01*
X10627205Y-8981436D02*
X10617682Y-8990960D01*
X10617682Y-8990960D02*
X10598634Y-9000484D01*
X10598634Y-9000484D02*
X10579586Y-9000484D01*
X10579586Y-9000484D02*
X10560539Y-8990960D01*
X10560539Y-8990960D02*
X10551015Y-8981436D01*
X10551015Y-8981436D02*
X10541491Y-8962389D01*
X10541491Y-8962389D02*
X10531967Y-8924293D01*
X10531967Y-8924293D02*
X10531967Y-8876674D01*
X10531967Y-8876674D02*
X10541491Y-8838579D01*
X10541491Y-8838579D02*
X10551015Y-8819531D01*
X10551015Y-8819531D02*
X10560539Y-8810008D01*
X10560539Y-8810008D02*
X10579586Y-8800484D01*
X10770063Y-8800484D02*
X10789110Y-8800484D01*
X10789110Y-8800484D02*
X10808158Y-8810008D01*
X10808158Y-8810008D02*
X10817682Y-8819531D01*
X10817682Y-8819531D02*
X10827205Y-8838579D01*
X10827205Y-8838579D02*
X10836729Y-8876674D01*
X10836729Y-8876674D02*
X10836729Y-8924293D01*
X10836729Y-8924293D02*
X10827205Y-8962389D01*
X10827205Y-8962389D02*
X10817682Y-8981436D01*
X10817682Y-8981436D02*
X10808158Y-8990960D01*
X10808158Y-8990960D02*
X10789110Y-9000484D01*
X10789110Y-9000484D02*
X10770063Y-9000484D01*
X10770063Y-9000484D02*
X10751015Y-8990960D01*
X10751015Y-8990960D02*
X10741491Y-8981436D01*
X10741491Y-8981436D02*
X10731967Y-8962389D01*
X10731967Y-8962389D02*
X10722444Y-8924293D01*
X10722444Y-8924293D02*
X10722444Y-8876674D01*
X10722444Y-8876674D02*
X10731967Y-8838579D01*
X10731967Y-8838579D02*
X10741491Y-8819531D01*
X10741491Y-8819531D02*
X10751015Y-8810008D01*
X10751015Y-8810008D02*
X10770063Y-8800484D01*
X10960539Y-8800484D02*
X10979586Y-8800484D01*
X10979586Y-8800484D02*
X10998634Y-8810008D01*
X10998634Y-8810008D02*
X11008158Y-8819531D01*
X11008158Y-8819531D02*
X11017682Y-8838579D01*
X11017682Y-8838579D02*
X11027205Y-8876674D01*
X11027205Y-8876674D02*
X11027205Y-8924293D01*
X11027205Y-8924293D02*
X11017682Y-8962389D01*
X11017682Y-8962389D02*
X11008158Y-8981436D01*
X11008158Y-8981436D02*
X10998634Y-8990960D01*
X10998634Y-8990960D02*
X10979586Y-9000484D01*
X10979586Y-9000484D02*
X10960539Y-9000484D01*
X10960539Y-9000484D02*
X10941491Y-8990960D01*
X10941491Y-8990960D02*
X10931967Y-8981436D01*
X10931967Y-8981436D02*
X10922444Y-8962389D01*
X10922444Y-8962389D02*
X10912920Y-8924293D01*
X10912920Y-8924293D02*
X10912920Y-8876674D01*
X10912920Y-8876674D02*
X10922444Y-8838579D01*
X10922444Y-8838579D02*
X10931967Y-8819531D01*
X10931967Y-8819531D02*
X10941491Y-8810008D01*
X10941491Y-8810008D02*
X10960539Y-8800484D01*
X11112920Y-9000484D02*
X11112920Y-8867150D01*
X11112920Y-8886198D02*
X11122444Y-8876674D01*
X11122444Y-8876674D02*
X11141491Y-8867150D01*
X11141491Y-8867150D02*
X11170063Y-8867150D01*
X11170063Y-8867150D02*
X11189110Y-8876674D01*
X11189110Y-8876674D02*
X11198634Y-8895722D01*
X11198634Y-8895722D02*
X11198634Y-9000484D01*
X11198634Y-8895722D02*
X11208158Y-8876674D01*
X11208158Y-8876674D02*
X11227205Y-8867150D01*
X11227205Y-8867150D02*
X11255777Y-8867150D01*
X11255777Y-8867150D02*
X11274824Y-8876674D01*
X11274824Y-8876674D02*
X11284348Y-8895722D01*
X11284348Y-8895722D02*
X11284348Y-9000484D01*
X11379586Y-9000484D02*
X11379586Y-8867150D01*
X11379586Y-8886198D02*
X11389110Y-8876674D01*
X11389110Y-8876674D02*
X11408158Y-8867150D01*
X11408158Y-8867150D02*
X11436729Y-8867150D01*
X11436729Y-8867150D02*
X11455777Y-8876674D01*
X11455777Y-8876674D02*
X11465301Y-8895722D01*
X11465301Y-8895722D02*
X11465301Y-9000484D01*
X11465301Y-8895722D02*
X11474824Y-8876674D01*
X11474824Y-8876674D02*
X11493872Y-8867150D01*
X11493872Y-8867150D02*
X11522443Y-8867150D01*
X11522443Y-8867150D02*
X11541491Y-8876674D01*
X11541491Y-8876674D02*
X11551015Y-8895722D01*
X11551015Y-8895722D02*
X11551015Y-9000484D01*
X11941491Y-8790960D02*
X11770063Y-9048103D01*
X12198634Y-8800484D02*
X12217682Y-8800484D01*
X12217682Y-8800484D02*
X12236729Y-8810008D01*
X12236729Y-8810008D02*
X12246253Y-8819531D01*
X12246253Y-8819531D02*
X12255777Y-8838579D01*
X12255777Y-8838579D02*
X12265301Y-8876674D01*
X12265301Y-8876674D02*
X12265301Y-8924293D01*
X12265301Y-8924293D02*
X12255777Y-8962389D01*
X12255777Y-8962389D02*
X12246253Y-8981436D01*
X12246253Y-8981436D02*
X12236729Y-8990960D01*
X12236729Y-8990960D02*
X12217682Y-9000484D01*
X12217682Y-9000484D02*
X12198634Y-9000484D01*
X12198634Y-9000484D02*
X12179586Y-8990960D01*
X12179586Y-8990960D02*
X12170063Y-8981436D01*
X12170063Y-8981436D02*
X12160539Y-8962389D01*
X12160539Y-8962389D02*
X12151015Y-8924293D01*
X12151015Y-8924293D02*
X12151015Y-8876674D01*
X12151015Y-8876674D02*
X12160539Y-8838579D01*
X12160539Y-8838579D02*
X12170063Y-8819531D01*
X12170063Y-8819531D02*
X12179586Y-8810008D01*
X12179586Y-8810008D02*
X12198634Y-8800484D01*
X12351015Y-8981436D02*
X12360539Y-8990960D01*
X12360539Y-8990960D02*
X12351015Y-9000484D01*
X12351015Y-9000484D02*
X12341491Y-8990960D01*
X12341491Y-8990960D02*
X12351015Y-8981436D01*
X12351015Y-8981436D02*
X12351015Y-9000484D01*
X12484348Y-8800484D02*
X12503396Y-8800484D01*
X12503396Y-8800484D02*
X12522444Y-8810008D01*
X12522444Y-8810008D02*
X12531967Y-8819531D01*
X12531967Y-8819531D02*
X12541491Y-8838579D01*
X12541491Y-8838579D02*
X12551015Y-8876674D01*
X12551015Y-8876674D02*
X12551015Y-8924293D01*
X12551015Y-8924293D02*
X12541491Y-8962389D01*
X12541491Y-8962389D02*
X12531967Y-8981436D01*
X12531967Y-8981436D02*
X12522444Y-8990960D01*
X12522444Y-8990960D02*
X12503396Y-9000484D01*
X12503396Y-9000484D02*
X12484348Y-9000484D01*
X12484348Y-9000484D02*
X12465301Y-8990960D01*
X12465301Y-8990960D02*
X12455777Y-8981436D01*
X12455777Y-8981436D02*
X12446253Y-8962389D01*
X12446253Y-8962389D02*
X12436729Y-8924293D01*
X12436729Y-8924293D02*
X12436729Y-8876674D01*
X12436729Y-8876674D02*
X12446253Y-8838579D01*
X12446253Y-8838579D02*
X12455777Y-8819531D01*
X12455777Y-8819531D02*
X12465301Y-8810008D01*
X12465301Y-8810008D02*
X12484348Y-8800484D01*
X12617682Y-8800484D02*
X12741491Y-8800484D01*
X12741491Y-8800484D02*
X12674825Y-8876674D01*
X12674825Y-8876674D02*
X12703396Y-8876674D01*
X12703396Y-8876674D02*
X12722444Y-8886198D01*
X12722444Y-8886198D02*
X12731967Y-8895722D01*
X12731967Y-8895722D02*
X12741491Y-8914770D01*
X12741491Y-8914770D02*
X12741491Y-8962389D01*
X12741491Y-8962389D02*
X12731967Y-8981436D01*
X12731967Y-8981436D02*
X12722444Y-8990960D01*
X12722444Y-8990960D02*
X12703396Y-9000484D01*
X12703396Y-9000484D02*
X12646253Y-9000484D01*
X12646253Y-9000484D02*
X12627206Y-8990960D01*
X12627206Y-8990960D02*
X12617682Y-8981436D01*
X12836729Y-9000484D02*
X12874825Y-9000484D01*
X12874825Y-9000484D02*
X12893872Y-8990960D01*
X12893872Y-8990960D02*
X12903396Y-8981436D01*
X12903396Y-8981436D02*
X12922444Y-8952865D01*
X12922444Y-8952865D02*
X12931967Y-8914770D01*
X12931967Y-8914770D02*
X12931967Y-8838579D01*
X12931967Y-8838579D02*
X12922444Y-8819531D01*
X12922444Y-8819531D02*
X12912920Y-8810008D01*
X12912920Y-8810008D02*
X12893872Y-8800484D01*
X12893872Y-8800484D02*
X12855777Y-8800484D01*
X12855777Y-8800484D02*
X12836729Y-8810008D01*
X12836729Y-8810008D02*
X12827206Y-8819531D01*
X12827206Y-8819531D02*
X12817682Y-8838579D01*
X12817682Y-8838579D02*
X12817682Y-8886198D01*
X12817682Y-8886198D02*
X12827206Y-8905246D01*
X12827206Y-8905246D02*
X12836729Y-8914770D01*
X12836729Y-8914770D02*
X12855777Y-8924293D01*
X12855777Y-8924293D02*
X12893872Y-8924293D01*
X12893872Y-8924293D02*
X12912920Y-8914770D01*
X12912920Y-8914770D02*
X12922444Y-8905246D01*
X12922444Y-8905246D02*
X12931967Y-8886198D01*
X13103396Y-8867150D02*
X13103396Y-9000484D01*
X13055777Y-8790960D02*
X13008158Y-8933817D01*
X13008158Y-8933817D02*
X13131967Y-8933817D01*
X13198634Y-8800484D02*
X13198634Y-8838579D01*
X13274825Y-8800484D02*
X13274825Y-8838579D01*
X13570063Y-9076674D02*
X13560539Y-9067150D01*
X13560539Y-9067150D02*
X13541491Y-9038579D01*
X13541491Y-9038579D02*
X13531968Y-9019531D01*
X13531968Y-9019531D02*
X13522444Y-8990960D01*
X13522444Y-8990960D02*
X13512920Y-8943341D01*
X13512920Y-8943341D02*
X13512920Y-8905246D01*
X13512920Y-8905246D02*
X13522444Y-8857627D01*
X13522444Y-8857627D02*
X13531968Y-8829055D01*
X13531968Y-8829055D02*
X13541491Y-8810008D01*
X13541491Y-8810008D02*
X13560539Y-8781436D01*
X13560539Y-8781436D02*
X13570063Y-8771912D01*
X13751015Y-9000484D02*
X13636729Y-9000484D01*
X13693872Y-9000484D02*
X13693872Y-8800484D01*
X13693872Y-8800484D02*
X13674825Y-8829055D01*
X13674825Y-8829055D02*
X13655777Y-8848103D01*
X13655777Y-8848103D02*
X13636729Y-8857627D01*
X13874825Y-8800484D02*
X13893872Y-8800484D01*
X13893872Y-8800484D02*
X13912920Y-8810008D01*
X13912920Y-8810008D02*
X13922444Y-8819531D01*
X13922444Y-8819531D02*
X13931968Y-8838579D01*
X13931968Y-8838579D02*
X13941491Y-8876674D01*
X13941491Y-8876674D02*
X13941491Y-8924293D01*
X13941491Y-8924293D02*
X13931968Y-8962389D01*
X13931968Y-8962389D02*
X13922444Y-8981436D01*
X13922444Y-8981436D02*
X13912920Y-8990960D01*
X13912920Y-8990960D02*
X13893872Y-9000484D01*
X13893872Y-9000484D02*
X13874825Y-9000484D01*
X13874825Y-9000484D02*
X13855777Y-8990960D01*
X13855777Y-8990960D02*
X13846253Y-8981436D01*
X13846253Y-8981436D02*
X13836729Y-8962389D01*
X13836729Y-8962389D02*
X13827206Y-8924293D01*
X13827206Y-8924293D02*
X13827206Y-8876674D01*
X13827206Y-8876674D02*
X13836729Y-8838579D01*
X13836729Y-8838579D02*
X13846253Y-8819531D01*
X13846253Y-8819531D02*
X13855777Y-8810008D01*
X13855777Y-8810008D02*
X13874825Y-8800484D01*
X14179587Y-9000484D02*
X14179587Y-8800484D01*
X14265301Y-9000484D02*
X14265301Y-8895722D01*
X14265301Y-8895722D02*
X14255777Y-8876674D01*
X14255777Y-8876674D02*
X14236730Y-8867150D01*
X14236730Y-8867150D02*
X14208158Y-8867150D01*
X14208158Y-8867150D02*
X14189110Y-8876674D01*
X14189110Y-8876674D02*
X14179587Y-8886198D01*
X14389110Y-9000484D02*
X14370063Y-8990960D01*
X14370063Y-8990960D02*
X14360539Y-8981436D01*
X14360539Y-8981436D02*
X14351015Y-8962389D01*
X14351015Y-8962389D02*
X14351015Y-8905246D01*
X14351015Y-8905246D02*
X14360539Y-8886198D01*
X14360539Y-8886198D02*
X14370063Y-8876674D01*
X14370063Y-8876674D02*
X14389110Y-8867150D01*
X14389110Y-8867150D02*
X14417682Y-8867150D01*
X14417682Y-8867150D02*
X14436730Y-8876674D01*
X14436730Y-8876674D02*
X14446253Y-8886198D01*
X14446253Y-8886198D02*
X14455777Y-8905246D01*
X14455777Y-8905246D02*
X14455777Y-8962389D01*
X14455777Y-8962389D02*
X14446253Y-8981436D01*
X14446253Y-8981436D02*
X14436730Y-8990960D01*
X14436730Y-8990960D02*
X14417682Y-9000484D01*
X14417682Y-9000484D02*
X14389110Y-9000484D01*
X14570063Y-9000484D02*
X14551015Y-8990960D01*
X14551015Y-8990960D02*
X14541491Y-8971912D01*
X14541491Y-8971912D02*
X14541491Y-8800484D01*
X14722444Y-8990960D02*
X14703396Y-9000484D01*
X14703396Y-9000484D02*
X14665301Y-9000484D01*
X14665301Y-9000484D02*
X14646253Y-8990960D01*
X14646253Y-8990960D02*
X14636730Y-8971912D01*
X14636730Y-8971912D02*
X14636730Y-8895722D01*
X14636730Y-8895722D02*
X14646253Y-8876674D01*
X14646253Y-8876674D02*
X14665301Y-8867150D01*
X14665301Y-8867150D02*
X14703396Y-8867150D01*
X14703396Y-8867150D02*
X14722444Y-8876674D01*
X14722444Y-8876674D02*
X14731968Y-8895722D01*
X14731968Y-8895722D02*
X14731968Y-8914770D01*
X14731968Y-8914770D02*
X14636730Y-8933817D01*
X14808158Y-8990960D02*
X14827206Y-9000484D01*
X14827206Y-9000484D02*
X14865301Y-9000484D01*
X14865301Y-9000484D02*
X14884349Y-8990960D01*
X14884349Y-8990960D02*
X14893872Y-8971912D01*
X14893872Y-8971912D02*
X14893872Y-8962389D01*
X14893872Y-8962389D02*
X14884349Y-8943341D01*
X14884349Y-8943341D02*
X14865301Y-8933817D01*
X14865301Y-8933817D02*
X14836730Y-8933817D01*
X14836730Y-8933817D02*
X14817682Y-8924293D01*
X14817682Y-8924293D02*
X14808158Y-8905246D01*
X14808158Y-8905246D02*
X14808158Y-8895722D01*
X14808158Y-8895722D02*
X14817682Y-8876674D01*
X14817682Y-8876674D02*
X14836730Y-8867150D01*
X14836730Y-8867150D02*
X14865301Y-8867150D01*
X14865301Y-8867150D02*
X14884349Y-8876674D01*
X14960539Y-9076674D02*
X14970063Y-9067150D01*
X14970063Y-9067150D02*
X14989111Y-9038579D01*
X14989111Y-9038579D02*
X14998634Y-9019531D01*
X14998634Y-9019531D02*
X15008158Y-8990960D01*
X15008158Y-8990960D02*
X15017682Y-8943341D01*
X15017682Y-8943341D02*
X15017682Y-8905246D01*
X15017682Y-8905246D02*
X15008158Y-8857627D01*
X15008158Y-8857627D02*
X14998634Y-8829055D01*
X14998634Y-8829055D02*
X14989111Y-8810008D01*
X14989111Y-8810008D02*
X14970063Y-8781436D01*
X14970063Y-8781436D02*
X14960539Y-8771912D01*
M02*
